<?xml version="1.0" encoding="UTF-8" standalone="no"?>
<svg width="120px" height="71px" viewBox="0 0 120 71" version="1.1" xmlns="http://www.w3.org/2000/svg" xmlns:xlink="http://www.w3.org/1999/xlink" xmlns:sketch="http://www.bohemiancoding.com/sketch/ns">
    <!-- Generator: Sketch 3.2.2 (9983) - http://www.bohemiancoding.com/sketch -->
    <title>icon aller-retour</title>
    <desc>Created with Sketch.</desc>
    <defs></defs>
    <g id="Page-1" stroke="none" stroke-width="1" fill="none" fill-rule="evenodd" sketch:type="MSPage">
        <g id="icon-aller-retour" sketch:type="MSArtboardGroup" stroke="#FFFFFF" stroke-width="2">
            <path d="M93.643091,11.595352 L85.341957,11.595352 L77.74403,3.48143932 C75.968989,1.59164042 72.995326,1.49762062 71.104062,3.26989472 C69.221016,5.04686982 69.117707,8.02259792 70.892748,9.91709782 L72.465866,11.595352 L27.061445,11.595352 C14.3450139,11.595352 4,22.1443787 4,35.1003134 C4,48.0597738 14.3450139,58.6052748 27.061445,58.6052748 L40.144154,58.6052748 L47.742081,66.7238884 C48.662473,67.7110968 49.911576,68.2 51.165374,68.2 C52.315864,68.2 53.471049,67.7863127 54.377353,66.9307321 C56.269791,65.158458 56.363709,62.1827299 54.588668,60.283529 L53.020245,58.6052748 L93.639569,58.6052748 C106.351304,58.6052748 116.697492,48.0656501 116.697492,35.1003134 C116.701014,22.1443787 106.356,11.595352 93.643091,11.595352 L93.643091,11.595352 L93.643091,11.595352 Z M93.643091,49.2032902 L53.023767,49.2032902 L54.596885,47.520335 C56.367231,45.6258351 56.273313,42.6489317 54.385571,40.8731319 C52.493133,39.0961568 49.520644,39.1901767 47.745603,41.0846766 L40.14298,49.1985892 L27.061445,49.1985892 C19.5245647,49.1985892 13.3917512,42.8757546 13.3917512,35.0956124 C13.3917512,27.3201712 19.5245647,20.9926356 27.061445,20.9926356 L72.46117,20.9926356 L70.892748,22.6708898 C69.116533,24.5653897 69.221016,27.5411178 71.104062,29.3180929 C72.00567,30.1689725 73.160856,30.5873608 74.320737,30.5873608 C75.573362,30.5873608 76.823639,30.0937566 77.74403,29.1065482 L85.341957,20.9926356 L93.643091,20.9926356 C101.175275,20.9926356 107.309263,27.3201712 107.309263,35.0956124 C107.309263,42.8757546 101.179971,49.2032902 93.643091,49.2032902 L93.643091,49.2032902 L93.643091,49.2032902 Z" id="check" sketch:type="MSShapeGroup"></path>
        </g>
    </g>
</svg>