<?xml version="1.0" encoding="UTF-8" standalone="no"?>
<svg width="178px" height="103px" viewBox="0 0 178 103" version="1.1" xmlns="http://www.w3.org/2000/svg" xmlns:xlink="http://www.w3.org/1999/xlink" xmlns:sketch="http://www.bohemiancoding.com/sketch/ns">
    <!-- Generator: Sketch 3.2.2 (9983) - http://www.bohemiancoding.com/sketch -->
    <title>banknote-multi-10-icon</title>
    <desc>Created with Sketch.</desc>
    <defs></defs>
    <g id="Page-1" stroke="none" stroke-width="1" fill="none" fill-rule="evenodd" sketch:type="MSPage">
        <g id="Ticket-6" sketch:type="MSArtboardGroup" transform="translate(-685.000000, -736.000000)" fill="#355F95">
            <g id="ticket-sélectionné" sketch:type="MSLayerGroup" transform="translate(165.000000, 285.000000)">
                <g id="icons" transform="translate(520.000000, 451.000000)" sketch:type="MSShapeGroup">
                    <path d="M154.473757,41.6759749 C141.480621,41.6759749 130.947947,46.7686394 130.947947,53.0505959 C130.947947,59.3329826 141.480621,64.4252169 154.473757,64.4252169 C167.466893,64.4252169 178,59.3334127 178,53.0505959 C178,46.7686394 167.466893,41.6759749 154.473757,41.6759749 L154.473757,41.6759749 Z M172.605563,65.0226587 C174.784335,63.9692858 176.59285,62.7382718 178,61.354994 L178,65.8811856 C178,72.1631422 167.466893,77.2562368 154.473757,77.2562368 C141.480621,77.2562368 130.947947,72.1631422 130.947947,65.8811856 L130.947947,61.354994 C132.355961,62.7387019 134.163612,63.9692858 136.341951,65.0226587 C141.242136,67.3922102 147.682107,68.6972054 154.473757,68.6972054 C161.26584,68.6972054 167.705379,67.3922102 172.605563,65.0226587 L172.605563,65.0226587 Z M172.605563,90.6838382 C174.784335,89.6313255 176.59285,88.3998814 178,87.0166036 L178,91.6249488 C178,97.9069054 167.466893,103 154.473757,103 C141.480621,103 130.947947,97.9069054 130.947947,91.6249488 L130.947947,87.0166036 C132.355961,88.4003115 134.163612,89.6313255 136.341951,90.6838382 C141.242136,93.0542499 147.682107,94.3583849 154.473757,94.3583849 C161.26584,94.3583849 167.705379,93.0538197 172.605563,90.6838382 L172.605563,90.6838382 Z M172.605563,77.8536786 C174.784335,76.8007358 176.59285,75.5688616 178,74.1855838 L178,78.7122055 C178,84.994162 167.466893,90.0868265 154.473757,90.0868265 C141.480621,90.0868265 130.947947,84.994162 130.947947,78.7122055 L130.947947,74.1855838 C132.355961,75.5692917 134.163612,76.8007358 136.341951,77.8536786 C141.242136,80.22323 147.682107,81.5282253 154.473757,81.5282253 C161.26584,81.5277952 167.705379,80.2227999 172.605563,77.8536786 L172.605563,77.8536786 Z M140.662772,11.0507379 L11.0990777,11.0507379 L11.0990777,79.3793273 L0,79.3793273 L0,0 L140.662772,0 L140.662772,11.0507379 L140.662772,11.0507379 Z M122.311922,91.851624 L22.1977233,91.851624 L22.1977233,20.1973182 L152.430214,20.1973182 L152.430214,33.1139327 C145.532714,33.3599634 138.028631,34.8912038 132.133461,38.3012244 C130.180214,36.1471649 128.523777,33.7943883 127.411277,31.4798928 L47.2166602,31.4798928 C44.600665,36.9235382 38.992801,42.5886974 33.5301019,45.3427794 L33.5301019,66.7053026 C38.992801,69.4598148 44.600665,75.1245438 47.2166602,80.5686193 L122.30717,80.5686193 L122.30717,91.6240886 C122.30717,91.7006506 122.310626,91.7763524 122.311922,91.851624 L122.311922,91.851624 Z M67.3362767,56.0249012 C67.3362767,67.00897 76.2803447,75.9133906 87.3133204,75.9133906 C98.3462961,75.9133906 107.290364,67.00897 107.290364,56.0249012 C107.290364,45.0404024 98.3462961,36.1355516 87.3133204,36.1355516 C76.2803447,36.1355516 67.3362767,45.0399723 67.3362767,56.0249012 L67.3362767,56.0249012 Z" id="banknote-multi-10-icon"></path>
                </g>
            </g>
        </g>
    </g>
</svg>