<?xml version="1.0" encoding="utf-8"?>
<!-- Generator: Adobe Illustrator 17.0.0, SVG Export Plug-In . SVG Version: 6.00 Build 0)  -->
<!DOCTYPE svg PUBLIC "-//W3C//DTD SVG 1.1//EN" "http://www.w3.org/Graphics/SVG/1.1/DTD/svg11.dtd">
<svg version="1.1" id="Calque_1" xmlns="http://www.w3.org/2000/svg" xmlns:xlink="http://www.w3.org/1999/xlink" x="0px" y="0px"
	 width="74.149px" height="18.048px" viewBox="12.925 41.088 74.149 18.048" enable-background="new 12.925 41.088 74.149 18.048"
	 xml:space="preserve">
<g>
	<g>
		<g>
			<path fill="#FFFFFF" d="M15.931,46.39v7.15h-2.107v-7.15h-0.898v-1.969h0.898v-3.333h2.107v3.351h1.641v1.969h-1.641V46.39z"/>
			<path fill="#FFFFFF" d="M18.815,44.421h2.107v0.829c0.38-0.397,0.725-0.691,1.036-0.829c0.311-0.155,0.674-0.242,1.088-0.242
				c0.553,0,1.14,0.173,1.744,0.535l-0.967,1.934c-0.397-0.294-0.794-0.432-1.174-0.432c-1.157,0-1.727,0.864-1.727,2.608v4.732
				h-2.107V44.421z"/>
			<path fill="#FFFFFF" d="M33.582,49.482h-6.546c0.052,0.743,0.294,1.347,0.725,1.796c0.432,0.432,0.984,0.656,1.658,0.656
				c0.518,0,0.95-0.121,1.295-0.38c0.345-0.242,0.725-0.708,1.157-1.382l1.779,0.984c-0.276,0.466-0.57,0.864-0.864,1.209
				c-0.311,0.328-0.639,0.604-0.984,0.829c-0.345,0.207-0.725,0.38-1.14,0.466c-0.415,0.104-0.846,0.155-1.313,0.155
				c-1.364,0-2.453-0.432-3.282-1.313s-1.244-2.055-1.244-3.506c0-1.451,0.397-2.608,1.192-3.506
				c0.812-0.881,1.865-1.313,3.195-1.313c1.347,0,2.401,0.432,3.178,1.278c0.777,0.846,1.157,2.021,1.157,3.523L33.582,49.482z
				 M31.423,47.772c-0.294-1.123-1.002-1.693-2.124-1.693c-0.259,0-0.501,0.035-0.725,0.121s-0.432,0.19-0.622,0.345
				c-0.19,0.138-0.345,0.328-0.466,0.535s-0.225,0.432-0.294,0.708h4.231V47.772z"/>
			<path fill="#FFFFFF" d="M42.045,44.421h2.124v9.119h-2.124v-0.95c-0.864,0.812-1.796,1.209-2.798,1.209
				c-1.261,0-2.297-0.449-3.126-1.364c-0.812-0.933-1.226-2.09-1.226-3.489c0-1.364,0.415-2.504,1.226-3.42
				c0.812-0.915,1.848-1.364,3.074-1.364c1.054,0,2.021,0.432,2.85,1.313V44.421z M37.036,48.964c0,0.881,0.242,1.589,0.708,2.142
				c0.484,0.553,1.088,0.829,1.813,0.829c0.777,0,1.416-0.276,1.9-0.812c0.484-0.553,0.725-1.261,0.725-2.124
				s-0.242-1.554-0.725-2.124c-0.484-0.535-1.105-0.812-1.865-0.812c-0.725,0-1.33,0.276-1.813,0.829
				C37.278,47.461,37.036,48.152,37.036,48.964z"/>
			<path fill="#FFFFFF" d="M51.544,45.976l-1.744,0.933c-0.276-0.553-0.622-0.829-1.019-0.829c-0.19,0-0.363,0.069-0.501,0.19
				s-0.207,0.294-0.207,0.484c0,0.345,0.397,0.691,1.226,1.036c1.123,0.484,1.865,0.915,2.263,1.33
				c0.38,0.397,0.587,0.95,0.587,1.641c0,0.881-0.328,1.623-0.967,2.211c-0.639,0.57-1.399,0.846-2.28,0.846
				c-1.537,0-2.608-0.743-3.247-2.245l1.796-0.829c0.242,0.432,0.432,0.708,0.57,0.829c0.259,0.242,0.57,0.363,0.915,0.363
				c0.708,0,1.071-0.328,1.071-0.967c0-0.38-0.276-0.725-0.829-1.054c-0.207-0.104-0.432-0.207-0.639-0.311
				c-0.207-0.104-0.432-0.207-0.639-0.311c-0.604-0.294-1.036-0.604-1.295-0.898c-0.311-0.38-0.484-0.864-0.484-1.468
				c0-0.794,0.276-1.451,0.812-1.969c0.553-0.518,1.226-0.777,2.021-0.777C50.11,44.18,50.974,44.784,51.544,45.976z"/>
			<path fill="#FFFFFF" d="M56.138,51.848l-4.111-7.427h2.453l2.798,5.25l2.608-5.25h2.383l-7.288,14.093H52.58L56.138,51.848z"/>
		</g>
		<g>
			<path fill="#FFFFFF" d="M63.893,44.456c2.556,0,2.038-0.035,5.786,0.017c2.245,0.035,4.508,0.138,6.736,0.345
				c2.297,0.207,4.421,0.967,6.062,2.66c1.261,1.295,2.418,2.712,3.575,4.111c0.363,0.449,0.604,1.002,0.794,1.554
				c0.898,2.729-0.95,5.371-3.782,5.371c-7.202,0.017-14.387,0.017-21.589,0.017c-1.71,0-0.173,0-4.801,0l0.915-1.796
				c9.534,0,12.159,0,18.756,0c2.211,0,4.439,0,6.649-0.017c1.14-0.017,1.934-0.656,2.124-1.71
				c-0.294-0.017-0.604-0.017-0.898-0.017c-7.824,0-15.648-0.035-23.472-0.035c-0.829,0-1.261-0.035-2.28-0.035l0.587-1.192
				c10.535,0,16.183,0,25.302,0c0.207,0,0.484,0.017,0.864,0.017c-0.121-0.622-0.501-1.123-0.622-1.261
				c-0.967-1.088-1.883-2.107-2.902-3.143c-1.382-1.399-3.022-2.435-4.991-2.729c-1.157-0.173-2.332-0.242-3.506-0.259
				c-3.592-0.052-3.195-0.086-6.788-0.104c-1.641,0-3.005,0.017-3.437,0.035L63.893,44.456z"/>
		</g>
	</g>
	<g>
		<path fill="#FFFFFF" d="M13.685,56.373h0.363l0.691,1.796l0.691-1.796h0.363l-0.846,2.142h-0.397L13.685,56.373z"/>
		<path fill="#FFFFFF" d="M15.741,57.737c0-0.449,0.294-0.812,0.777-0.812s0.777,0.363,0.777,0.812s-0.294,0.812-0.777,0.812
			C16.051,58.566,15.741,58.187,15.741,57.737z M17.019,57.737c0-0.294-0.173-0.553-0.484-0.553s-0.484,0.259-0.484,0.553
			s0.173,0.553,0.484,0.553C16.846,58.307,17.019,58.048,17.019,57.737z"/>
		<path fill="#FFFFFF" d="M17.779,58.895c0.104,0,0.173-0.035,0.225-0.155l0.086-0.207L17.45,56.96h0.311l0.484,1.209l0.484-1.209
			h0.311l-0.76,1.848c-0.104,0.242-0.276,0.328-0.501,0.328c-0.052,0-0.138-0.017-0.173-0.017l0.052-0.259
			C17.692,58.877,17.744,58.895,17.779,58.895z"/>
		<path fill="#FFFFFF" d="M20.231,58.359c-0.121,0.138-0.294,0.207-0.501,0.207c-0.259,0-0.535-0.173-0.535-0.518
			c0-0.345,0.276-0.501,0.535-0.501c0.207,0,0.397,0.069,0.501,0.207v-0.259c0-0.19-0.155-0.311-0.38-0.311
			c-0.173,0-0.328,0.069-0.466,0.207l-0.121-0.207c0.173-0.173,0.38-0.259,0.639-0.259c0.345,0,0.622,0.155,0.622,0.535v1.054
			h-0.294C20.231,58.515,20.231,58.359,20.231,58.359z M20.231,57.91c-0.086-0.121-0.242-0.173-0.397-0.173
			c-0.207,0-0.363,0.121-0.363,0.311s0.155,0.311,0.363,0.311c0.155,0,0.311-0.069,0.397-0.173V57.91z"/>
		<path fill="#FFFFFF" d="M21.112,58.705c0.121,0.155,0.294,0.207,0.501,0.207c0.242,0,0.484-0.121,0.484-0.449v-0.207
			c-0.121,0.155-0.294,0.259-0.518,0.259c-0.397,0-0.691-0.294-0.691-0.812c0-0.501,0.294-0.794,0.691-0.794
			c0.207,0,0.38,0.104,0.518,0.259v-0.225h0.294v1.485c0,0.535-0.397,0.691-0.777,0.691c-0.259,0-0.449-0.052-0.639-0.225
			L21.112,58.705z M22.096,57.409c-0.086-0.121-0.259-0.225-0.432-0.225c-0.294,0-0.466,0.225-0.466,0.535
			c0,0.328,0.173,0.553,0.466,0.553c0.173,0,0.345-0.104,0.432-0.225V57.409z"/>
		<path fill="#FFFFFF" d="M23.53,56.926c0.466,0,0.76,0.363,0.76,0.846v0.069h-1.226c0.017,0.259,0.207,0.484,0.535,0.484
			c0.155,0,0.345-0.069,0.466-0.19l0.138,0.19c-0.155,0.155-0.38,0.225-0.622,0.225c-0.466,0-0.794-0.328-0.794-0.812
			C22.753,57.288,23.064,56.926,23.53,56.926z M23.046,57.634h0.95c0-0.207-0.138-0.466-0.466-0.466
			C23.219,57.168,23.064,57.427,23.046,57.634z"/>
		<path fill="#FFFFFF" d="M24.635,56.978h0.294v0.242c0.121-0.155,0.294-0.276,0.501-0.276v0.294c-0.035,0-0.069-0.017-0.104-0.017
			c-0.138,0-0.345,0.104-0.415,0.225v1.071h-0.294v-1.537H24.635z"/>
		<path fill="#FFFFFF" d="M25.412,58.826c0.104-0.069,0.207-0.19,0.225-0.294c0,0-0.035,0-0.052,0c-0.104,0-0.173-0.069-0.173-0.19
			c0-0.104,0.086-0.19,0.19-0.19c0.121,0,0.225,0.104,0.225,0.259c0,0.207-0.121,0.397-0.276,0.518L25.412,58.826z"/>
		<path fill="#FFFFFF" d="M27.105,58.187v-0.95h-0.259v-0.259h0.259v-0.432h0.294v0.432h0.311v0.259h-0.311v0.898
			c0,0.104,0.052,0.19,0.155,0.19c0.069,0,0.121-0.035,0.155-0.069l0.069,0.225c-0.069,0.052-0.155,0.104-0.294,0.104
			C27.243,58.566,27.105,58.428,27.105,58.187z"/>
		<path fill="#FFFFFF" d="M27.934,57.737c0-0.449,0.294-0.812,0.777-0.812s0.777,0.363,0.777,0.812s-0.294,0.812-0.777,0.812
			C28.245,58.566,27.934,58.187,27.934,57.737z M29.212,57.737c0-0.294-0.173-0.553-0.484-0.553s-0.484,0.259-0.484,0.553
			s0.173,0.553,0.484,0.553C29.039,58.307,29.212,58.048,29.212,57.737z"/>
		<path fill="#FFFFFF" d="M30.922,58.307c-0.121,0.121-0.311,0.259-0.553,0.259c-0.328,0-0.501-0.173-0.501-0.501v-1.088h0.294
			v1.002c0,0.259,0.121,0.328,0.328,0.328c0.173,0,0.345-0.104,0.432-0.225V56.96h0.294v1.554h-0.294V58.307z"/>
		<path fill="#FFFFFF" d="M31.734,58.187v-0.95h-0.259v-0.259h0.259v-0.432h0.294v0.432h0.311v0.259H32.01v0.898
			c0,0.104,0.052,0.19,0.155,0.19c0.069,0,0.121-0.035,0.155-0.069l0.069,0.225c-0.069,0.052-0.155,0.104-0.294,0.104
			C31.855,58.566,31.734,58.428,31.734,58.187z"/>
		<path fill="#FFFFFF" d="M33.478,58.1c0.104,0.121,0.311,0.225,0.518,0.225c0.225,0,0.328-0.104,0.328-0.242
			c0-0.155-0.173-0.19-0.38-0.242c-0.259-0.069-0.57-0.138-0.57-0.466c0-0.242,0.207-0.466,0.587-0.466
			c0.259,0,0.466,0.104,0.587,0.225l-0.121,0.207c-0.086-0.104-0.259-0.19-0.466-0.19c-0.19,0-0.311,0.086-0.311,0.207
			c0,0.138,0.173,0.173,0.363,0.207c0.276,0.069,0.587,0.138,0.587,0.484c0,0.259-0.225,0.484-0.622,0.484
			c-0.259,0-0.484-0.086-0.639-0.242L33.478,58.1z"/>
		<path fill="#FFFFFF" d="M34.946,56.58c0-0.104,0.086-0.19,0.19-0.19c0.104,0,0.19,0.086,0.19,0.19c0,0.104-0.086,0.19-0.19,0.19
			C35.032,56.77,34.946,56.684,34.946,56.58z M34.981,56.978h0.294v1.554h-0.294V56.978z"/>
		<path fill="#FFFFFF" d="M37.623,57.496c0-0.173-0.086-0.294-0.276-0.294c-0.155,0-0.311,0.104-0.38,0.225v1.105h-0.294v-1.036
			c0-0.173-0.069-0.294-0.276-0.294c-0.155,0-0.294,0.121-0.38,0.225v1.105h-0.294v-1.554h0.294v0.225
			c0.069-0.104,0.276-0.259,0.501-0.259c0.242,0,0.38,0.121,0.415,0.294c0.086-0.138,0.294-0.294,0.518-0.294
			c0.294,0,0.432,0.155,0.432,0.466v1.123h-0.294v-1.036H37.623z"/>
		<path fill="#FFFFFF" d="M38.366,59.119v-2.142h0.294v0.225c0.121-0.155,0.294-0.259,0.501-0.259c0.397,0,0.691,0.311,0.691,0.812
			s-0.294,0.812-0.691,0.812c-0.207,0-0.38-0.086-0.501-0.259v0.812H38.366z M39.091,57.185c-0.173,0-0.345,0.104-0.432,0.225v0.656
			c0.069,0.121,0.259,0.225,0.432,0.225c0.294,0,0.466-0.242,0.466-0.553C39.558,57.427,39.385,57.185,39.091,57.185z"/>
		<path fill="#FFFFFF" d="M40.231,56.373h0.294v2.142h-0.294V56.373z"/>
		<path fill="#FFFFFF" d="M41.647,56.926c0.466,0,0.76,0.363,0.76,0.846v0.069h-1.226c0.017,0.259,0.207,0.484,0.535,0.484
			c0.155,0,0.345-0.069,0.466-0.19l0.138,0.19c-0.155,0.155-0.38,0.225-0.622,0.225c-0.466,0-0.794-0.328-0.794-0.812
			C40.87,57.288,41.198,56.926,41.647,56.926z M41.181,57.634h0.95c0-0.207-0.138-0.466-0.466-0.466
			C41.336,57.168,41.198,57.427,41.181,57.634z"/>
		<path fill="#FFFFFF" d="M44.653,57.496c0-0.173-0.086-0.294-0.276-0.294c-0.155,0-0.311,0.104-0.38,0.225v1.105h-0.294v-1.036
			c0-0.173-0.069-0.294-0.276-0.294c-0.155,0-0.294,0.121-0.38,0.225v1.105h-0.294v-1.554h0.294v0.225
			c0.069-0.104,0.276-0.259,0.501-0.259c0.242,0,0.38,0.121,0.415,0.294c0.086-0.138,0.294-0.294,0.518-0.294
			c0.294,0,0.432,0.155,0.432,0.466v1.123h-0.294v-1.036H44.653z"/>
		<path fill="#FFFFFF" d="M46.086,56.926c0.466,0,0.76,0.363,0.76,0.846v0.069H45.62c0.017,0.259,0.207,0.484,0.535,0.484
			c0.155,0,0.345-0.069,0.466-0.19l0.138,0.19c-0.155,0.155-0.38,0.225-0.622,0.225c-0.466,0-0.794-0.328-0.794-0.812
			C45.309,57.288,45.637,56.926,46.086,56.926z M45.62,57.634h0.95c0-0.207-0.138-0.466-0.466-0.466S45.62,57.427,45.62,57.634z"/>
		<path fill="#FFFFFF" d="M48.245,57.53c0-0.259-0.138-0.345-0.328-0.345c-0.173,0-0.345,0.104-0.432,0.225v1.105h-0.276V56.96
			h0.294v0.225c0.104-0.121,0.311-0.259,0.553-0.259c0.328,0,0.501,0.173,0.501,0.501v1.088h-0.311V57.53z"/>
		<path fill="#FFFFFF" d="M49.057,58.187v-0.95h-0.259v-0.259h0.259v-0.432h0.294v0.432h0.311v0.259H49.35v0.898
			c0,0.104,0.052,0.19,0.155,0.19c0.069,0,0.121-0.035,0.155-0.069l0.069,0.225c-0.069,0.052-0.155,0.104-0.294,0.104
			C49.178,58.566,49.057,58.428,49.057,58.187z"/>
	</g>
</g>
</svg>
