<?xml version="1.0" encoding="utf-8"?>
<!-- Generator: Adobe Illustrator 17.0.0, SVG Export Plug-In . SVG Version: 6.00 Build 0)  -->
<!DOCTYPE svg PUBLIC "-//W3C//DTD SVG 1.1//EN" "http://www.w3.org/Graphics/SVG/1.1/DTD/svg11.dtd">
<svg version="1.1" id="Calque_1" xmlns="http://www.w3.org/2000/svg" xmlns:xlink="http://www.w3.org/1999/xlink" x="0px" y="0px"
	 width="74.149px" height="17.444px" viewBox="8.204 41.088 74.149 17.444" enable-background="new 8.204 41.088 74.149 17.444"
	 xml:space="preserve">
<g>
	<g>
		<path fill="#335289" d="M11.209,46.39v7.15H9.102v-7.15H8.204v-1.969h0.898v-3.333h2.107v3.351h1.641v1.969h-1.641V46.39z"/>
		<path fill="#335289" d="M14.093,44.421H16.2v0.829c0.38-0.397,0.725-0.691,1.036-0.829c0.311-0.155,0.674-0.242,1.088-0.242
			c0.553,0,1.14,0.173,1.744,0.535l-0.967,1.934c-0.397-0.294-0.794-0.432-1.174-0.432c-1.157,0-1.727,0.864-1.727,2.608v4.732
			h-2.107V44.421z"/>
		<path fill="#335289" d="M28.86,49.482h-6.546c0.052,0.743,0.294,1.347,0.725,1.796c0.432,0.432,0.984,0.656,1.658,0.656
			c0.518,0,0.95-0.121,1.295-0.38c0.345-0.242,0.725-0.708,1.157-1.382l1.779,0.984c-0.276,0.466-0.57,0.864-0.864,1.209
			c-0.311,0.328-0.639,0.604-0.984,0.829c-0.345,0.207-0.725,0.38-1.14,0.466c-0.415,0.104-0.846,0.155-1.313,0.155
			c-1.364,0-2.453-0.432-3.282-1.313s-1.244-2.055-1.244-3.506c0-1.451,0.397-2.608,1.192-3.506
			c0.812-0.881,1.865-1.313,3.195-1.313c1.347,0,2.401,0.432,3.178,1.278c0.777,0.846,1.157,2.021,1.157,3.523L28.86,49.482z
			 M26.701,47.772c-0.294-1.123-1.002-1.693-2.124-1.693c-0.259,0-0.501,0.035-0.725,0.121c-0.225,0.086-0.432,0.19-0.622,0.345
			c-0.19,0.138-0.345,0.328-0.466,0.535c-0.121,0.207-0.225,0.432-0.294,0.708h4.231V47.772z"/>
		<path fill="#335289" d="M37.323,44.421h2.124v9.119h-2.124v-0.95c-0.864,0.812-1.796,1.209-2.798,1.209
			c-1.261,0-2.297-0.449-3.126-1.364c-0.812-0.933-1.226-2.09-1.226-3.489c0-1.364,0.415-2.504,1.226-3.42
			c0.812-0.915,1.848-1.364,3.074-1.364c1.054,0,2.021,0.432,2.85,1.313V44.421z M32.314,48.964c0,0.881,0.242,1.589,0.708,2.142
			c0.484,0.553,1.088,0.829,1.813,0.829c0.777,0,1.416-0.276,1.9-0.812c0.484-0.553,0.725-1.261,0.725-2.124
			s-0.242-1.554-0.725-2.124c-0.484-0.535-1.105-0.812-1.865-0.812c-0.725,0-1.33,0.276-1.813,0.829
			C32.556,47.461,32.314,48.152,32.314,48.964z"/>
		<path fill="#335289" d="M46.822,45.976l-1.744,0.933c-0.276-0.553-0.622-0.829-1.019-0.829c-0.19,0-0.363,0.069-0.501,0.19
			s-0.207,0.294-0.207,0.484c0,0.345,0.397,0.691,1.226,1.036c1.123,0.484,1.865,0.915,2.263,1.33
			c0.38,0.397,0.587,0.95,0.587,1.641c0,0.881-0.328,1.623-0.967,2.211c-0.639,0.57-1.399,0.846-2.28,0.846
			c-1.537,0-2.608-0.743-3.247-2.245l1.796-0.829c0.242,0.432,0.432,0.708,0.57,0.829c0.259,0.242,0.57,0.363,0.915,0.363
			c0.708,0,1.071-0.328,1.071-0.967c0-0.38-0.276-0.725-0.829-1.054c-0.207-0.104-0.432-0.207-0.639-0.311
			c-0.207-0.104-0.432-0.207-0.639-0.311c-0.604-0.294-1.036-0.604-1.295-0.898c-0.311-0.38-0.484-0.864-0.484-1.468
			c0-0.794,0.276-1.451,0.812-1.969c0.553-0.518,1.226-0.777,2.021-0.777C45.389,44.18,46.252,44.784,46.822,45.976z"/>
		<path fill="#335289" d="M51.416,51.848l-4.111-7.427h2.453l2.798,5.25l2.608-5.25h2.383l-7.288,14.093h-2.401L51.416,51.848z"/>
	</g>
	<g>
		<path fill="#335289" d="M59.171,44.456c2.556,0,2.038-0.035,5.786,0.017c2.245,0.035,4.508,0.138,6.736,0.345
			c2.297,0.207,4.421,0.967,6.062,2.66c1.261,1.295,2.418,2.712,3.575,4.111c0.363,0.449,0.604,1.002,0.794,1.554
			c0.898,2.729-0.95,5.371-3.782,5.371c-7.202,0.017-14.387,0.017-21.589,0.017c-1.71,0-0.173,0-4.801,0l0.915-1.796
			c9.534,0,12.159,0,18.756,0c2.211,0,4.439,0,6.649-0.017c1.14-0.017,1.934-0.656,2.124-1.71c-0.294-0.017-0.604-0.017-0.898-0.017
			c-7.824,0-15.648-0.035-23.472-0.035c-0.829,0-1.261-0.035-2.28-0.035l0.587-1.192c10.535,0,16.183,0,25.302,0
			c0.207,0,0.484,0.017,0.864,0.017c-0.121-0.622-0.501-1.123-0.622-1.261c-0.967-1.088-1.883-2.107-2.902-3.143
			c-1.382-1.399-3.022-2.435-4.991-2.729c-1.157-0.173-2.332-0.242-3.506-0.259c-3.592-0.052-3.195-0.086-6.788-0.104
			c-1.641,0-3.005,0.017-3.437,0.035L59.171,44.456z"/>
	</g>
</g>
</svg>
