<?xml version="1.0" encoding="utf-8"?>
<!-- Generator: Adobe Illustrator 16.0.0, SVG Export Plug-In . SVG Version: 6.00 Build 0)  -->
<!DOCTYPE svg PUBLIC "-//W3C//DTD SVG 1.1//EN" "http://www.w3.org/Graphics/SVG/1.1/DTD/svg11.dtd">
<svg version="1.1" id="Layer_1" xmlns="http://www.w3.org/2000/svg" xmlns:xlink="http://www.w3.org/1999/xlink" x="0px" y="0px"
	 width="335px" height="627px" viewBox="0 0 335 627" enable-background="new 0 0 335 627" xml:space="preserve">
<linearGradient id="SVGID_1_" gradientUnits="userSpaceOnUse" x1="-7.7139" y1="165.063" x2="511.5925" y2="605.0048">
	<stop  offset="0" style="stop-color:#3F6EB6"/>
	<stop  offset="1" style="stop-color:#3EBDC5"/>
</linearGradient>
<rect fill="url(#SVGID_1_)" stroke="#000000" stroke-miterlimit="10" width="335" height="627"/>
<rect x="9.65" y="9.65" transform="matrix(-0.7071 0.7071 -0.7071 -0.7071 79.5378 32.9456)" opacity="0.1" fill="none" stroke="#FFFFFF" stroke-width="0.75" stroke-miterlimit="10" width="46.592" height="46.592"/>
<rect x="75.541" y="9.65" transform="matrix(-0.7071 0.7071 -0.7071 -0.7071 192.0206 -13.6468)" opacity="0.1" fill="none" stroke="#FFFFFF" stroke-width="0.75" stroke-miterlimit="10" width="46.592" height="46.592"/>
<rect x="141.431" y="9.65" transform="matrix(-0.7071 0.7071 -0.7071 -0.7071 304.5026 -60.2388)" opacity="0.1" fill="none" stroke="#FFFFFF" stroke-width="0.75" stroke-miterlimit="10" width="46.592" height="46.592"/>
<rect x="207.322" y="9.649" transform="matrix(-0.7071 0.7071 -0.7071 -0.7071 416.9842 -106.8307)" opacity="0.1" fill="none" stroke="#FFFFFF" stroke-width="0.75" stroke-miterlimit="10" width="46.592" height="46.593"/>
<rect x="273.212" y="9.649" transform="matrix(-0.7071 0.7071 -0.7071 -0.7071 529.4662 -153.4228)" opacity="0.1" fill="none" stroke="#FFFFFF" stroke-width="0.75" stroke-miterlimit="10" width="46.592" height="46.593"/>
<rect x="339.103" y="9.649" transform="matrix(-0.7071 0.7071 -0.7071 -0.7071 641.9482 -200.0148)" opacity="0.1" fill="none" stroke="#FFFFFF" stroke-width="0.75" stroke-miterlimit="10" width="46.592" height="46.593"/>
<rect x="9.65" y="75.541" transform="matrix(-0.7071 0.7071 -0.7071 -0.7071 126.1305 145.4293)" opacity="0.1" fill="none" stroke="#FFFFFF" stroke-width="0.75" stroke-miterlimit="10" width="46.592" height="46.592"/>
<rect x="75.541" y="75.541" transform="matrix(-0.7071 0.7071 -0.7071 -0.7071 238.6133 98.8369)" opacity="0.1" fill="none" stroke="#FFFFFF" stroke-width="0.75" stroke-miterlimit="10" width="46.592" height="46.592"/>
<rect x="141.431" y="75.541" transform="matrix(-0.7071 0.7071 -0.7071 -0.7071 351.0953 52.2448)" opacity="0.1" fill="none" stroke="#FFFFFF" stroke-width="0.75" stroke-miterlimit="10" width="46.592" height="46.592"/>
<rect x="207.322" y="75.541" transform="matrix(-0.7071 0.7071 -0.7071 -0.7071 463.5769 5.653)" opacity="0.1" fill="none" stroke="#FFFFFF" stroke-width="0.75" stroke-miterlimit="10" width="46.592" height="46.593"/>
<rect x="273.212" y="75.541" transform="matrix(-0.7071 0.7071 -0.7071 -0.7071 576.0589 -40.9391)" opacity="0.1" fill="none" stroke="#FFFFFF" stroke-width="0.75" stroke-miterlimit="10" width="46.592" height="46.593"/>
<rect x="339.103" y="75.541" transform="matrix(-0.7071 0.7071 -0.7071 -0.7071 688.5409 -87.5311)" opacity="0.1" fill="none" stroke="#FFFFFF" stroke-width="0.75" stroke-miterlimit="10" width="46.592" height="46.593"/>
<rect x="9.65" y="141.433" transform="matrix(-0.7071 0.7071 -0.7071 -0.7071 172.7233 257.913)" opacity="0.1" fill="none" stroke="#FFFFFF" stroke-width="0.75" stroke-miterlimit="10" width="46.592" height="46.592"/>
<rect x="75.541" y="141.433" transform="matrix(-0.7071 0.7071 -0.7071 -0.7071 285.2061 211.3206)" opacity="0.1" fill="none" stroke="#FFFFFF" stroke-width="0.75" stroke-miterlimit="10" width="46.592" height="46.592"/>
<rect x="141.431" y="141.433" transform="matrix(-0.7071 0.7071 -0.7071 -0.7071 397.6881 164.7285)" opacity="0.1" fill="none" stroke="#FFFFFF" stroke-width="0.75" stroke-miterlimit="10" width="46.592" height="46.592"/>
<rect x="207.322" y="141.433" transform="matrix(-0.7071 0.7071 -0.7071 -0.7071 510.1697 118.1366)" opacity="0.1" fill="none" stroke="#FFFFFF" stroke-width="0.75" stroke-miterlimit="10" width="46.592" height="46.593"/>
<rect x="273.212" y="141.433" transform="matrix(-0.7071 0.7071 -0.7071 -0.7071 622.6516 71.5446)" opacity="0.1" fill="none" stroke="#FFFFFF" stroke-width="0.75" stroke-miterlimit="10" width="46.592" height="46.593"/>
<rect x="339.103" y="141.433" transform="matrix(-0.7071 0.7071 -0.7071 -0.7071 735.1337 24.9525)" opacity="0.1" fill="none" stroke="#FFFFFF" stroke-width="0.75" stroke-miterlimit="10" width="46.592" height="46.593"/>
<rect x="9.65" y="207.324" transform="matrix(-0.7071 0.7071 -0.7071 -0.7071 219.316 370.3966)" opacity="0.1" fill="none" stroke="#FFFFFF" stroke-width="0.75" stroke-miterlimit="10" width="46.592" height="46.592"/>
<rect x="75.541" y="207.324" transform="matrix(-0.7071 0.7071 -0.7071 -0.7071 331.7988 323.8042)" opacity="0.1" fill="none" stroke="#FFFFFF" stroke-width="0.75" stroke-miterlimit="10" width="46.592" height="46.592"/>
<rect x="141.431" y="207.324" transform="matrix(-0.7071 0.7071 -0.7071 -0.7071 444.2808 277.2122)" opacity="0.1" fill="none" stroke="#FFFFFF" stroke-width="0.75" stroke-miterlimit="10" width="46.592" height="46.592"/>
<rect x="207.322" y="207.324" transform="matrix(-0.7071 0.7071 -0.7071 -0.7071 556.7624 230.6203)" opacity="0.1" fill="none" stroke="#FFFFFF" stroke-width="0.75" stroke-miterlimit="10" width="46.592" height="46.593"/>
<rect x="273.212" y="207.324" transform="matrix(-0.7071 0.7071 -0.7071 -0.7071 669.2444 184.0282)" opacity="0.1" fill="none" stroke="#FFFFFF" stroke-width="0.75" stroke-miterlimit="10" width="46.592" height="46.593"/>
<rect x="339.103" y="207.324" transform="matrix(-0.7071 0.7071 -0.7071 -0.7071 781.7264 137.4362)" opacity="0.1" fill="none" stroke="#FFFFFF" stroke-width="0.75" stroke-miterlimit="10" width="46.592" height="46.593"/>
<rect x="9.65" y="273.216" transform="matrix(-0.7071 0.7071 -0.7071 -0.7071 265.9088 482.8802)" opacity="0.1" fill="none" stroke="#FFFFFF" stroke-width="0.75" stroke-miterlimit="10" width="46.592" height="46.592"/>
<rect x="75.541" y="273.216" transform="matrix(-0.7071 0.7071 -0.7071 -0.7071 378.3916 436.2878)" opacity="0.1" fill="none" stroke="#FFFFFF" stroke-width="0.75" stroke-miterlimit="10" width="46.592" height="46.592"/>
<rect x="141.431" y="273.216" transform="matrix(-0.7071 0.7071 -0.7071 -0.7071 490.8736 389.6958)" opacity="0.1" fill="none" stroke="#FFFFFF" stroke-width="0.75" stroke-miterlimit="10" width="46.592" height="46.592"/>
<rect x="207.322" y="273.216" transform="matrix(-0.7071 0.7071 -0.7071 -0.7071 603.3552 343.1039)" opacity="0.1" fill="none" stroke="#FFFFFF" stroke-width="0.75" stroke-miterlimit="10" width="46.592" height="46.593"/>
<rect x="273.212" y="273.216" transform="matrix(-0.7071 0.7071 -0.7071 -0.7071 715.8372 296.5119)" opacity="0.1" fill="none" stroke="#FFFFFF" stroke-width="0.75" stroke-miterlimit="10" width="46.592" height="46.593"/>
<rect x="339.103" y="273.216" transform="matrix(-0.7071 0.7071 -0.7071 -0.7071 828.3192 249.9198)" opacity="0.1" fill="none" stroke="#FFFFFF" stroke-width="0.75" stroke-miterlimit="10" width="46.592" height="46.593"/>
<rect x="9.649" y="339.108" transform="matrix(-0.7071 0.7071 -0.7071 -0.7071 312.5035 595.3627)" opacity="0.1" fill="none" stroke="#FFFFFF" stroke-width="0.75" stroke-miterlimit="10" width="46.592" height="46.593"/>
<rect x="75.54" y="339.108" transform="matrix(-0.7071 0.7071 -0.7071 -0.7071 424.986 548.77)" opacity="0.1" fill="none" stroke="#FFFFFF" stroke-width="0.75" stroke-miterlimit="10" width="46.592" height="46.593"/>
<rect x="141.431" y="339.108" transform="matrix(-0.7071 0.7071 -0.7071 -0.7071 537.4677 502.1776)" opacity="0.1" fill="none" stroke="#FFFFFF" stroke-width="0.75" stroke-miterlimit="10" width="46.592" height="46.593"/>
<rect x="207.321" y="339.108" transform="matrix(-0.7071 0.7071 -0.7071 -0.7071 649.9489 455.5853)" opacity="0.1" fill="none" stroke="#FFFFFF" stroke-width="0.75" stroke-miterlimit="10" width="46.592" height="46.593"/>
<rect x="273.212" y="339.108" transform="matrix(-0.7071 0.7071 -0.7071 -0.7071 762.4305 408.9929)" opacity="0.1" fill="none" stroke="#FFFFFF" stroke-width="0.75" stroke-miterlimit="10" width="46.592" height="46.593"/>
<rect x="339.103" y="339.108" transform="matrix(-0.7071 0.7071 -0.7071 -0.7071 874.9122 362.4005)" opacity="0.1" fill="none" stroke="#FFFFFF" stroke-width="0.75" stroke-miterlimit="10" width="46.592" height="46.593"/>
<rect x="9.649" y="405" transform="matrix(-0.7071 0.7071 -0.7071 -0.7071 359.0966 707.846)" opacity="0.1" fill="none" stroke="#FFFFFF" stroke-width="0.75" stroke-miterlimit="10" width="46.592" height="46.593"/>
<rect x="75.54" y="405" transform="matrix(-0.7071 0.7071 -0.7071 -0.7071 471.5791 661.2533)" opacity="0.1" fill="none" stroke="#FFFFFF" stroke-width="0.75" stroke-miterlimit="10" width="46.592" height="46.593"/>
<rect x="141.431" y="405" transform="matrix(-0.7071 0.7071 -0.7071 -0.7071 584.0608 614.6609)" opacity="0.1" fill="none" stroke="#FFFFFF" stroke-width="0.75" stroke-miterlimit="10" width="46.592" height="46.593"/>
<rect x="207.321" y="404.999" transform="matrix(-0.7071 0.7071 -0.7071 -0.7071 696.542 568.0686)" opacity="0.1" fill="none" stroke="#FFFFFF" stroke-width="0.75" stroke-miterlimit="10" width="46.592" height="46.593"/>
<rect x="273.212" y="404.999" transform="matrix(-0.7071 0.7071 -0.7071 -0.7071 809.0236 521.4763)" opacity="0.1" fill="none" stroke="#FFFFFF" stroke-width="0.75" stroke-miterlimit="10" width="46.592" height="46.593"/>
<rect x="339.103" y="404.999" transform="matrix(-0.7071 0.7071 -0.7071 -0.7071 921.5052 474.8839)" opacity="0.1" fill="none" stroke="#FFFFFF" stroke-width="0.75" stroke-miterlimit="10" width="46.592" height="46.593"/>
<rect x="9.649" y="470.891" transform="matrix(-0.7071 0.7071 -0.7071 -0.7071 405.6897 820.3293)" opacity="0.1" fill="none" stroke="#FFFFFF" stroke-width="0.75" stroke-miterlimit="10" width="46.592" height="46.593"/>
<rect x="75.54" y="470.891" transform="matrix(-0.7071 0.7071 -0.7071 -0.7071 518.1722 773.7366)" opacity="0.1" fill="none" stroke="#FFFFFF" stroke-width="0.75" stroke-miterlimit="10" width="46.592" height="46.593"/>
<rect x="141.431" y="470.891" transform="matrix(-0.7071 0.7071 -0.7071 -0.7071 630.6538 727.1442)" opacity="0.1" fill="none" stroke="#FFFFFF" stroke-width="0.75" stroke-miterlimit="10" width="46.592" height="46.593"/>
<rect x="207.321" y="470.891" transform="matrix(-0.7071 0.7071 -0.7071 -0.7071 743.1351 680.5519)" opacity="0.1" fill="none" stroke="#FFFFFF" stroke-width="0.75" stroke-miterlimit="10" width="46.592" height="46.593"/>
<rect x="273.212" y="470.891" transform="matrix(-0.7071 0.7071 -0.7071 -0.7071 855.6167 633.9595)" opacity="0.1" fill="none" stroke="#FFFFFF" stroke-width="0.75" stroke-miterlimit="10" width="46.592" height="46.593"/>
<rect x="339.103" y="470.891" transform="matrix(-0.7071 0.7071 -0.7071 -0.7071 968.0984 587.3672)" opacity="0.1" fill="none" stroke="#FFFFFF" stroke-width="0.75" stroke-miterlimit="10" width="46.592" height="46.593"/>
<rect x="9.649" y="536.783" transform="matrix(-0.7071 0.7071 -0.7071 -0.7071 452.2828 932.8126)" opacity="0.1" fill="none" stroke="#FFFFFF" stroke-width="0.75" stroke-miterlimit="10" width="46.592" height="46.593"/>
<rect x="75.54" y="536.783" transform="matrix(-0.7071 0.7071 -0.7071 -0.7071 564.7653 886.2198)" opacity="0.1" fill="none" stroke="#FFFFFF" stroke-width="0.75" stroke-miterlimit="10" width="46.592" height="46.593"/>
<rect x="141.431" y="536.783" transform="matrix(-0.7071 0.7071 -0.7071 -0.7071 677.2469 839.6274)" opacity="0.1" fill="none" stroke="#FFFFFF" stroke-width="0.75" stroke-miterlimit="10" width="46.592" height="46.593"/>
<rect x="207.321" y="536.783" transform="matrix(-0.7071 0.7071 -0.7071 -0.7071 789.7281 793.0353)" opacity="0.1" fill="none" stroke="#FFFFFF" stroke-width="0.75" stroke-miterlimit="10" width="46.592" height="46.593"/>
<rect x="273.212" y="536.783" transform="matrix(-0.7071 0.7071 -0.7071 -0.7071 902.2098 746.4429)" opacity="0.1" fill="none" stroke="#FFFFFF" stroke-width="0.75" stroke-miterlimit="10" width="46.592" height="46.593"/>
<rect x="339.103" y="536.783" transform="matrix(-0.7071 0.7071 -0.7071 -0.7071 1014.6914 699.8505)" opacity="0.1" fill="none" stroke="#FFFFFF" stroke-width="0.75" stroke-miterlimit="10" width="46.592" height="46.593"/>
<rect x="9.649" y="602.674" transform="matrix(-0.7071 0.7071 -0.7071 -0.7071 498.8759 1045.2959)" opacity="0.1" fill="none" stroke="#FFFFFF" stroke-width="0.75" stroke-miterlimit="10" width="46.592" height="46.593"/>
<rect x="75.54" y="602.674" transform="matrix(-0.7071 0.7071 -0.7071 -0.7071 611.3583 998.7032)" opacity="0.1" fill="none" stroke="#FFFFFF" stroke-width="0.75" stroke-miterlimit="10" width="46.592" height="46.593"/>
<rect x="141.431" y="602.674" transform="matrix(-0.7071 0.7071 -0.7071 -0.7071 723.84 952.1108)" opacity="0.1" fill="none" stroke="#FFFFFF" stroke-width="0.75" stroke-miterlimit="10" width="46.592" height="46.593"/>
<rect x="207.321" y="602.674" transform="matrix(-0.7071 0.7071 -0.7071 -0.7071 836.3212 905.5186)" opacity="0.1" fill="none" stroke="#FFFFFF" stroke-width="0.75" stroke-miterlimit="10" width="46.592" height="46.593"/>
<rect x="273.212" y="602.674" transform="matrix(-0.7071 0.7071 -0.7071 -0.7071 948.8029 858.9261)" opacity="0.1" fill="none" stroke="#FFFFFF" stroke-width="0.75" stroke-miterlimit="10" width="46.592" height="46.593"/>
<rect x="339.103" y="602.674" transform="matrix(-0.7071 0.7071 -0.7071 -0.7071 1061.2845 812.3337)" opacity="0.1" fill="none" stroke="#FFFFFF" stroke-width="0.75" stroke-miterlimit="10" width="46.592" height="46.593"/>
</svg>
