<?xml version="1.0" encoding="UTF-8" standalone="no"?>
<svg width="51px" height="50px" viewBox="0 0 51 50" version="1.1" xmlns="http://www.w3.org/2000/svg" xmlns:xlink="http://www.w3.org/1999/xlink" xmlns:sketch="http://www.bohemiancoding.com/sketch/ns">
    <!-- Generator: Sketch 3.2.2 (9983) - http://www.bohemiancoding.com/sketch -->
    <title>Artboard 1</title>
    <desc>Created with Sketch.</desc>
    <defs/>
    <g id="Page-1" stroke="none" stroke-width="1" fill="none" fill-rule="evenodd" sketch:type="MSPage">
        <g id="Artboard-1" sketch:type="MSArtboardGroup" fill="#FFFFFF">
            <path d="M18.2449643,29.919153 L10.9564071,29.919153 L10.9564071,22.6307195 L18.2449643,22.6307195 L18.2449643,29.919153 L18.2449643,29.919153 Z M29.2571756,22.6307195 L21.9687421,22.6307195 L21.9687421,29.919153 L29.2571756,29.919153 L29.2571756,22.6307195 L29.2571756,22.6307195 Z M40.2695105,22.6307195 L32.9809533,22.6307195 L32.9809533,29.919153 L40.2695105,29.919153 L40.2695105,22.6307195 L40.2695105,22.6307195 Z M18.2449643,33.2718522 L10.9564071,33.2718522 L10.9564071,40.5605331 L18.2449643,40.5605331 L18.2449643,33.2718522 L18.2449643,33.2718522 Z M29.2571756,33.2718522 L21.9687421,33.2718522 L21.9687421,40.5605331 L29.2571756,40.5605331 L29.2571756,33.2718522 L29.2571756,33.2718522 Z M40.2693868,33.2718522 L32.9809533,33.2718522 L32.9809533,40.5605331 L40.2693868,40.5605331 L40.2693868,33.2718522 L40.2693868,33.2718522 Z M42.9838655,7.91675523 C42.9838655,9.15842692 41.9772886,10.1651276 40.7356169,10.1651276 C39.4939452,10.1651276 38.4872445,9.15842692 38.4872445,7.91675523 L38.4872445,2.25851854 C38.4872445,1.01697057 39.4939452,0.0102699304 40.7356169,0.0102699304 C41.9772886,0.0102699304 42.9838655,1.01697057 42.9838655,2.25851854 L42.9838655,7.91675523 L42.9838655,7.91675523 Z M12.6071438,2.24837234 C12.6071438,1.00670064 11.6004431,-1.33226763e-14 10.3588952,-1.33226763e-14 C9.11709974,-1.33226763e-14 8.11052283,1.00670064 8.11052283,2.24837234 L8.11052283,7.90648529 C8.11052283,9.14815699 9.11709974,10.1548576 10.3588952,10.1548576 C11.6004431,10.1548576 12.6071438,9.14815699 12.6071438,7.90648529 L12.6071438,2.24837234 L12.6071438,2.24837234 Z M45.7014375,5.53116177 L45.7014375,7.83459578 C45.7014375,10.5728314 43.4737288,12.8005402 40.7356169,12.8005402 C37.9973812,12.8005402 35.7696725,10.5728314 35.7696725,7.83459578 L35.7696725,5.53116177 L15.3247158,5.53116177 L15.3247158,7.82432585 C15.3247158,10.5625615 13.0970071,12.7902702 10.3588952,12.7902702 C7.62065952,12.7902702 5.39295077,10.5625615 5.39295077,7.82432585 L5.39295077,5.53116177 L0,5.53116177 L0,49.9517039 L50.9784495,49.9517039 L50.9784495,5.53116177 L45.7014375,5.53116177 L45.7014375,5.53116177 Z M46.0290854,45.0023399 L4.94936402,45.0023399 L4.94936402,17.4750908 L46.0290854,17.4750908 L46.0290854,45.0023399 L46.0290854,45.0023399 Z" id="calendar-5-icon" sketch:type="MSShapeGroup"/>
        </g>
    </g>
</svg>