<?xml version="1.0" encoding="utf-8"?>
<!-- Generator: Adobe Illustrator 16.0.0, SVG Export Plug-In . SVG Version: 6.00 Build 0)  -->
<!DOCTYPE svg PUBLIC "-//W3C//DTD SVG 1.1//EN" "http://www.w3.org/Graphics/SVG/1.1/DTD/svg11.dtd">
<svg version="1.1" id="Layer_1" xmlns:sketch="http://www.bohemiancoding.com/sketch/ns"
	 xmlns="http://www.w3.org/2000/svg" xmlns:xlink="http://www.w3.org/1999/xlink" x="0px" y="0px" width="386.488px"
	 height="371.716px" viewBox="103.568 142.899 386.488 371.716" enable-background="new 103.568 142.899 386.488 371.716"
	 xml:space="preserve">
<title>25-07-2015 - loading</title>
<desc>Created with Sketch.</desc>
<g sketch:type="MSPage">
	<g sketch:type="MSArtboardGroup">
		<path sketch:type="MSShapeGroup" fill="#355F95" d="M172.781,412.418c-6.773-10.043-20.492-12.635-30.64-5.79
			c-10.148,6.846-12.884,20.535-6.11,30.578c6.773,10.042,20.492,12.634,30.64,5.789
			C176.819,436.149,179.555,422.46,172.781,412.418z M147.884,324.41c0.423-12.106-9.152-22.266-21.385-22.693
			c-12.234-0.427-22.494,9.041-22.917,21.146c-0.423,12.106,9.152,22.266,21.385,22.693
			C137.201,345.983,147.461,336.516,147.884,324.41z M179.873,238.062c7.458-9.545,5.684-23.393-3.963-30.929
			c-9.646-7.536-23.511-5.907-30.969,3.638c-7.458,9.545-5.684,23.393,3.962,30.929
			C158.549,249.236,172.415,247.607,179.873,238.062z M256.528,186.357c11.644-3.339,18.348-15.584,14.974-27.352
			c-3.374-11.767-15.548-18.599-27.192-15.26s-18.348,15.584-14.974,27.352C232.709,182.864,244.884,189.696,256.528,186.357z
			 M348.571,189.044c11.383,4.143,24.004-1.823,28.19-13.326c4.187-11.502-1.646-24.186-13.029-28.329
			c-11.383-4.143-24.004,1.824-28.191,13.326C331.354,172.218,337.188,184.901,348.571,189.044z M416.25,248.195
			c10.161,15.063,30.737,18.951,45.96,8.684s19.326-30.803,9.165-45.866c-10.16-15.063-30.736-18.951-45.959-8.684
			S406.09,233.132,416.25,248.195z M445.741,333.104c-0.423,12.106,9.151,22.266,21.386,22.693
			c12.233,0.427,22.493-9.04,22.916-21.146s-9.152-22.266-21.386-22.693S446.164,320.999,445.741,333.104z M413.753,419.452
			c-7.458,9.545-5.684,23.393,3.962,30.929c9.646,7.536,23.512,5.908,30.969-3.638c7.458-9.545,5.684-23.393-3.962-30.929
			C435.075,408.278,421.21,409.906,413.753,419.452z M337.097,471.157c-11.644,3.339-18.348,15.584-14.974,27.351
			c3.374,11.768,15.549,18.6,27.192,15.261s18.348-15.585,14.974-27.352S348.741,467.818,337.097,471.157z M245.054,468.47
			c-11.383-4.143-24.004,1.823-28.191,13.326c-4.187,11.503,1.647,24.187,13.03,28.329c11.383,4.144,24.004-1.823,28.191-13.326
			C262.27,485.297,256.437,472.613,245.054,468.47z"/>
	</g>
</g>
</svg>
