<?xml version="1.0" encoding="utf-8"?>
<!-- Generator: Adobe Illustrator 16.0.0, SVG Export Plug-In . SVG Version: 6.00 Build 0)  -->
<!DOCTYPE svg PUBLIC "-//W3C//DTD SVG 1.1//EN" "http://www.w3.org/Graphics/SVG/1.1/DTD/svg11.dtd">
<svg version="1.1" id="Layer_1" xmlns="http://www.w3.org/2000/svg" xmlns:xlink="http://www.w3.org/1999/xlink" x="0px" y="0px"
	 width="300px" height="300px" viewBox="0 0 300 300" enable-background="new 0 0 300 300" xml:space="preserve">
<g>
	<path fill="#FFFFFF" d="M40.555,142.24v24.108h-6.776V142.24h-2.891v-6.627h2.891v-11.265h6.776v11.265h5.27v6.627H40.555z"/>
</g>
<g>
	<path fill="#FFFFFF" d="M49.788,135.613h6.775v2.745c1.245-1.367,2.349-2.303,3.312-2.809c0.984-0.525,2.148-0.788,3.493-0.788
		c1.787,0,3.654,0.61,5.602,1.83l-3.102,6.5c-1.285-0.967-2.541-1.452-3.765-1.452c-3.694,0-5.541,2.925-5.541,8.772v15.936h-6.775
		V135.613z"/>
	<path fill="#FFFFFF" d="M97.285,152.652h-21.02c0.18,2.524,0.963,4.533,2.349,6.026c1.385,1.475,3.162,2.21,5.33,2.21
		c1.687,0,3.082-0.421,4.186-1.262c1.084-0.842,2.319-2.398,3.704-4.67l5.722,3.345c-0.884,1.578-1.817,2.929-2.801,4.054
		c-0.984,1.127-2.038,2.052-3.162,2.778c-1.125,0.724-2.339,1.256-3.644,1.592c-1.306,0.336-2.721,0.506-4.246,0.506
		c-4.377,0-7.89-1.472-10.54-4.418c-2.65-2.966-3.975-6.899-3.975-11.802c0-4.859,1.285-8.792,3.854-11.801
		c2.59-2.966,6.023-4.449,10.299-4.449c4.316,0,7.729,1.441,10.239,4.323c2.489,2.861,3.734,6.826,3.734,11.896L97.285,152.652z
		 M90.328,146.846c-0.944-3.786-3.222-5.68-6.836-5.68c-0.823,0-1.596,0.131-2.319,0.395c-0.723,0.264-1.38,0.642-1.973,1.136
		c-0.592,0.495-1.099,1.089-1.521,1.784c-0.422,0.694-0.743,1.483-0.964,2.366H90.328z"/>
	<path fill="#FFFFFF" d="M124.464,135.613h6.806v30.735h-6.806v-3.218c-2.791,2.733-5.792,4.102-9.004,4.102
		c-4.055,0-7.408-1.536-10.058-4.607c-2.63-3.135-3.945-7.047-3.945-11.739c0-4.606,1.315-8.445,3.945-11.517
		c2.63-3.07,5.922-4.606,9.877-4.606c3.413,0,6.475,1.473,9.185,4.418V135.613z M108.383,150.885c0,2.946,0.753,5.344,2.259,7.195
		c1.545,1.873,3.493,2.809,5.842,2.809c2.509,0,4.537-0.903,6.083-2.714c1.546-1.871,2.319-4.249,2.319-7.13
		c0-2.883-0.773-5.26-2.319-7.133c-1.546-1.83-3.553-2.745-6.023-2.745c-2.329,0-4.276,0.926-5.842,2.777
		C109.156,145.816,108.383,148.13,108.383,150.885z"/>
</g>
<g>
	<path fill="#FFFFFF" d="M155.026,140.851l-5.602,3.125c-0.884-1.872-1.978-2.809-3.283-2.809c-0.623,0-1.155,0.215-1.596,0.646
		s-0.662,0.982-0.662,1.654c0,1.177,1.305,2.344,3.915,3.499c3.594,1.618,6.013,3.109,7.257,4.476
		c1.245,1.365,1.868,3.203,1.868,5.516c0,2.962-1.045,5.441-3.133,7.438c-2.028,1.891-4.477,2.837-7.347,2.837
		c-4.919,0-8.402-2.513-10.45-7.542l5.782-2.809c0.802,1.473,1.415,2.41,1.837,2.809c0.823,0.8,1.807,1.199,2.951,1.199
		c2.289,0,3.433-1.094,3.433-3.281c0-1.263-0.883-2.439-2.65-3.535c-0.683-0.357-1.365-0.704-2.048-1.041
		c-0.683-0.336-1.375-0.684-2.078-1.041c-1.967-1.01-3.353-2.02-4.156-3.03c-1.023-1.282-1.535-2.935-1.535-4.954
		c0-2.671,0.873-4.88,2.62-6.626c1.787-1.746,3.955-2.619,6.504-2.619C150.408,134.761,153.197,136.791,155.026,140.851z"/>
</g>
<g>
	<path fill="#FFFFFF" d="M169.798,160.636l-13.189-25.023h7.86l8.974,17.67l8.372-17.67h7.648l-23.368,47.459h-7.74L169.798,160.636
		z"/>
</g>
<g>
	<defs>
		<rect id="SVGID_1_" x="-16.582" y="-95.521" width="333.164" height="349.107"/>
	</defs>
	<clipPath id="SVGID_2_">
		<use xlink:href="#SVGID_1_"  overflow="visible"/>
	</clipPath>
	<path clip-path="url(#SVGID_2_)" fill="#FFFFFF" d="M194.749,135.689c8.199,0,6.541-0.105,18.592,0.067
		c7.228,0.105,14.47,0.469,21.666,1.157c7.364,0.704,14.221,3.266,19.499,8.946c4.064,4.375,7.789,9.108,11.484,13.836
		c1.162,1.486,1.97,3.394,2.549,5.243c2.886,9.213-3.033,18.085-12.16,18.116c-23.133,0.075-46.265,0.033-69.397,0.037
		c-5.479,0.002-0.536,0.015-15.456-0.023l2.955-6.024c30.677,0.028,39.064,0.02,60.302,0.016c7.123,0,14.246,0.027,21.369-0.032
		c3.687-0.03,6.244-2.232,6.84-5.772c-0.965-0.062-1.96-0.079-2.901-0.079c-25.144-0.011-50.305-0.117-75.448-0.117
		c-2.669-0.008-4.067-0.106-7.315-0.144l1.91-4.023h81.32c0.656,0,1.55,0.077,2.756,0.077c-0.374-2.075-1.623-3.776-1.999-4.226
		c-3.088-3.687-6.05-7.114-9.345-10.587c-4.452-4.692-9.699-8.179-16.068-9.186c-3.715-0.587-7.503-0.827-11.263-0.892
		c-11.561-0.203-10.277-0.283-21.84-0.339c-5.268-0.026-9.661,0.084-11.073,0.124L194.749,135.689z"/>
</g>
<g>
	<path fill="#FFFFFF" d="M33.884,175.866h1.178l2.202,6.045l2.211-6.045h1.178l-2.739,7.226h-1.292L33.884,175.866z"/>
	<path fill="#FFFFFF" d="M40.537,180.471c0-1.506,0.972-2.74,2.522-2.74c1.561,0,2.522,1.234,2.522,2.74
		c0,1.516-0.961,2.75-2.522,2.75C41.508,183.221,40.537,181.986,40.537,180.471z M44.609,180.471c0-0.985-0.548-1.874-1.55-1.874
		c-0.992,0-1.551,0.889-1.551,1.874c0,0.997,0.559,1.884,1.551,1.884C44.062,182.354,44.609,181.468,44.609,180.471z"/>
	<path fill="#FFFFFF" d="M47.066,184.348c0.341,0,0.568-0.12,0.724-0.508l0.29-0.694l-2.057-5.286h0.992l1.561,4.105l1.561-4.105
		h1.002l-2.46,6.229c-0.32,0.823-0.868,1.115-1.591,1.126c-0.156,0-0.434-0.032-0.58-0.075l0.146-0.877
		C46.766,184.315,46.942,184.348,47.066,184.348z"/>
	<path fill="#FFFFFF" d="M54.97,182.518c-0.393,0.454-0.961,0.703-1.634,0.703c-0.827,0-1.736-0.585-1.736-1.731
		c0-1.191,0.899-1.712,1.736-1.712c0.672,0,1.251,0.227,1.634,0.693v-0.867c0-0.649-0.507-1.039-1.22-1.039
		c-0.568,0-1.054,0.227-1.499,0.692l-0.403-0.671c0.558-0.574,1.24-0.855,2.046-0.855c1.085,0,2.005,0.497,2.005,1.83v3.531h-0.93
		V182.518z M54.97,181.055c-0.279-0.389-0.765-0.596-1.282-0.596c-0.672,0-1.147,0.424-1.147,1.041s0.476,1.039,1.147,1.039
		c0.517,0,1.002-0.206,1.282-0.596V181.055z"/>
	<path fill="#FFFFFF" d="M57.789,183.72c0.414,0.497,0.92,0.692,1.602,0.692c0.775,0,1.551-0.39,1.551-1.494v-0.683
		c-0.382,0.521-0.972,0.899-1.644,0.899c-1.292,0-2.223-0.996-2.223-2.708c0-1.679,0.931-2.696,2.223-2.696
		c0.651,0,1.24,0.324,1.644,0.888v-0.759h0.93v5.026c0,1.798-1.251,2.328-2.481,2.328c-0.837,0-1.447-0.183-2.046-0.778
		L57.789,183.72z M60.941,179.365c-0.258-0.422-0.827-0.769-1.385-0.769c-0.93,0-1.509,0.758-1.509,1.83
		c0,1.084,0.579,1.842,1.509,1.842c0.559,0,1.127-0.357,1.385-0.779V179.365z"/>
	<path fill="#FFFFFF" d="M65.538,177.73c1.499,0,2.429,1.224,2.429,2.826v0.238h-3.949c0.073,0.889,0.693,1.624,1.695,1.624
		c0.527,0,1.106-0.216,1.478-0.617l0.434,0.639c-0.496,0.51-1.199,0.78-2.005,0.78c-1.489,0-2.584-1.104-2.584-2.75
		C63.036,178.954,64.08,177.73,65.538,177.73z M64.008,180.092h3.049c-0.021-0.694-0.465-1.56-1.519-1.56
		C64.535,178.532,64.06,179.376,64.008,180.092z"/>
	<path fill="#FFFFFF" d="M69.131,177.859h0.93v0.802c0.383-0.52,0.972-0.92,1.633-0.92v0.985c-0.093-0.021-0.196-0.031-0.321-0.031
		c-0.465,0-1.095,0.366-1.312,0.756v3.641h-0.93V177.859z"/>
	<path fill="#FFFFFF" d="M71.61,184.12c0.331-0.216,0.651-0.649,0.703-1.007c-0.02,0-0.103,0.021-0.155,0.021
		c-0.32,0-0.558-0.26-0.558-0.617c0-0.368,0.279-0.66,0.631-0.66c0.382,0,0.723,0.324,0.723,0.898c0,0.704-0.382,1.354-0.909,1.744
		L71.61,184.12z"/>
	<path fill="#FFFFFF" d="M77.075,181.933v-3.216h-0.827v-0.857h0.827v-1.43h0.93v1.43h1.013v0.857h-1.013v2.999
		c0,0.369,0.166,0.639,0.486,0.639c0.217,0,0.413-0.097,0.506-0.205l0.238,0.736c-0.196,0.195-0.486,0.335-0.971,0.335
		C77.479,183.221,77.075,182.756,77.075,181.933z"/>
	<path fill="#FFFFFF" d="M79.74,180.471c0-1.506,0.972-2.74,2.522-2.74c1.561,0,2.522,1.234,2.522,2.74
		c0,1.516-0.961,2.75-2.522,2.75C80.712,183.221,79.74,181.986,79.74,180.471z M83.813,180.471c0-0.985-0.548-1.874-1.55-1.874
		c-0.992,0-1.551,0.889-1.551,1.874c0,0.997,0.559,1.884,1.551,1.884C83.265,182.354,83.813,181.468,83.813,180.471z"/>
	<path fill="#FFFFFF" d="M89.329,182.376c-0.382,0.434-1.013,0.845-1.778,0.845c-1.064,0-1.592-0.562-1.592-1.667v-3.694h0.93v3.368
		c0,0.868,0.414,1.127,1.055,1.127c0.579,0,1.105-0.347,1.385-0.736v-3.759h0.93v5.232h-0.93V182.376z"/>
	<path fill="#FFFFFF" d="M91.92,181.933v-3.216h-0.827v-0.857h0.827v-1.43h0.93v1.43h1.013v0.857H92.85v2.999
		c0,0.369,0.166,0.639,0.486,0.639c0.217,0,0.413-0.097,0.506-0.205l0.238,0.736c-0.196,0.195-0.486,0.335-0.971,0.335
		C92.323,183.221,91.92,182.756,91.92,181.933z"/>
	<path fill="#FFFFFF" d="M97.571,181.694c0.341,0.391,1.002,0.746,1.674,0.746c0.703,0,1.075-0.334,1.075-0.801
		c0-0.498-0.568-0.639-1.209-0.791c-0.848-0.206-1.84-0.443-1.84-1.569c0-0.835,0.682-1.549,1.901-1.549
		c0.858,0,1.478,0.324,1.902,0.746l-0.414,0.684c-0.289-0.369-0.848-0.639-1.478-0.639s-1.023,0.302-1.023,0.725
		c0,0.445,0.538,0.563,1.158,0.715c0.868,0.206,1.902,0.455,1.902,1.657c0,0.899-0.703,1.603-2.016,1.603
		c-0.837,0-1.571-0.271-2.078-0.812L97.571,181.694z"/>
	<path fill="#FFFFFF" d="M102.25,176.539c0-0.347,0.279-0.617,0.599-0.617c0.331,0,0.6,0.271,0.6,0.617
		c0,0.346-0.269,0.628-0.6,0.628C102.529,177.167,102.25,176.885,102.25,176.539z M102.395,177.859h0.93v5.232h-0.93V177.859z"/>
	<path fill="#FFFFFF" d="M110.869,179.604c0-0.606-0.258-1.007-0.868-1.007c-0.507,0-1.003,0.368-1.24,0.747v3.748h-0.931v-3.488
		c0-0.606-0.248-1.007-0.879-1.007c-0.485,0-0.971,0.379-1.22,0.758v3.737h-0.93v-5.232h0.93v0.737
		c0.207-0.326,0.869-0.866,1.613-0.866c0.755,0,1.199,0.411,1.354,0.975c0.29-0.488,0.951-0.975,1.685-0.975
		c0.919,0,1.416,0.529,1.416,1.581v3.78h-0.931V179.604z"/>
	<path fill="#FFFFFF" d="M113.272,185.085v-7.226h0.93v0.748c0.362-0.521,0.961-0.877,1.633-0.877c1.303,0,2.222,1.028,2.222,2.74
		c0,1.711-0.919,2.75-2.222,2.75c-0.651,0-1.23-0.313-1.633-0.888v2.752H113.272z M115.588,178.597
		c-0.568,0-1.137,0.347-1.385,0.769v2.221c0.249,0.411,0.817,0.769,1.385,0.769c0.93,0,1.499-0.79,1.499-1.884
		C117.086,179.387,116.518,178.597,115.588,178.597z"/>
	<path fill="#FFFFFF" d="M119.233,175.866h0.93v7.226h-0.93V175.866z"/>
	<path fill="#FFFFFF" d="M123.832,177.73c1.499,0,2.429,1.224,2.429,2.826v0.238h-3.949c0.073,0.889,0.693,1.624,1.695,1.624
		c0.527,0,1.106-0.216,1.478-0.617l0.434,0.639c-0.496,0.51-1.199,0.78-2.005,0.78c-1.489,0-2.584-1.104-2.584-2.75
		C121.33,178.954,122.374,177.73,123.832,177.73z M122.302,180.092h3.049c-0.021-0.694-0.465-1.56-1.52-1.56
		C122.829,178.532,122.354,179.376,122.302,180.092z"/>
	<path fill="#FFFFFF" d="M133.493,179.604c0-0.606-0.258-1.007-0.868-1.007c-0.507,0-1.003,0.368-1.24,0.747v3.748h-0.931v-3.488
		c0-0.606-0.248-1.007-0.879-1.007c-0.485,0-0.971,0.379-1.22,0.758v3.737h-0.93v-5.232h0.93v0.737
		c0.207-0.326,0.869-0.866,1.613-0.866c0.755,0,1.199,0.411,1.354,0.975c0.29-0.488,0.951-0.975,1.685-0.975
		c0.919,0,1.416,0.529,1.416,1.581v3.78h-0.93V179.604z"/>
	<path fill="#FFFFFF" d="M138.087,177.73c1.499,0,2.429,1.224,2.429,2.826v0.238h-3.949c0.073,0.889,0.693,1.624,1.695,1.624
		c0.527,0,1.106-0.216,1.478-0.617l0.434,0.639c-0.496,0.51-1.199,0.78-2.005,0.78c-1.488,0-2.584-1.104-2.584-2.75
		C135.586,178.954,136.63,177.73,138.087,177.73z M136.558,180.092h3.049c-0.021-0.694-0.465-1.56-1.52-1.56
		C137.085,178.532,136.609,179.376,136.558,180.092z"/>
	<path fill="#FFFFFF" d="M145.051,179.745c0-0.868-0.424-1.148-1.064-1.148c-0.579,0-1.106,0.368-1.375,0.758v3.737h-0.93v-5.232
		h0.93v0.737c0.331-0.423,0.992-0.866,1.768-0.866c1.054,0,1.603,0.585,1.603,1.688v3.673h-0.931V179.745z"/>
	<path fill="#FFFFFF" d="M147.642,181.933v-3.216h-0.827v-0.857h0.827v-1.43h0.93v1.43h1.013v0.857h-1.013v2.999
		c0,0.369,0.166,0.639,0.486,0.639c0.217,0,0.413-0.097,0.506-0.205l0.237,0.736c-0.196,0.195-0.485,0.335-0.971,0.335
		C148.045,183.221,147.642,182.756,147.642,181.933z"/>
</g>
</svg>
