<?xml version="1.0" encoding="utf-8"?>
<!-- Generator: Adobe Illustrator 19.1.0, SVG Export Plug-In . SVG Version: 6.00 Build 0)  -->
<svg version="1.1" id="Calque_1" xmlns="http://www.w3.org/2000/svg" xmlns:xlink="http://www.w3.org/1999/xlink" x="0px" y="0px"
	 viewBox="-250.6 334 91.2 70.3" style="enable-background:new -250.6 334 91.2 70.3;" xml:space="preserve">
<style type="text/css">
	.st0{fill:#355F95;}
</style>
<g>
	<path class="st0" d="M-215.5,364.3c-2.1-0.7-11.1-3.6-15.5-5.1c-2.3,5.8-14.2,37.3-10.1,42.7c4.5,6,20.8-1,25.5,0
		c4.7,1,4.2-2.3,4.2-2.3L-215.5,364.3z"/>
	<path class="st0" d="M-203.5,346.6c-1.2-1.7-8.3-1.3-8.3-1.3s-1.8-3.8-2.9-4.6c-1.3-0.8-5.1-0.7-5.1-0.7s0.4-5.6-1.3-6
		c-3.2-0.8-7.6,16.5-8.9,22.3c3.7,1.5,10.5,4.1,14.4,4.8l0-0.3c0,0,0.1-2.8,2-3.5c1.3-0.5,7.5-1.7,9.2-3.5
		C-203.3,352.5-202.4,348.1-203.5,346.6z"/>
</g>
<g>
	<path class="st0" d="M-197.8,374.4c2.8-0.8,7.1-2.4,10.7-4.7c-0.1-1.9,0.5-3.9,0.7-5.2c0.4-2-0.1-3.2-1.2-6
		c-0.2-0.5-1.1-6.3-2.8-6.4c-1.7-0.2-4,5.6-4,5.6s-5,0-5.6,2.2c-0.7,2.7-3.5,4.1-3.6,4.5c-0.4,1.5,0.3,5.6,2.7,6.2
		C-199.3,370.9-198.3,372.8-197.8,374.4z"/>
	<path class="st0" d="M-185.8,372.6c-0.2-0.2-0.4-0.5-0.6-0.7c-1.9,1-7.7,4.1-10.9,5c1.3,6.2,0.6,21.8,0.6,22.5
		c0.1,1-0.6,1.6-0.1,2.4c0.7,1.2,2.2,1.3,3.9,1c1.7-0.3,14.3,3.2,22.3-0.1C-161,396.8-177.2,375.9-185.8,372.6z"/>
</g>
<path class="st0" d="M-241.4,399.9c-6.7-5.2-6.8-17.1-8.5-13.5c-1.6,3.4,0,11.5,3,15.1c2.8,3.3,8.5,3.1,8.7,1.1"/>
<path class="st0" d="M-167.8,396c2.7,1.7,7.5-5.4,3.5-7.8c-2.5-1.5-2.8-2-3.5-3.1c-1.7-2.8,0.5-10.7,4.8-11.7
	c3.2-0.8,3.4,2.2,1.7,3.2c-4.2,2.5-4.5,6.7-1.7,8.7c1.6,1.1,2.7,2,3.4,4.5c1,3.6-2,9.4-7.7,11.2c0,0-3.2,0.7-3.8-0.6"/>
</svg>
