<?xml version="1.0" encoding="utf-8"?>
<!-- Generator: Adobe Illustrator 16.0.0, SVG Export Plug-In . SVG Version: 6.00 Build 0)  -->
<!DOCTYPE svg PUBLIC "-//W3C//DTD SVG 1.1//EN" "http://www.w3.org/Graphics/SVG/1.1/DTD/svg11.dtd">
<svg version="1.1" id="Layer_1" xmlns="http://www.w3.org/2000/svg" xmlns:xlink="http://www.w3.org/1999/xlink" x="0px" y="0px"
	 width="579.13px" height="579.344px" viewBox="18.715 32.264 579.13 579.344"
	 enable-background="new 18.715 32.264 579.13 579.344" xml:space="preserve">
<g display="none">
	<g display="inline">
		<polygon points="752.619,643.988 521.351,875.27 104.04,457.965 278.35,169.744 		"/>
		<polygon points="906.562,610.225 682.41,834.376 198.135,350.1 428.485,132.167 		"/>
		<text transform="matrix(1 0 0 1 124.0625 456.457)" font-family="'HelveticaNeue-Bold'" font-size="401.639">Fl</text>
		<g>
			<path d="M556.92,68.58v501.84H55.08V68.58H556.92 M581.4,44.1H30.6v550.8h550.8V44.1L581.4,44.1z"/>
		</g>
	</g>
	<g display="inline">
		<path d="M324.274,398.02c4.149,6.285,9.369,11.377,15.661,15.264c6.291,3.886,13.868,5.819,22.699,5.819
			c9.363,0,17.203-1.866,23.5-5.618c6.286-3.751,11.311-8.781,15.062-15.061c3.739-6.292,6.42-13.458,8.029-21.5
			c1.604-8.029,2.405-16.328,2.405-24.89c0-8.568-0.802-16.806-2.405-24.707c-1.615-7.895-4.363-14.859-8.237-20.881
			c-3.893-6.022-8.904-10.906-15.062-14.664c-6.175-3.746-13.929-5.625-23.305-5.625s-17.265,1.879-23.702,5.625
			c-6.42,3.751-11.592,8.703-15.447,14.859c-3.887,6.163-6.708,13.188-8.439,21.095c-1.744,7.901-2.619,16.139-2.619,24.688
			c0,8.029,0.936,16.065,2.814,24.101C317.102,384.568,320.119,391.734,324.274,398.02z M581.4,44.1v550.8H30.6V44.1H581.4z
			 M556.92,68.58H55.08v501.84h210.405L152.205,457.139l0.122-0.673h62.485V171.702l84.946,84.945
			c-8.262,5.325-15.361,11.812-21.298,19.462c-7.589,9.914-13.342,21.358-17.258,34.333c-3.855,13.036-5.814,26.438-5.814,40.392
			c0,14.443,1.958,28.396,5.814,41.732c3.917,13.396,9.669,25.282,17.258,35.563c7.65,10.337,17.381,18.482,29.131,24.541
			c11.824,5.998,25.46,9.003,41.005,9.003c13.641,0,25.881-2.442,36.72-7.411c10.838-4.957,19.645-13.097,26.315-24.297h0.802v26.5
			h54.218v-286.11l90.27,90.27V68.58z M466.662,465.242L466.662,465.242L466.662,465.242L466.662,465.242L466.662,465.242z"/>
	</g>
	<g display="inline">
		<path d="M254.023,239.573c3.072,5.625,4.621,12.993,4.621,22.093c0,9.106-1.542,16.463-4.621,22.087
			c-3.079,5.625-7.167,9.976-12.246,13.054c-5.092,3.078-10.979,5.159-17.675,6.224c-6.695,1.077-13.654,1.609-20.887,1.609h-49.003
			v-85.956h49.003c7.228,0,14.186,0.539,20.887,1.61c6.689,1.071,12.583,3.152,17.675,6.224
			C246.856,229.604,250.944,233.948,254.023,239.573z M581.4,44.1v550.8H30.6V44.1H581.4z M556.92,68.58H55.08v501.84h149.206
			L91.433,457.573l0.918-1.107h61.874V353.649h66.279c17.932,0,33.17-2.631,45.778-7.833c12.546-5.202,22.828-12.111,30.722-20.686
			c7.895-8.568,13.648-18.421,17.258-29.499c3.623-11.138,5.459-22.46,5.459-33.966c0-11.812-1.836-23.134-5.459-34.149
			c-3.237-9.854-8.311-18.666-14.994-26.622l0.428-0.551l65.056,65.056c-3.427,3.366-6.487,7.221-9.106,11.505
			c-5.214,8.568-7.834,19.584-7.834,32.926c0,9.119,1.897,16.83,5.631,23.133s8.69,11.506,14.878,15.667
			c6.119,4.174,13.151,7.472,21.046,10.043c7.896,2.509,16.035,4.767,24.297,6.609c20.38,4.278,36.23,8.562,47.613,12.858
			c11.377,4.29,17.075,10.71,17.075,19.272c0,5.079-1.225,9.309-3.617,12.662c-2.441,3.366-5.453,5.991-9.052,8.029
			c-3.604,2.02-7.649,3.477-12.056,4.406c-4.413,0.979-8.63,1.401-12.613,1.401c-5.631,0-11.084-0.618-16.279-2.02
			c-5.258-1.291-9.848-3.372-13.898-6.181c-3.973-2.821-7.271-6.433-9.799-10.839c-2.57-4.462-3.85-9.737-3.85-15.918h-54.223
			c0.551,13.947,3.678,25.521,9.425,34.762c5.808,9.247,13.158,16.652,22.087,22.282c9.003,5.631,19.223,9.67,30.729,12.062
			c11.566,2.442,23.317,3.611,35.374,3.611c11.812,0,23.366-1.107,34.761-3.434c11.378-2.265,21.481-6.181,30.295-11.812
			c8.873-5.63,16.034-13.042,21.48-22.283c5.502-9.247,8.269-20.691,8.269-34.388c0-9.608-1.903-17.699-5.631-24.309
			c-3.727-6.542-8.69-12.056-14.877-16.45c-6.182-4.413-13.152-7.962-21.041-10.649c-7.962-2.632-16.041-4.902-24.303-6.787
			c-8.078-1.903-15.967-3.617-23.752-5.208c-7.771-1.659-14.626-3.427-20.686-5.447c-5.991-2.02-10.894-4.59-14.626-7.834
			c-3.733-3.244-5.631-7.344-5.631-12.423c0-4.284,1.04-7.711,3.183-10.282c2.142-2.509,4.773-4.467,7.833-5.814
			c3.122-1.346,6.487-2.203,10.282-2.631c3.733-0.368,7.228-0.551,10.403-0.551c10.221,0,19.027,1.897,26.562,5.814
			c7.473,3.855,11.628,11.322,12.423,22.276h54.211c-1.102-12.852-4.339-23.5-9.841-31.946c-3.733-5.753-8.207-10.648-13.219-14.811
			l1.658-0.184l48.587,48.593V68.58z"/>
	</g>
	<g display="inline">
		<path d="M280.602,345.608h-74.309l37.351-105.227h0.801L280.602,345.608z M581.4,44.1v550.8H30.6V44.1H581.4z M556.92,68.58H55.08
			v501.84h161.445L104.04,457.935l0.918-1.469h62.363l22.521-63.881h107.223l21.665,63.881h65.478L277.542,171.09l0.795-1.346
			l126.25,126.194l0.129-0.123v160.65h57.038V248.814h-25.275l-32.203-32.191l0.428-0.367v0.428h57.039v-46.39l1.707-1.408
			l93.471,93.453V68.58z"/>
	</g>
	<g display="inline">
		<g>
			<path d="M55.08,68.58v501.84h161.445L104.04,457.935l0.918-1.469h62.363l22.521-63.881h107.223l21.665,63.881h65.478
				L277.542,171.09l0.795-1.346l126.25,126.194l0.129-0.123v160.65h57.038V248.814h-25.275l-32.203-32.191l0.428-0.367v0.428h57.039
				v-46.39l1.707-1.408l93.471,93.453V68.58H55.08z M280.602,345.632h-74.297l37.332-105.264h0.795L280.602,345.632z"/>
		</g>
	</g>
	<path display="inline" d="M597.894,392.64c0.006,0.275,0.043,0.551,0.043,0.826v10.208c0,29.706-24.082,53.776-53.783,53.776
		h-209.39v-57.1h66.433L306,292.909l-95.203,107.436h66.438v57.106H67.846c-29.707,0-53.782-24.076-53.782-53.776v-10.208
		c0-2.882,0.293-5.704,0.734-8.464c-0.441-3.751-0.734-7.54-0.734-11.402c0-53.348,43.25-96.598,96.598-96.598
		c4.725,0,9.327,0.453,13.874,1.107c14.187-58.312,73.238-96.562,136.201-96.562c56.873,0,106.035,32.901,129.555,80.699
		c10.918-3.764,22.595-5.906,34.798-5.906c41.041,0,76.629,23.152,94.554,57.081c43.257,0.049,78.3,35.129,78.3,78.385
		C597.937,392.089,597.899,392.353,597.894,392.64z"/>
</g>
<g display="none">
	<g display="inline">
		<g>
			<path d="M403.082,99.388v187.168H215.914V99.388H403.082z M122.327,598.511V36.995h374.342v499.123h-31.2v31.193h-31.188v31.2
				H122.327z M403.082,442.536h-31.2v31.188h31.2V442.536z M153.52,442.536h31.2v31.188h31.194v-31.188h31.194v-31.199h-31.194
				v-31.2H184.72v31.2h-31.2V442.536z M465.469,380.143h-31.188v31.2h31.188V380.143z M465.469,68.194H153.52v249.562h280.761v-31.2
				h31.188V68.194z"/>
		</g>
	</g>
</g>
<g display="none">
	<path display="inline" d="M545.5,215.295V181.58h-33.715v-33.715v-33.715H478.07V80.435h-33.716h-33.721V46.726h-33.715H343.21
		h-33.716h-33.715h-33.715h-33.715V80.44h-33.715h-33.715v33.715h-33.715v33.715v33.715H73.489v33.715H39.78v33.715v33.715v33.709
		v33.715v33.715v33.715v33.716h33.715h33.715v33.721v33.715v33.716h33.715v33.715h33.715h33.715h33.715h33.715h33.715h33.715h33.715
		h33.715h33.722h33.715v-33.715h33.715v-33.716v-33.715v-33.721h33.716h33.715v-33.716V383.87v-33.715V316.44v-33.715V249.01
		v-33.715H545.5L545.5,215.295z M376.925,80.44v33.715h33.715h33.722v33.715v33.715H410.64h-33.715v-33.715H343.21v-33.715V80.44
		H376.925z M208.349,350.155V316.44v-33.715V249.01h33.715v-33.715h33.715h33.715h33.716h33.715v33.715h33.715v33.715v33.715v33.715
		h-33.715v33.715H343.21h-33.716h-33.715h-33.715v-33.715H208.349z M174.64,114.149h33.715h33.715V80.435h33.715v33.715v33.715
		H242.07v33.715h-33.715H174.64v-33.715V114.149z M73.495,316.44v-33.715V249.01h33.715v-33.715h33.715h33.715v33.715v33.715v33.715
		h-33.715v33.715H107.21H73.495V316.44z M478.07,485.016v33.715h-33.716v33.715h-33.721h-33.715H343.21h-33.716h-33.715h-33.715
		h-33.715h-33.715V518.73h-33.715v-33.715v-33.722h33.715v-33.715h33.715h33.715v33.715v33.722h33.715v-33.722v-33.715h33.715
		h33.716v33.715v33.722h33.715v-33.722v-33.715h33.715h33.722v33.715h33.715v33.722H478.07z M545.5,282.725v33.715v33.715h-33.715
		H478.07V316.44h-33.716v-33.715V249.01v-33.715h33.716h33.715v33.715H545.5V282.725z"/>
</g>
<g display="none">
	<path display="inline" d="M545.5,215.295V181.58h-33.715v-33.715v-33.715H478.07V80.435h-33.716h-33.721V46.726h-33.715H343.21
		h-33.716h-33.715h-33.715h-33.715V80.44h-33.715h-33.715v33.715h-33.715v33.715v33.715H73.489v33.715H39.78v33.715v33.715v33.709
		v33.715v33.715v33.715v33.716h33.715h33.715v33.721v33.715v33.716h33.715v33.715h33.715h33.715h33.715h33.715h33.715h33.715h33.715
		h33.715h33.722h33.715v-33.715h33.715v-33.716v-33.715v-33.721h33.716h33.715v-33.716V383.87v-33.715V316.44v-33.715V249.01
		v-33.715H545.5L545.5,215.295z M478.07,485.016v33.715h-33.716v33.715h-33.721h-33.715H343.21h-33.716h-33.715h-33.715h-33.715
		h-33.715V518.73h-33.715v-33.715v-33.722h33.715v-33.715h33.715h33.715v33.715v33.722h33.715v-33.722v-33.715h33.715h33.716v33.715
		v33.722h33.715v-33.722v-33.715h33.715h33.722v33.715h33.715v33.722H478.07z M545.5,383.87v33.715h-33.715H478.07V383.87h-33.716
		h-33.721h-33.715v-33.715h33.715V316.44v-33.715V249.01h-33.715v-33.715H343.21h-33.716h-33.715h-33.715v33.715h-33.715v33.715
		v33.715v33.715h33.715v33.715h-33.715h-33.715h-33.715v33.715h-33.715H73.489V383.87v-33.715h33.715h33.715V316.44h33.715v-33.715
		V249.01v-33.715h-33.715V181.58v-33.715h33.715v33.715h33.715h33.715v-33.715h33.715v-33.715V80.435h33.715h33.716v33.715v33.715
		h33.715v33.715h33.715h33.722v-33.715h33.715v33.715v33.715h-33.715v33.715v33.715v33.715h33.715v33.715h33.715h33.715v33.715
		H545.5z"/>
</g>
<g display="none">
	<path display="inline" d="M135.791,81.199h-34.04V47.16h34.04h34.04h34.04h34.039h34.04H306h34.039h34.04h34.039v34.039h-34.039
		h-34.04H306h-34.04h-34.04h-34.039H169.83H135.791z M442.17,115.245v-34.04h-34.039v34.04H442.17z M544.301,183.33v34.04v34.039
		v34.04V319.5v34.04v34.04v34.039h-34.04v34.04h-34.039v-34.04v-34.039h34.039v-34.04V319.5v-34.04v-34.04v-34.039h-34.039V183.33
		h34.039H544.301v-34.04h-34.04h-34.039v-34.04H442.17v34.04v34.04v34.04v34.039v34.04V319.5v34.04v34.04v34.039v34.04h-34.039
		v34.039v34.039h34.039v-34.039h34.039h34.04h34.039V455.67h34.052v-34.039v-34.04v-34.04V319.5v-34.04v-34.04v-34.039V183.33
		H544.301z M374.085,557.801h-34.039H306h-34.04h-34.04h-34.039H169.83h-34.04v-34.04h-34.04v34.04v34.039h34.04h34.04h34.04h34.039
		h34.04H306h34.039h34.04h34.039v-34.039v-34.04h-34.039v34.04H374.085z M101.745,455.67h-34.04v34.039v34.04h34.04v-34.04V455.67z
		 M67.699,387.585v-34.04V319.5v-34.04v-34.04v-34.039V183.33v-34.04v-34.04H33.66v34.04v34.04v34.04v34.039v34.04V319.5v34.04
		v34.04v34.039v34.04h34.039v-34.04V387.585z M101.745,81.199h-34.04v34.04h34.04V81.199z M406.601,187.92v-34.04h-34.039v-34.039
		h-34.04H304.47h-34.04h-34.04h-34.04H168.3h-34.039v34.039h-34.04v34.04v34.04h34.04v34.04H168.3h34.04h34.04h34.04h34.04h34.039
		h34.04v-34.04h34.039v-34.04H406.601z"/>
</g>
<g display="none">
	<path display="inline" d="M260.657,70.11v45.343h-45.343h-45.343h-45.343V70.11h45.343h45.343H260.657z M260.657,115.453v45.343
		H306h45.337v-45.343H306H260.657z M487.379,115.453v45.343h45.337v-45.343H487.379z M532.716,160.796v45.343v45.343v45.343h45.349
		v-45.343v-45.343v-45.343H532.716z M487.379,342.168v45.343v45.343v45.343v45.344h-45.35h-45.337h-45.35H306h-45.343h-45.343
		v45.343h45.343H306h45.337h45.35h45.337h45.349h45.337v-45.343v-45.344v-45.343v-45.343v-45.343v-45.343h-45.337v45.343H487.379z
		 M79.285,160.796h45.343v-45.343H79.285V160.796z M33.936,206.139v45.343v45.343h45.343v-45.343v-45.343v-45.343H33.936V206.139z
		 M79.285,387.512v45.343h45.343v-45.343v-45.343v-45.343H79.285v45.343V387.512z M306,432.854h-45.343v45.343H306h45.337h45.35
		v-45.343h-45.35H306z M215.314,296.825v45.343h45.343v-45.343v-45.343h-45.343V296.825z M442.029,387.512h-45.337v45.343h45.337
		V387.512z M396.687,296.825v-45.343h-45.35v45.343v45.343h45.35V296.825z M442.029,70.11h-45.337h-45.35v45.343h45.35h45.337
		h45.349V70.11H442.029z"/>
</g>
<g display="none">
	<path display="inline" d="M172.266,523.596c-4.853-1.377-6.72,0.08-10.092-1.903c-6.34-3.696-8.954-13.121-5.673-21.432
		c1.885-4.774,10.673-8.752,11.983-12.62c2.271-6.671-1.787-21.132-1.891-30.899c-0.354-34.297,2.938-64.205,8.201-92.063
		c4.296-22.748,9.033-49.272,16.396-73.783c2.271-7.558,7.601-19.621,5.673-25.227c-1.817-5.288-9.896-4.669-9.461-10.722
		c0.318-4.388,7.424-6.377,9.461-10.092c3.054-5.563,3.929-14.639,6.31-22.069c6.83-21.328,13.947-46.163,20.808-64.952
		c-2.625-4.994,1.181-11.132,1.891-18.287c0.533-5.331-0.906-12.803-1.261-20.177c-0.336-7.1,0.949-14.872-0.63-19.547
		c-1.579-4.676-6.573-8.893-5.679-14.504c14.064-8.85,39.119-6.714,58.018-10.716c-0.208-21.451,10.171-43.837,28.373-44.774
		c4.755-0.251,8.966,2.889,13.243,3.152c4.854,0.3,8.715-2.05,12.62-1.891c20.343,0.826,24.994,19.712,25.851,42.877
		c19.211,2.233,41.701,1.181,54.235,10.092c0.129,4.455-4.719,7.833-5.686,11.983c-1.064,4.645,0.373,12.197,0,20.808
		c-0.354,8.452-1.72,17.98-0.624,23.966c0.496,2.729,2.926,5.165,3.151,7.57c0.331,3.415-1.548,5.398-1.261,8.195
		c0.668,6.512,4.994,14.051,7.564,21.438c5.618,16.15,9.676,28.176,14.505,43.507c2.527,8.042,4.168,17.815,6.934,22.069
		c2.693,4.143,9.37,4.474,9.462,9.461c0.122,6.046-7.277,6.377-8.825,10.716c-2.448,6.885,0,23.843,0,35.949
		c0,84.952,0.195,188.074,0,262.964c3.243,3.408,2.681,12.197,0,17.656c-5.71,11.604-27.094,17.001-43.507,20.802
		c-49.218,11.407-134.377,11.481-174.677-5.043c-9.131-3.733-20.912-10.961-21.445-21.444c-0.177-3.556,1.438-6.139,1.897-10.08
		c1.01-8.721-0.771-19.058,0-27.117C189.5,534.343,180.613,525.952,172.266,523.596z M299.011,72.705
		c9.719,1.071,23.697,1.016,33.415,0c1.438-14.492-1.891-29.04-10.716-35.312C308.001,43.023,299.574,53.923,299.011,72.705z
		 M196.219,297.205c-12.717,43.947-27.717,115.02-21.438,177.828c1.016,10.147-1.004,12.234,5.042,16.396
		c4.199,2.889,10.459,6.628,17.656,6.935C197.664,432.879,197.119,365.994,196.219,297.205z"/>
</g>
<g display="none">
	<path display="inline" d="M400.377,546.938c0.465,70.031-96.929,63.771-96.929,63.771c-86.727,0-91.831-54.266-91.831-54.266
		V316.201c0-97.399,14.376-112.234,14.376-112.234c35.245-86.727,30.612-135.889,30.612-135.889h-1.041l-3.825-3.133l0.349-7.828
		c1.396-0.869,6.261-3.825,6.261-3.825c-3.133,0.349-8.69-1.561-8.69-1.561V39.026c0.514-2.087,3.997-4.002,3.997-4.002
		c0.698-2.087,6.438-4.865,6.438-4.865c68.342-4.523,90.778,0,90.778,0c4.002,0.869,6.261,4.174,6.261,4.174
		c2.606,0.171,4.522,3.654,4.522,3.654l-0.526,13.219l-7.803,2.032l2.533,2.319l3.709,2.313v7.075l-4.639,3.133
		c-8.813,27.821,21.561,118.96,21.561,118.96c22.724,38.03,23.88,87.43,23.88,87.43v269.929"/>
</g>
<g display="none">
	<path display="inline" d="M338.778,46.946c7.094,6.31,4.027,22.767,6.702,33.501c45.38,0.979,54.614,32.228,66.995,70.349
		c3.299,10.153,6.952,21.151,10.062,31.83c3.391,11.616,2.907,24.896,6.701,35.178c4.247,11.5,17.602,19.75,20.092,36.849
		c2.338,15.937-4.884,45.221-5.012,65.325c-0.392,56.598-3.177,128.067,1.671,175.883c1.407,14.002,5.795,23.721,5.024,33.501
		c-5.178,65.104-92.045,72.283-179.23,66.995c-50.931-3.084-105.344-14.149-107.21-63.642c-0.483-12.754,4.707-24.835,5.031-35.178
		c2.301-72.565-3.366-159.022-8.372-222.787c-3.862-49.217,26.089-87.663,46.897-115.576c16.64-22.301,34.542-42.326,51.928-65.325
		c-6.689-11.444-4.468-28.556-1.671-43.556C274.042,38.274,318.821,39.363,338.778,46.946z M355.535,179.278
		c8.207,17.877,14.988,38.201,26.8,41.879c0.489-35.716-10.459-74.37-23.452-102.18
		C320.382,112.479,345.908,158.305,355.535,179.278z"/>
</g>
<g display="none">
	<path display="inline" d="M593.224,393.026l-5.643-158.937H22.54l-3.758,151.427l46.31,6.242l75.747,0.178
		c-1.224-2.724-1.909-5.741-1.909-8.917c0-12.099,9.804-21.897,21.897-21.897c12.087,0,21.897,9.804,21.897,21.897
		c0,3.213-0.709,6.261-1.952,9.015l31.494,0.073c-1.267-2.772-1.995-5.844-1.995-9.082c0-12.099,9.804-21.897,21.897-21.897
		c12.099,0,21.903,9.804,21.903,21.897c0,3.287-0.747,6.383-2.044,9.18l206.452,0.502c-1.444-2.919-2.282-6.206-2.282-9.682
		c0-12.099,9.816-21.897,21.909-21.897c12.094,0,21.897,9.804,21.897,21.897c0,3.513-0.851,6.836-2.332,9.78L593.224,393.026z
		 M32.234,276.33v-32.381h542.054v32.381v111.696h-57.724V276.33H32.234z M387.506,353.289h-57.735H123.752H66.029v-50.68h438.804
		v50.686H387.506V353.289z M178.496,383.02c0,9.755-7.913,17.675-17.668,17.675c-9.762,0-17.668-7.919-17.668-17.675
		c0-9.761,7.907-17.675,17.668-17.675C170.583,365.345,178.496,373.258,178.496,383.02z M250.522,383.02
		c0,10.128-8.219,18.354-18.36,18.354c-10.135,0-18.354-8.225-18.354-18.354c0-10.135,8.213-18.354,18.354-18.354
		C242.303,364.666,250.522,372.885,250.522,383.02z M496.454,383.02c0,10.128-8.219,18.354-18.354,18.354
		c-10.141,0-18.366-8.225-18.366-18.354c0-10.141,8.226-18.354,18.366-18.354C488.235,364.666,496.454,372.878,496.454,383.02z"/>
</g>
<g display="none">
	<path display="inline" d="M52.919,276.164c0-0.104,0.012-0.208,0.012-0.312c0,1.175,0.104,2.338,0.178,3.507h-0.049
		C53.018,278.288,52.919,277.235,52.919,276.164z M299.482,133.709c-133.569,0-242.254,61.384-246.361,137.976
		c4.106-66.671,112.792-131.959,246.361-131.959c133.568,0,242.254,65.288,246.36,131.959
		C541.736,195.093,433.051,133.709,299.482,133.709z M552.697,317.542c0.037-1.065,0.129-2.118,0.129-3.182
		c0-11.653-2.424-22.975-6.879-33.838c-0.007-0.392-0.037-0.777-0.05-1.156c0.043-1.077,0.135-2.13,0.135-3.188
		c0-0.11-0.012-0.214-0.012-0.318c-0.037,7.882-1.598,15.582-4.462,23.048c-1.566,14.578-1.988,32.344-7.919,42.938
		c-6.75,12.075-20.343,14.877-32.375,19.345c-13.194,4.908-19.73,8.568-26.995,24.027c-2.729,5.795-0.643,11.15-5.723,17.166
		c-13.623,16.169-24.388-3.935-41.622,3.195c-11.021,4.577-9.706,14.492-25.63,17.821c-7.877,1.64-17.118,0.202-22.987-2.283
		c-18.354-7.766-24.376-14.565-44.303-5.753c-6.255,2.761-19.112,17.896-23.929,18.098c-8.207,0.354-8.018-7.767-14.021-11.935
		c-7.858-5.446-53.875-1.652-56.61,10.526c-16.475-8.384-24.957-32.111-41.555-38.305c-18.091-6.732-29.101,7.044-43.776-7.521
		c-9.859-9.78-18.721-16.567-28.495-23.348c-14.015-6.964-26.365-14.755-36.72-23.225c-5.251,0.52-11.793,3.09-13.886,6.787
		c-10.306-20.9-23.219-42.724-21.952-67.063c-0.012,0.379-0.043,0.765-0.049,1.157c-4.455,10.863-6.879,22.185-6.879,33.837
		c0,1.065,0.104,2.117,0.135,3.182c-0.037,1.065-0.135,2.118-0.135,3.183c0,1.077,0.104,2.13,0.135,3.188
		c-0.037,1.053-0.135,2.105-0.135,3.183c0,1.064,0.104,2.117,0.135,3.182c-0.037,1.065-0.135,2.118-0.135,3.183
		c0,1.077,0.104,2.129,0.135,3.188c-0.037,1.053-0.135,2.105-0.135,3.182c0,1.065,0.104,2.118,0.135,3.183
		c-0.037,1.065-0.135,2.118-0.135,3.182c0,1.077,0.104,2.13,0.135,3.189c-0.037,1.052-0.135,2.105-0.135,3.182
		c0,1.065,0.104,2.118,0.135,3.183c-0.037,1.065-0.135,2.117-0.135,3.182c0,80.852,113.422,146.378,253.344,146.378
		s253.35-65.563,253.35-146.415c0-1.065-0.099-2.118-0.129-3.183c0.037-1.065,0.129-2.117,0.129-3.182
		c0-1.077-0.099-2.13-0.129-3.183c0.037-1.065,0.129-2.117,0.129-3.188c0-1.065-0.099-2.118-0.129-3.183
		c0.037-1.064,0.129-2.117,0.129-3.182c0-1.077-0.099-2.13-0.129-3.183c0.037-1.064,0.129-2.117,0.129-3.188
		c0-1.065-0.099-2.117-0.129-3.182c0.037-1.065,0.129-2.118,0.129-3.183c0-1.077-0.099-2.13-0.129-3.182
		c0.037-1.065,0.129-2.118,0.129-3.188C552.826,319.653,552.728,318.606,552.697,317.542z M545.837,271.685
		c0.079,1.389,0.177,2.772,0.184,4.167c0-0.092,0.012-0.177,0.012-0.269C546.039,274.279,545.922,272.982,545.837,271.685z
		 M52.938,275.852c0-1.401,0.11-2.785,0.184-4.167c-0.08,1.297-0.196,2.595-0.196,3.898
		C52.919,275.675,52.932,275.76,52.938,275.852z M201.697,304.414c22.98-13.219,58.22-21.701,97.786-21.701
		c39.571,0,74.805,8.482,97.791,21.701c11.316-6.505,19.584-14.174,23.99-22.54c2.308-4.382,3.617-8.941,3.617-13.653
		c0-31.971-56.145-57.889-125.393-57.889c-69.248,0-125.393,25.918-125.393,57.889c0,4.119,1.041,8.115,2.815,11.983
		C181.042,289.218,189.634,297.474,201.697,304.414z"/>
</g>
<g>
	<path d="M182.162,279.91c0.129,0,0.251,0,0.374,0c0,0.11,0,0.214,0,0.324C182.535,280.234,182.149,279.897,182.162,279.91z
		 M376.833,333.025c0-18.25,0-35.239,0-53.464c9.247,0,17.98,0,26.714,0c0-9.963,0-18.648,0-27.797c-18.947,0-37.094,0-55.228,0
		c0,18.134,0,36.273,0,55.208c-18.06,0-35.324,0-54.186,0c0-27.791,0-55.551,0-83.312c-9.248,0-18.488,0.006-27.736,0.012
		c0,9.088,0,18.189,0,28.482c-29.229,0-56.689,0-83.862,0c0,10.086,0,18.929,0,27.754c18.409,0.012,36.818,0.012,56.004,0.012
		c0,10.055,0,18.513,0,28.177c9.547,0,18.299,0,26.726,0c0,9.216,0,17.142,0,25.887c-9.357,0-17.797,0-26.426,0
		c0,37.65,0,74.45,0,111.782c9.535,0,18.341,0,27.148,0c0-18.415,0-36.836,0-56.451c10.355,0,19.07,0,28.972,0
		c0-9.945,0-18.654,0-28.14c8.893,0,16.542,0,25.379,0c0-9.529,0-18.256,0-26.738c9.958,0,18.642,0,28.115,0
		c0,18.647,0,36.414,0,54.651c9.505,0,18.195,0,28.115,0c0-9.357,0-18.09,0-27.638c10.007,0,18.801,0,27.59,0
		c0-9.064,0-18.158,0-28.434C394.141,333.025,385.426,333.025,376.833,333.025z M348.319,251.764c0-0.116,0-0.232,0-0.343
		c-0.109,0-0.214,0-0.324,0c0,0.117,0,0.233,0,0.343C348.105,251.764,348.21,251.764,348.319,251.764z M404.158,361.453
		c0,0.116,0,0.22,0,0.336l0.331-0.336C404.379,361.453,404.269,361.453,404.158,361.453z M598.23,32.282
		c0,63.844,0,126.892,0,190.564c-64.334,0-128.153,0-192.928,0c0-63.073,0-126.396,0-190.564
		C469.062,32.282,533.162,32.282,598.23,32.282z M569.98,57.699c-45.741,0-90.827,0-136.654,0c0,46.396,0,91.763,0,136.714
		c46.23,0,91.599,0,136.654,0C569.98,148.354,569.98,103.262,569.98,57.699z M18.929,418.105c63.746,0,126.506,0,190.167,0
		c0,64.346,0,128.446,0,193.343c-63.134,0-126.451,0-190.167,0C18.929,546.943,18.929,482.573,18.929,418.105z M44.137,583.217
		c46.573,0,91.941,0,137.131,0c0-46.016,0-91.103,0-136.549c-45.973,0-91.341,0-137.131,0
		C44.137,492.476,44.137,537.562,44.137,583.217z M209.457,222.865c-63.568,0-126.611,0-190.583,0c0-63.134,0-126.458,0-190.602
		c63.03,0,126.354,0,190.583,0C209.457,96.169,209.457,159.217,209.457,222.865z M181.25,57.723c-45.716,0-90.803,0-136.708,0
		c0,46.322,0,91.684,0,136.721c46.212,0,91.58,0,136.708,0C181.25,148.409,181.25,103.317,181.25,57.723z M265.541,471.502
		c0.128,0,0.251,0,0.374,0c0.012,0.013-0.374-0.33-0.374-0.33C265.541,471.282,265.541,471.393,265.541,471.502z M239.035,611.607
		c18.727,0,36.493,0,55.025,0c0-9.333,0-18.091,0-26.842c-0.104,0-0.202,0-0.3,0c0-0.116,0-0.232,0-0.35c-8.708,0-17.43,0-26.842,0
		c0-9.718,0-18.365,0-28.188c9.144,0,18.165,0,27.185,0c0-0.11,0-0.22,0-0.33c0.11,0,0.221,0,0.331,0c0-8.764,0-17.534,0-27.13
		c8.287,0,16.175,0,24.847,0c0,8.507,0,17.173,0,27.13c-8.299,0-16.573,0-24.847,0c0,0.11,0,0.22,0,0.33c-0.11,0-0.227,0-0.336,0
		c-0.11,9.389-0.22,18.782-0.343,28.188c0.098,0,0.202,0,0.3,0c0,0.117,0,0.233,0,0.35c17.693,0.012,35.398,0.012,54.357,0.012
		c0,9.297,0,18.042,0,26.543c19.364,0,37.442,0,55.307,0c0-18.722,0-36.513,0-55.576c-9.326,0-18.078,0-28.011,0
		c0-28.721,0-56.188,0-83.385c-9.725,0-18.164,0-27.858,0c0,9.339,0,18.091,0,26.542c-27.944,0-54.609,0-82.314,0
		c0-9.736,0-18.574,0-27.405c-9.027-0.019-18.03-0.019-26.506-0.019C239.035,519.673,239.035,565.769,239.035,611.607z
		 M155.968,252.278c-46.542,0-91.837,0-137.253,0c0,18.746,0,36.793,0,55.319c8.764,0,16.775,0,24.786,0c0-9.07,0-18.14,0-27.093
		c29.131,0,56.518,0,85.135,0c0,9.517,0,18.231,0,27.724c9.669,0,18.103,0,27.742,0c0,8.733,0,16.677,0,24.498
		c18.525,0,35.796,0,52.656,0c0-8.77,0-16.683,0-25.404c-9.382,0-17.815,0-26.854,0c0-9.56,0-18.33-0.012-27.093
		c-8.33-0.012-16.671-0.012-26.188-0.012C155.968,269.867,155.968,261.121,155.968,252.278z M182.517,280.228
		c0.012,0.006-0.373-0.331-0.361-0.312c0,0.104,0,0.208,0,0.312C182.278,280.228,182.4,280.228,182.517,280.228z M348.546,85.104
		c9.517,0,18.25,0,26.849,0c0-9.969,0-18.66,0-26.928c-18.923,0-36.977,0-55.814,0c0,18.74,0,36.518,0,55.08
		c-27.172,0-53.519,0-80.625,0c0,10.331,0,19.021,0,27.332c36.842,0,72.816,0,109.597,0
		C348.546,121.891,348.546,104.113,348.546,85.104z M542.085,390.321c-9.688,0-18.115,0-27.76,0c0,18.605,0,36.689,0,55.98
		c-9.951,0-18.685,0-27.069,0c0,9.198,0,17.117,0,25.851c9.357,0,17.791,0,27.442,0c0,9.547,0,18.286,0,27.479
		c10.024,0,18.831,0,27.632,0c0-9.082,0-18.183,0-28.458c10.446,0,19.161,0,27.699,0c0-18.269,0-35.264,0-53.507
		c-9.284,0-18.029,0-27.944,0C542.085,407.714,542.085,398.98,542.085,390.321z M486.552,527.274c0,0.128,0,0.251,0,0.379
		c-0.012,0.013,0.325-0.379,0.325-0.379C486.767,527.274,486.662,527.274,486.552,527.274z M457.893,499.367
		c0-9.56,0-18.299,0-26.714c-18.587,0-35.882,0-52.883,0c0,9.376,0,17.815,0,27.49c9.357,0,18.108,0,28.054,0
		c0,9.982,0,18.703,0,27.137c18.679,0,36.083,0,53.482,0c0.013-9.046,0.013-18.085,0.013-27.913
		C476.014,499.367,467.556,499.367,457.893,499.367z M486.527,334.065c10.031,0,18.746,0,28.244,0c0,9.676,0,18.109,0,26.885
		c9.541,0,18.231,0,28.164,0c0-9.394,0-18.127,0-28.036c9.951,0,18.666,0,27.051,0c0-9.272,0-17.313,0-25.343
		c-27.828,0.128-55.644,0.269-83.459,0.41C486.527,316.281,486.527,324.586,486.527,334.065z M569.986,307.242
		c0,0.11,0,0.22,0,0.331c0.129,0,0.245,0,0.373,0c0-0.104,0-0.214,0.006-0.318c-0.128,0-0.244,0-0.367,0L569.986,307.242z
		 M486.197,307.982c0.11,0,0.221,0,0.33,0c0-0.116,0-0.226,0-0.336L486.197,307.982z M71.94,361.453c-0.11,0-0.22,0-0.33,0
		c0,0.116,0,0.22,0,0.336L71.94,361.453z M18.831,333.925c0,9.89,0,18.556,0,27.528c18.17,0,35.478,0,52.779,0
		c0-9.051,0-18.115,0-28.311c10.336,0,19.039,0,27.399,0c0-9.125,0-17.014,0-25.221c-18.99,0-37.081,0-55.172,0
		c0,8.287,0,16.573,0,26.004C34.4,333.925,26.481,333.925,18.831,333.925z M43.837,307.927c0-0.11,0-0.221,0-0.331
		c-0.11,0-0.226,0-0.336,0c0,0.11,0,0.22,0,0.331C43.611,307.927,43.728,307.927,43.837,307.927z M486.197,307.982l0.33-0.33
		c-0.109,0-0.22,0-0.33,0C486.197,307.762,486.197,307.872,486.197,307.982z M457.745,279.892c0-10.41,0-19.125,0-27.754
		c-8.88,0-16.512,0-24.682,0c0,27.154,0,53.746,0,80.705c8.513,0,16.42,0,25.551,0c0-8.611,0-16.549,0-25.196
		c10,0,18.801,0,27.589,0c-0.024-9.253-0.043-18.5-0.067-27.754C477.066,279.892,467.984,279.892,457.745,279.892z M71.94,361.458
		c0-0.006-0.33,0.331-0.33,0.331c0.11,0,0.22,0,0.33,0C71.94,361.685,71.94,361.569,71.94,361.458z M155.228,388.986
		c0-9.479,0-18.164,0-27.191c-28.354,0-55.827,0-83.287,0c0,9.07,0,18.146,0,27.191
		C100.674,388.986,128.049,388.986,155.228,388.986z M541.883,527.378c0,0.11,0,0.221,0,0.331c0.129,0,0.251,0,0.374,0
		c0-0.11,0-0.209,0.006-0.318c-0.129,0-0.245,0-0.367,0L541.883,527.378z M486.552,527.653c0.104,0,0.209,0,0.312,0
		c0-0.122,0-0.238,0-0.361C486.877,527.274,486.54,527.666,486.552,527.653z M486.853,556.148c9.29,0,18.017,0,27.913,0
		c0,9.92,0,18.653,0,27.791c9.994,0,18.788,0,27.57,0c-0.153-18.746-0.3-37.491-0.446-56.23c-18.349-0.031-36.678-0.05-55.02-0.056
		C486.853,536.754,486.853,545.86,486.853,556.148z M485.628,417.249c0-18.66,0-36.696,0-54.774c-9.412,0-18.109,0-28.029,0
		c0,9.535,0,18.238,0,27.932c-9.271,0-17.319,0-25.355,0c-0.012,9.027-0.012,18.029-0.012,26.843
		C451.307,417.249,468.29,417.249,485.628,417.249z M431.913,390.406c0.11,0,0.22,0,0.33,0c0-0.128,0-0.251,0-0.379
		c-0.11,0-0.208,0-0.318,0c0,0.123,0,0.245,0,0.367L431.913,390.406z M348.319,223.3c9.058,0,18.115,0,27.161,0
		c0-18.525,0-35.747,0-52.883c-18.801,0-36.824,0-55.245,0c0,8.782,0,16.793,0,24.792c8.801,0,17.619,0,28.084,0
		C348.319,205.117,348.319,214.211,348.319,223.3z M320.235,195.215c-0.116,0-0.232,0-0.349,0c0,0.11,0,0.214,0,0.325
		c0.116,0,0.232,0,0.349,0C320.235,195.429,320.235,195.319,320.235,195.215z M293.295,57.974c-18.421,0-36.463,0-54.315,0
		c0,9.474,0,18.164,0,27.081c18.366,0,35.845,0,54.315,0C293.295,76.04,293.295,67.093,293.295,57.974z M348.95,445.089
		c18.85,0,36.897,0,54.835,0c0-9.303,0-17.724,0-26.555c-18.629,0-36.671,0-54.835,0C348.95,427.903,348.95,436.594,348.95,445.089z
		 M238.906,170.393c0,18.029,0,35.27,0,52.95c9.584,0,18.373,0,27.155,0c0-17.614,0-35.233,0-52.95
		C256.146,170.393,247.475,170.393,238.906,170.393z M266.061,223.343c0,0.11,0,0.22,0,0.33c0.11,0,0.22,0,0.331,0
		c0-0.11,0-0.22,0-0.33C266.281,223.343,266.171,223.343,266.061,223.343z M433.192,611.81c8.359,0,15.997,0,24.101,0
		c0-19.346,0-37.394,0-55.142c-8.574,0-16.225,0-24.101,0C433.192,575.365,433.192,593.406,433.192,611.81z M542.66,584.275
		c0-0.116,0-0.22,0-0.336c-0.11,0-0.22,0-0.33,0c0,0.116,0,0.22,0,0.336C542.44,584.275,542.55,584.275,542.66,584.275z
		 M569.797,611.461c0-9.456,0-18.121,0-27.186c-9.597,0-18.373,0-27.137,0c0,9.052,0,18.104,0,27.186
		C552.611,611.461,561.277,611.461,569.797,611.461z M542.654,499.96c0-0.109,0.006-0.22,0.006-0.33c-0.11,0-0.22,0-0.33,0
		c0,0.11,0,0.221,0,0.33C542.44,499.96,542.544,499.96,542.654,499.96z M569.735,527.402c0-9.89,0-18.519,0-27.436
		c-9.614,0-18.354,0-27.081,0c-0.129,9.137-0.275,18.274-0.392,27.424C551.571,527.402,560.867,527.402,569.735,527.402z
		 M320.211,251.421c9.596,0,18.696,0,27.784,0c0-9.259,0-18.519,0-27.778c-9.266,0-18.519,0-27.784,0
		C320.211,232.443,320.211,241.262,320.211,251.421z M347.995,223.643c0.11,0,0.215,0,0.324,0c0-0.116,0-0.227,0-0.343
		c-0.109,0-0.214,0-0.324,0C347.995,223.416,347.995,223.526,347.995,223.643z M571.283,389.005c9.346,0,18.03,0,26.604,0
		c0-9.461,0-18.146,0-26.812c-9.272,0-17.681,0-26.604,0C571.283,371.991,571.283,380.412,571.283,389.005z M431.925,390.027
		c0.013-9.321,0.013-18.635,0.013-28.238c-9.97,0-18.722,0-27.448,0c0,9.052,0,18.109,0,28.256
		C414.44,390.045,423.186,390.045,431.925,390.027z M404.158,361.789c0.11,0,0.221,0,0.331,0c0-0.11,0-0.22,0-0.331
		C404.489,361.453,404.158,361.789,404.158,361.789z M182.339,389.194c9.712,0,18.121,0,26.977,0c0-9.259,0-17.943,0-26.769
		c-9.37,0-18.054,0-26.977,0C182.339,371.605,182.339,380.015,182.339,389.194z M486.467,279.561c-0.116,0-0.221,0-0.337,0
		c0,0.11,0,0.226,0,0.336c0.116,0,0.221,0,0.337,0C486.467,279.781,486.467,279.671,486.467,279.561z M513.658,252.431
		c-9.462,0-18.128,0-27.186,0c0,9.597,0,18.36,0,27.13c9.052,0,18.103,0,27.186,0C513.658,269.61,513.658,260.944,513.658,252.431z
		 M543.358,252.352c0,9.449,0,18.103,0,27.142c9.565,0,18.323,0,27.074,0c0-9.04,0-18.072,0-27.142
		C560.549,252.352,551.89,252.352,543.358,252.352z M570.433,279.494c0,0.11,0,0.22,0,0.331c0.11,0,0.215,0,0.325,0
		c0-0.11,0.006-0.221,0.006-0.331C570.653,279.494,570.543,279.494,570.433,279.494z M597.845,279.824c-9.615,0-18.36,0-27.088,0
		c-0.128,9.137-0.269,18.274-0.392,27.423c9.309,0.012,18.611,0.012,27.479,0.012C597.845,297.376,597.845,288.741,597.845,279.824z
		 M293.387,471.196c0-9.101,0-16.958,0-25.098c-9.615,0-18.354,0-27.075,0c-0.135,8.359-0.27,16.714-0.392,25.086
		C275.235,471.196,284.525,471.196,293.387,471.196z M266.312,446.104c0-0.116,0-0.221,0.006-0.337c-0.11,0-0.22,0-0.331,0
		c0,0.116,0,0.221,0,0.337C266.091,446.104,266.208,446.104,266.312,446.104z M265.914,471.502c0-0.109,0-0.208,0.006-0.317
		c-0.122,0-0.245,0-0.367,0C265.541,471.172,265.926,471.515,265.914,471.502z M319.893,195.54c-8.312,0-16.628,0-25.441,0
		c0,10.159,0,18.978,0,27.785c8.476,0,16.964,0,25.441,0C319.893,214.059,319.893,204.799,319.893,195.54z M294.452,223.318
		c-0.11,0-0.214,0-0.318,0c0,0.116,0,0.232,0,0.342c0.11,0,0.214,0,0.318,0C294.452,223.551,294.452,223.435,294.452,223.318z
		 M319.893,223.318c0,0.11,0,0.214,0,0.324c0.11,0,0.214,0,0.324,0c0-0.11,0-0.214,0-0.324
		C320.106,223.318,319.996,223.318,319.893,223.318z M542.018,85.93c-28.477,0-55.618,0-83.072,0c0,28.03,0,55.441,0,82.865
		c28.14,0,55.551,0,83.072,0C542.018,140.833,542.018,113.697,542.018,85.93z M72.461,555.536c27.778,0,54.915,0,82.81,0
		c0-28.434,0-55.845,0-82.858c-28.28,0-55.698,0-82.81,0C72.461,500.774,72.461,527.917,72.461,555.536z M155.289,86.242
		c-28.25,0-55.667,0-82.859,0c0,28.073,0,55.208,0,82.853c27.754,0,54.89,0,82.859,0C155.289,140.747,155.289,113.33,155.289,86.242
		z"/>
</g>
</svg>
