<?xml version="1.0" encoding="utf-8"?>
<!-- Generator: Adobe Illustrator 16.0.0, SVG Export Plug-In . SVG Version: 6.00 Build 0)  -->
<!DOCTYPE svg PUBLIC "-//W3C//DTD SVG 1.1//EN" "http://www.w3.org/Graphics/SVG/1.1/DTD/svg11.dtd">
<svg version="1.1" id="Layer_1" xmlns="http://www.w3.org/2000/svg" xmlns:xlink="http://www.w3.org/1999/xlink" x="0px" y="0px"
	 width="67.879px" height="85.571px" viewBox="0 0 67.879 85.571" enable-background="new 0 0 67.879 85.571" xml:space="preserve">
<g>
	<polygon fill="#FDFDFE" points="66.124,12.547 6.77,12.547 2.046,12.547 2.046,9.285 66.124,9.285 	"/>
	<g>
		<path fill="#FFFEFE" d="M66.124,10.672c-21.359,0-42.718,0-64.077,0c0.625,0.625,1.25,1.25,1.875,1.875c0-1.087,0-2.174,0-3.262
			c-0.625,0.625-1.25,1.25-1.875,1.875c21.359,0,42.718,0,64.077,0c-0.625-0.625-1.25-1.25-1.875-1.875c0,1.087,0,2.174,0,3.262
			c0,2.418,3.75,2.418,3.75,0c0-1.087,0-2.174,0-3.262c0-1.022-0.853-1.875-1.875-1.875c-21.359,0-42.718,0-64.077,0
			c-1.022,0-1.875,0.853-1.875,1.875c0,1.087,0,2.174,0,3.262c0,1.022,0.853,1.875,1.875,1.875c21.359,0,42.718,0,64.077,0
			C68.542,14.422,68.542,10.672,66.124,10.672z"/>
	</g>
</g>
<g>
	<path fill="#FFFFFF" d="M6.544,17.44l9.476,66.374h36.01l9.595-66.374H6.544z M21.228,79.644L16.05,21.531l5.181-0.462
		l5.177,58.113L21.228,79.644z M36.763,79.423h-5.9V21.079h5.9V79.423z M46.378,79.64l-5.143-0.454l5.122-58.118l5.141,0.452
		L46.378,79.64z"/>
	<g>
		<path fill="#FFFFFF" d="M4.736,17.939c3.159,22.125,6.317,44.25,9.476,66.374c0.116,0.812,1.055,1.377,1.808,1.377
			c12.003,0,24.007,0,36.01,0c0.755,0,1.69-0.565,1.808-1.377c3.198-22.124,6.396-44.249,9.595-66.374
			c0.172-1.184-0.474-2.374-1.808-2.374c-18.36,0-36.721,0-55.081,0c-2.418,0-2.418,3.75,0,3.75c18.36,0,36.721,0,55.081,0
			c-0.603-0.791-1.205-1.583-1.808-2.374c-3.198,22.125-6.396,44.25-9.595,66.375c0.603-0.459,1.205-0.918,1.808-1.377
			c-12.003,0-24.007,0-36.01,0c0.603,0.459,1.206,0.918,1.808,1.377c-3.159-22.125-6.317-44.25-9.476-66.375
			C8.012,14.556,4.399,15.575,4.736,17.939z"/>
		<path fill="#FFFFFF" d="M23.103,79.644c-1.726-19.371-3.452-38.742-5.178-58.113c-0.625,0.625-1.25,1.25-1.875,1.875
			c1.727-0.154,3.454-0.308,5.181-0.462c-0.625-0.625-1.25-1.25-1.875-1.875c1.726,19.371,3.452,38.742,5.177,58.113
			c0.625-0.625,1.25-1.25,1.875-1.875c-1.727,0.154-3.454,0.308-5.18,0.462c-2.389,0.213-2.41,3.965,0,3.75
			c1.727-0.154,3.454-0.308,5.18-0.462c0.945-0.084,1.972-0.792,1.875-1.875c-1.726-19.371-3.452-38.742-5.177-58.113
			c-0.084-0.945-0.792-1.972-1.875-1.875c-1.727,0.154-3.454,0.308-5.181,0.462c-0.945,0.084-1.972,0.792-1.875,1.875
			c1.726,19.371,3.452,38.742,5.178,58.113C19.565,82.032,23.317,82.053,23.103,79.644z"/>
		<path fill="#FFFFFF" d="M36.763,77.548c-1.967,0-3.934,0-5.9,0c0.625,0.625,1.25,1.25,1.875,1.875c0-19.448,0-38.896,0-58.344
			c-0.625,0.625-1.25,1.25-1.875,1.875c1.967,0,3.934,0,5.9,0c-0.625-0.625-1.25-1.25-1.875-1.875c0,19.448,0,38.896,0,58.344
			c0,2.418,3.75,2.418,3.75,0c0-19.448,0-38.896,0-58.344c0-1.022-0.853-1.875-1.875-1.875c-1.967,0-3.934,0-5.9,0
			c-1.022,0-1.875,0.853-1.875,1.875c0,19.448,0,38.896,0,58.344c0,1.022,0.853,1.875,1.875,1.875c1.967,0,3.934,0,5.9,0
			C39.181,81.298,39.181,77.548,36.763,77.548z"/>
		<path fill="#FFFFFF" d="M46.378,77.765c-1.714-0.151-3.429-0.303-5.143-0.454c0.625,0.625,1.25,1.25,1.875,1.875
			c1.707-19.373,3.415-38.745,5.122-58.118c-0.625,0.625-1.25,1.25-1.875,1.875c1.714,0.151,3.427,0.301,5.141,0.452
			c-0.625-0.625-1.25-1.25-1.875-1.875c-1.707,19.373-3.413,38.747-5.12,58.12c-0.212,2.41,3.539,2.39,3.75,0
			c1.707-19.373,3.413-38.747,5.12-58.12c0.096-1.083-0.93-1.792-1.875-1.875c-1.714-0.151-3.427-0.301-5.141-0.452
			c-1.083-0.095-1.792,0.929-1.875,1.875c-1.707,19.373-3.415,38.745-5.122,58.118c-0.096,1.083,0.93,1.791,1.875,1.875
			c1.714,0.151,3.429,0.303,5.143,0.454C48.789,81.728,48.768,77.976,46.378,77.765z"/>
	</g>
</g>
<g>
	<rect x="25.177" y="2.007" fill="#FDFDFE" width="17.816" height="5.27"/>
	<g>
		<path fill="#FFFEFE" d="M42.993,5.402c-5.938,0-11.877,0-17.816,0c0.625,0.625,1.25,1.25,1.875,1.875c0-1.757,0-3.513,0-5.27
			c-0.625,0.625-1.25,1.25-1.875,1.875c5.938,0,11.877,0,17.816,0c-0.625-0.625-1.25-1.25-1.875-1.875c0,1.757,0,3.513,0,5.27
			c0,2.418,3.75,2.418,3.75,0c0-1.757,0-3.513,0-5.27c0-1.022-0.853-1.875-1.875-1.875c-5.938,0-11.877,0-17.816,0
			c-1.022,0-1.875,0.853-1.875,1.875c0,1.757,0,3.513,0,5.27c0,1.022,0.853,1.875,1.875,1.875c5.938,0,11.877,0,17.816,0
			C45.411,9.152,45.411,5.402,42.993,5.402z"/>
	</g>
</g>
</svg>
