<?xml version="1.0" encoding="utf-8"?>
<!-- Generator: Adobe Illustrator 16.0.0, SVG Export Plug-In . SVG Version: 6.00 Build 0)  -->
<!DOCTYPE svg PUBLIC "-//W3C//DTD SVG 1.1//EN" "http://www.w3.org/Graphics/SVG/1.1/DTD/svg11.dtd">
<svg version="1.1" id="Layer_1" xmlns="http://www.w3.org/2000/svg" xmlns:xlink="http://www.w3.org/1999/xlink" x="0px" y="0px"
	 width="612px" height="537.336px" viewBox="0 44.712 612 537.336" enable-background="new 0 44.712 612 537.336"
	 xml:space="preserve">
<g>
	<path fill="#386EC3" d="M585.684,299.304c-13.464,1.224-23.256,13.464-22.644,26.316c0,0.612,3.672,59.976-32.437,98.532
		c-23.867,25.703-60.588,42.228-109.548,42.228H134.64v-61.2c0-4.896-6.732-9.18-11.016-11.016s-12.24-1.224-15.912,1.224
		L4.896,478.62C1.836,481.068,0,484.128,0,487.8s1.836,7.344,4.284,9.181L106.488,579.6c2.448,1.836,4.896,2.448,7.344,2.448
		c1.836,0,7.344-0.612,9.18-1.224c4.284-1.836,11.016-6.12,11.016-11.017V509.22h287.028c63.036,0,111.996-18.972,145.656-55.08
		C617.508,399.672,612,325.008,612,321.948C610.776,308.484,599.148,298.692,585.684,299.304z"/>
	<path fill="#386EC3" d="M26.316,328.68c13.464-1.224,23.256-13.464,22.644-26.316c0-0.612-3.672-59.976,32.436-99.145
		c23.868-25.704,60.588-42.84,109.548-42.84H477.36v62.424c0,4.896,6.731,9.18,11.016,11.016c4.284,1.836,12.852,1.224,15.912-1.224
		l102.815-82.62c3.061-2.448,4.896-5.508,4.896-9.18s-1.836-7.344-4.284-9.18L505.512,47.16c-2.447-1.836-4.896-2.448-7.344-2.448
		c-1.836,0-7.956,0.612-9.18,1.224c-4.284,1.836-11.017,6.12-11.017,11.016v60.588H190.944c-63.036,0-111.996,19.584-145.656,55.692
		C-4.896,227.7,0,302.976,0.612,306.036C1.224,319.5,13.464,329.292,26.316,328.68z"/>
</g>
</svg>
