<?xml version="1.0" encoding="UTF-8" standalone="no"?>
<svg width="166px" height="103px" viewBox="0 0 166 103" version="1.1" xmlns="http://www.w3.org/2000/svg" xmlns:xlink="http://www.w3.org/1999/xlink" xmlns:sketch="http://www.bohemiancoding.com/sketch/ns">
    <!-- Generator: Sketch 3.2.2 (9983) - http://www.bohemiancoding.com/sketch -->
    <title>credit-card-icon</title>
    <desc>Created with Sketch.</desc>
    <defs></defs>
    <g id="Page-1" stroke="none" stroke-width="1" fill="none" fill-rule="evenodd" sketch:type="MSPage">
        <g id="Ticket-6" sketch:type="MSArtboardGroup" transform="translate(-1197.000000, -736.000000)" fill="#355F95">
            <g id="ticket-sélectionné" sketch:type="MSLayerGroup" transform="translate(165.000000, 285.000000)">
                <g id="icons" transform="translate(520.000000, 451.000000)" sketch:type="MSShapeGroup">
                    <path d="M665.909755,0 L524.087154,0 C517.411822,0 512,5.42547451 512,12.1176471 L512,90.8823529 C512,97.5745255 517.411822,103 524.087154,103 L665.909755,103 C672.585087,103 677.996909,97.5745255 677.996909,90.8823529 L677.996909,12.1176471 C677.996909,5.42547451 672.585087,0 665.909755,0 L665.909755,0 Z M530.533635,35.612149 C530.533635,32.7119922 532.878543,30.3611686 535.771402,30.3611686 L538.642101,30.3611686 L538.642101,37.9306588 L530.533635,37.9306588 L530.533635,35.612149 L530.533635,35.612149 Z M530.533635,40.7581098 L538.642101,40.7581098 L538.642101,47.2713451 L530.533635,47.2713451 L530.533635,40.7581098 L530.533635,40.7581098 Z M530.533635,50.0987961 L538.642101,50.0987961 L538.642101,57.2898118 L535.771402,57.2898118 C532.878543,57.2898118 530.533635,54.9389882 530.533635,52.0388314 L530.533635,50.0987961 L530.533635,50.0987961 Z M554.573775,85.0254902 L530.533635,85.0254902 L530.533635,77.3509804 L554.573775,77.3509804 L554.573775,85.0254902 L554.573775,85.0254902 Z M560.214447,52.0388314 C560.214447,54.9389882 557.869539,57.2898118 554.97668,57.2898118 L552.093088,57.2898118 L552.093088,50.0987961 L560.214447,50.0987961 L560.214447,52.0388314 L560.214447,52.0388314 Z M560.214447,47.2713451 L552.093088,47.2713451 L552.093088,40.7581098 L560.214447,40.7581098 L560.214447,47.2713451 L560.214447,47.2713451 Z M560.214447,37.9306588 L549.272753,37.9306588 L549.272753,57.2898118 L541.462437,57.2898118 L541.462437,30.3611686 L554.97668,30.3611686 C557.869539,30.3611686 560.214447,32.7119922 560.214447,35.612149 L560.214447,37.9306588 L560.214447,37.9306588 Z M590.029426,85.0254902 L565.989286,85.0254902 L565.989286,77.3509804 L590.029426,77.3509804 L590.029426,85.0254902 L590.029426,85.0254902 Z M625.284026,85.0254902 L601.243484,85.0254902 L601.243484,77.3509804 L625.284026,77.3509804 L625.284026,85.0254902 L625.284026,85.0254902 Z M626.072512,58.0976549 C618.210221,58.0976549 611.836665,51.7076157 611.836665,43.8254902 C611.836665,35.9433647 618.210221,29.5537294 626.072512,29.5537294 C628.832412,29.5537294 631.406975,30.3433961 633.588707,31.7062275 C630.570142,34.8539882 628.708317,39.124651 628.708317,43.8254902 C628.708317,48.5263294 630.570142,52.7969922 633.588707,55.9447529 C631.406975,57.3079882 628.832412,58.0976549 626.072512,58.0976549 L626.072512,58.0976549 Z M631.931558,43.8254902 C631.931558,35.9433647 638.304711,29.5537294 646.167404,29.5537294 C654.030098,29.5537294 660.403654,35.9437686 660.403654,43.8254902 C660.403654,51.7076157 654.030098,58.0976549 646.167404,58.0976549 C638.304711,58.0976549 631.931558,51.7076157 631.931558,43.8254902 L631.931558,43.8254902 Z M660.538224,85.0254902 L636.497682,85.0254902 L636.497682,77.3509804 L660.538224,77.3509804 L660.538224,85.0254902 L660.538224,85.0254902 Z" id="credit-card-icon"></path>
                </g>
            </g>
        </g>
    </g>
</svg>