<?xml version="1.0" encoding="utf-8"?>
<!-- Generator: Adobe Illustrator 18.0.0, SVG Export Plug-In . SVG Version: 6.00 Build 0)  -->
<!DOCTYPE svg PUBLIC "-//W3C//DTD SVG 1.1//EN" "http://www.w3.org/Graphics/SVG/1.1/DTD/svg11.dtd">
<svg version="1.1" id="Calque_1" xmlns="http://www.w3.org/2000/svg" xmlns:xlink="http://www.w3.org/1999/xlink" x="0px" y="0px"
	 viewBox="31.4 167.1 577.2 145.8" enable-background="new 31.4 167.1 577.2 145.8" xml:space="preserve">
<g>
	<g>
		<g>
			<path fill="#FFFFFF" d="M58.8,210.6v54.8H42.7v-54.8h-6.9v-15h6.9v-25.4h16.1v25.4h12.7v15H58.8z"/>
			<path fill="#FFFFFF" d="M80.7,195.6h16.1v6.3c2.9-2.9,5.8-5.2,8.1-6.3c2.3-1.2,5.2-1.7,8.1-1.7c4,0,8.6,1.2,13.3,4l-7.5,15
				c-2.9-2.3-6.3-3.5-9.2-3.5c-8.6,0-13.3,6.9-13.3,20.2v36.3H80.7V195.6z"/>
			<path fill="#FFFFFF" d="M194.3,234.2h-50.2c0.6,5.8,2.3,10.4,5.8,13.8c3.5,3.5,7.5,5.2,12.7,5.2c4,0,7.5-1.2,9.8-2.9
				c2.3-1.7,5.8-5.2,8.6-10.4l13.8,7.5c-2.3,3.5-4.6,6.9-6.9,9.2c-2.3,2.3-4.6,4.6-7.5,6.3c-2.9,1.7-5.8,2.9-8.6,3.5
				c-2.9,0.6-6.3,1.2-10.4,1.2c-10.4,0-19-3.5-25.4-9.8c-6.3-6.9-9.2-15.6-9.2-27.1c0-11,2.9-20.2,9.2-27.1
				c6.3-6.9,14.4-10.4,24.8-10.4c10.4,0,18.5,3.5,24.2,9.8s8.6,15.6,8.6,27.1L194.3,234.2z M177.6,221c-2.3-8.6-7.5-12.7-16.1-12.7
				c-1.7,0-4,0.6-5.8,1.2c-1.7,0.6-3.5,1.7-4.6,2.3c-1.2,1.2-2.9,2.3-3.5,4c-1.2,1.7-1.7,3.5-2.3,5.2C145.3,221,177.6,221,177.6,221
				z"/>
			<path fill="#FFFFFF" d="M258.9,195.6H275v69.8h-16.1v-7.5c-6.9,6.3-13.8,9.2-21.3,9.2c-9.8,0-17.9-3.5-24.2-10.4
				c-6.3-6.9-9.2-16.1-9.2-26.5s2.9-19,9.2-25.9c6.3-6.9,13.8-10.4,23.6-10.4c8.1,0,15.6,3.5,21.9,9.8V195.6L258.9,195.6z
				 M220.8,230.2c0,6.9,1.7,12.1,5.2,16.1c3.5,4,8.1,6.3,13.8,6.3s11-2.3,14.4-6.3s5.8-9.8,5.8-16.1c0-6.3-1.7-12.1-5.8-16.1
				c-3.5-4-8.6-6.3-14.4-6.3s-10.4,2.3-13.8,6.3C222.6,218.7,220.8,223.9,220.8,230.2z"/>
			<path fill="#FFFFFF" d="M332.1,207.7l-13.3,6.9c-2.3-4-4.6-6.3-8.1-6.3c-1.7,0-2.9,0.6-4,1.7c-1.2,1.2-1.7,2.3-1.7,4
				c0,2.9,2.9,5.2,9.2,8.1c8.6,3.5,14.4,6.9,17.3,10.4c2.9,2.9,4.6,7.5,4.6,12.7c0,6.9-2.3,12.1-7.5,16.7c-4.6,4-11,6.3-17.3,6.3
				c-11.5,0-20.2-5.8-24.8-17.3l13.8-6.3c1.7,3.5,3.5,5.8,4.6,6.3c1.7,1.7,4,2.9,6.9,2.9c5.2,0,8.1-2.3,8.1-7.5
				c0-2.9-2.3-5.8-6.3-8.1c-1.7-0.6-3.5-1.7-4.6-2.3c-1.7-0.6-3.5-1.7-5.2-2.3c-4.6-2.3-8.1-4.6-9.8-6.9c-2.3-2.9-3.5-6.9-3.5-11.5
				c0-6.3,2.3-11,6.3-15c4-4,9.2-5.8,15.6-5.8C321.2,193.9,327.5,198.5,332.1,207.7z"/>
			<path fill="#FFFFFF" d="M367.3,252.7l-31.7-57.1h19l21.3,40.4l20.2-40.4h18.5l-56.5,107.8h-18.5L367.3,252.7z"/>
		</g>
		<g>
			<path fill="#FFFFFF" d="M426.7,195.6c19.6,0,15.6,0,44.4,0c17.3,0,34.6,1.2,51.9,2.9c17.3,1.7,34,7.5,46.7,20.2
				c9.8,9.8,18.5,20.8,27.7,31.7c2.9,3.5,4.6,7.5,6.3,12.1c6.9,20.8-7.5,40.9-28.8,41.5c-55.4,0-110.1,0-165.5,0
				c-13.3,0-1.2,0-36.9,0l6.9-13.8c73.2,0,93.4,0,143.6,0c16.7,0,34,0,50.7,0c8.6,0,15-5.2,16.1-13.3c-2.3,0-4.6,0-6.9,0
				c-60,0-119.9,0-179.9,0c-6.3,0-9.8,0.6-17.3,0.6l4.6-8.1c80.7,0,124,0,193.7,0c1.7,0,3.5-0.6,6.3-0.6c-1.2-4.6-4-9.2-4.6-10.4
				c-7.5-8.6-14.4-16.7-22.5-24.2c-10.4-11-23.1-19-38.1-20.8c-8.6-1.2-17.9-1.7-27.1-2.3c-27.7-0.6-24.8-0.6-51.9-0.6
				c-12.7,0-23.1,0-26.5,0L426.7,195.6z"/>
		</g>
	</g>
</g>
</svg>
