<?xml version="1.0" encoding="utf-8"?>
<!-- Generator: Adobe Illustrator 19.1.0, SVG Export Plug-In . SVG Version: 6.00 Build 0)  -->
<svg version="1.1" id="Calque_1" xmlns="http://www.w3.org/2000/svg" xmlns:xlink="http://www.w3.org/1999/xlink" x="0px" y="0px"
	 viewBox="-255 369.9 100 54.1" style="enable-background:new -255 369.9 100 54.1;" xml:space="preserve">
<style type="text/css">
	.st0{fill:#355F95;}
</style>
<path class="st0" d="M-172.6,388.8c-3.1,0-6,0.8-8.5,2.2c-1.6-2.4-3.2-4.8-4.8-7.1c0.7-1.2,1.4-2.4,2.1-3.7c1,0.5,2,0.9,3.1,1.4
	c0.7,0.3,1.7,0,1.7-1c0-1.7,0-3.4,0-5.2c0-0.3-0.1-0.5-0.3-0.7c0,0,0-0.1-0.1-0.1c0,0-0.1,0-0.1-0.1c-0.2-0.2-0.4-0.3-0.7-0.3
	c-3.9,0-7.8,0-11.7,0c-1,0-1.6,1.6-0.6,2.1c2,0.9,3.9,1.7,5.9,2.6c-0.7,1.2-1.5,2.5-2.2,3.7c-11.1,0-22.2,0-33.4,0
	c1-1.5,2.1-3.3,1.3-4.8c-0.5-0.9-0.9-1.7-1.3-2.6c-0.3-0.7-0.6-1.4-0.8-2.1c-0.1-0.2-0.1-0.3-0.1-0.4h2.3c2,0,3.9,0,5.9,0
	c0.8,0,1.6,0,2.4,0c1.9,0,1.9-3,0-3c-3.3,0-6.6,0-10,0c-2,0-3.7,0-3.8,2.4c-0.1,2.2,1.6,4.8,2.6,6.6c0,0.1,0.1,0.1,0.1,0.1
	c-0.2,0.4-0.5,0.9-0.7,1.3c-1.9,3.4-3.8,6.7-5.8,10.1c-2.3-1.1-4.8-1.7-7.4-1.7c-9.7,0-17.6,7.9-17.6,17.6c0,9.7,7.9,17.6,17.6,17.6
	c9.7,0,17.6-7.9,17.6-17.6c0-6-3-11.3-7.6-14.5c0.8-1.4,1.6-2.7,2.3-4.1c6.6,5.3,13.1,10.6,19.7,16c-0.7,0.9-1.1,2-1.1,3.2
	c0,3,2.4,5.4,5.4,5.4c0.2,0,0.3,0,0.5-0.1l0,0l11-1.3c2.1,7.4,8.9,12.9,17,12.9c9.7,0,17.6-7.9,17.6-17.6
	C-155,396.7-162.9,388.8-172.6,388.8z M-222.7,406.4c0,8.1-6.6,14.6-14.6,14.6s-14.6-6.6-14.6-14.6s6.6-14.6,14.6-14.6
	c2.1,0,4.1,0.5,5.9,1.3c-2,3.6-4.1,7.1-6.1,10.7c-1.4,0.1-2.6,1.3-2.6,2.7c0,1.5,1.2,2.7,2.7,2.7c1.5,0,2.7-1.2,2.7-2.7
	c0-0.4-0.1-0.9-0.3-1.2c2-3.6,4.1-7.1,6.1-10.7C-225.2,397.2-222.7,401.5-222.7,406.4z M-181.9,395.1c1.8,2.8,3.7,5.5,5.5,8.3
	l-10.4-0.7C-186,399.6-184.3,397-181.9,395.1z M-189.8,402.4l-6.7-0.5c3-5.1,5.9-10.2,8.9-15.3c1.3,2,2.6,4,4,5.9
	C-186.6,395.1-188.9,398.5-189.8,402.4z M-199.7,401.7l-1.3-0.1c-0.6,0-1.2,0.1-1.8,0.3c-6.7-5.4-13.4-10.9-20.1-16.3
	c10.9,0,21.7,0,32.6,0C-193.5,391-196.6,396.4-199.7,401.7z M-172.6,421c-6.6,0-12.1-4.3-14-10.3l14-1.6c1.5,0,2.7-1.2,2.7-2.7
	c0-1.5-1.2-2.7-2.7-2.7l0,0c-2.3-3.4-4.5-6.8-6.8-10.2c2-1.1,4.4-1.7,6.8-1.7c8.1,0,14.6,6.6,14.6,14.6
	C-158,414.5-164.5,421-172.6,421z"/>
</svg>
