<?xml version="1.0" encoding="utf-8"?>
<!-- Generator: Adobe Illustrator 16.0.0, SVG Export Plug-In . SVG Version: 6.00 Build 0)  -->
<!DOCTYPE svg PUBLIC "-//W3C//DTD SVG 1.1//EN" "http://www.w3.org/Graphics/SVG/1.1/DTD/svg11.dtd">
<svg version="1.1" id="Layer_1" xmlns="http://www.w3.org/2000/svg" xmlns:xlink="http://www.w3.org/1999/xlink" x="0px" y="0px"
	 width="419.832px" height="418.608px" viewBox="96.084 109.584 419.832 418.608"
	 enable-background="new 96.084 109.584 419.832 418.608" xml:space="preserve">
<g>
	<g display="none">
		<path display="inline" fill="#FFFFFF" d="M516.528,166.5H95.472c-10.404,0-18.972-8.568-18.972-18.972l0,0
			c0-10.404,8.568-18.972,18.972-18.972h421.056c10.403,0,18.972,8.568,18.972,18.972l0,0
			C535.5,157.932,526.932,166.5,516.528,166.5z"/>
		<path display="inline" fill="#FFFFFF" d="M516.528,338.472h-76.5c-10.404,0-18.973-8.568-18.973-18.972l0,0
			c0-10.404,8.568-18.972,18.973-18.972h76.5c10.403,0,18.972,8.568,18.972,18.972l0,0
			C535.5,329.904,526.932,338.472,516.528,338.472z"/>
		<path display="inline" fill="#FFFFFF" d="M95.472,510.444h421.056c10.403,0,18.972-8.568,18.972-18.973l0,0
			c0-10.403-8.568-18.972-18.972-18.972H95.472c-10.404,0-18.972,8.568-18.972,18.972l0,0
			C76.5,502.488,85.068,510.444,95.472,510.444z"/>
		<path display="inline" fill="#FFFFFF" d="M95.472,338.472h248.472c10.403,0,18.972-8.568,18.972-18.972l0,0
			c0-10.404-8.568-18.972-18.972-18.972H95.472c-10.404,0-18.972,8.568-18.972,18.972l0,0
			C76.5,329.904,85.068,338.472,95.472,338.472z"/>
	</g>
	<g display="none">
		<path display="inline" fill="#FFFFFF" d="M302.94,538.596c-4.284,0-8.568-1.836-11.628-4.896
			c-8.568-8.568-207.468-208.08-207.468-318.852c0-72.828,47.124-121.788,116.892-121.788c37.944,0,69.768,14.076,91.8,37.332
			c7.344,7.956,19.584,7.956,26.315,0c22.032-23.256,53.856-37.332,91.801-37.332c71.604,0,121.787,52.02,121.787,126.684
			c0,45.9-37.331,112.608-110.771,199.512C369.036,481.68,315.18,533.088,314.568,533.7
			C311.508,536.76,307.224,538.596,302.94,538.596z M200.736,126.108c-51.408,0-83.844,33.66-83.844,88.74
			c0,70.38,109.548,201.959,173.808,270.503c6.732,7.345,18.972,7.345,25.704,0.612c67.319-67.932,182.987-198.9,182.987-265.608
			c0-56.916-34.884-93.024-88.739-93.024c-52.021,0-88.128,33.66-88.74,82.62c0,9.18-6.732,17.136-15.912,17.748
			c-9.792,0.612-17.748-7.344-17.748-16.524C289.476,160.38,252.756,126.108,200.736,126.108z"/>
	</g>
	<g display="none">
		<g display="inline">
			<path fill="#FFFFFF" d="M263.16,566.748c-3.06,0-6.12-0.612-8.568-2.448c-6.732-3.672-11.016-11.628-10.404-18.972l9.792-122.4
				c0.612-10.403,9.792-18.359,20.808-17.748c10.404,0.612,18.36,9.792,17.748,20.809l-2.448,28.764
				c-0.612,4.896,6.12,7.344,8.568,3.06l97.308-150.552c1.836-3.06,0-7.344-4.284-7.344h-66.096c-3.06,0-6.732-0.612-9.18-2.448
				c-7.345-3.672-11.016-11.628-9.792-19.584l11.016-88.74c0.612-4.896-6.12-7.344-8.568-3.06l-91.188,135.252
				c-1.836,3.06,0,7.344,3.672,7.344h54.468c9.792,0,18.972,7.344,19.584,17.136c1.224,11.628-7.956,20.808-18.972,20.808H177.48
				c-4.896,0-9.792-1.836-13.464-4.896c-7.344-6.732-7.956-17.136-3.06-24.48L332.928,82.044c4.284-6.12,11.628-9.792,18.973-8.568
				c10.403,1.836,17.748,11.016,16.523,21.42l-21.42,167.076h87.516c4.896,0,9.792,1.836,13.465,4.896
				c7.344,6.732,7.956,17.136,3.06,24.48L279.072,558.18C275.4,563.688,269.28,566.748,263.16,566.748z"/>
		</g>
	</g>
	<g display="none">
		<path display="inline" fill="#FFFFFF" d="M549.576,536.76L412.488,391.716c-7.956,9.792-17.137,18.972-26.929,27.54
			l137.089,143.208c7.955,7.956,20.808,7.344,27.539-1.224C556.308,553.896,555.696,543.492,549.576,536.76z"/>
		<path display="inline" fill="#FFFFFF" d="M383.112,375.192c-31.824,38.556-81.396,61.812-135.252,58.752
			c-83.232-5.509-149.94-74.665-152.388-157.896c-2.448-94.86,76.5-171.972,171.972-166.464
			c78.336,4.284,143.208,66.096,151.776,143.82c2.448,23.868,0,47.124-6.731,67.932c-2.448,6.732-0.612,14.076,4.283,18.972l0,0
			c9.793,10.404,27.54,6.732,31.824-6.732c7.956-23.868,11.017-49.572,9.181-76.5c-6.732-100.368-88.74-181.152-189.72-186.048
			c-113.832-5.508-208.08,83.844-210.528,195.84C55.08,375.804,141.984,468.216,250.92,472.5
			c67.32,2.448,127.908-28.152,165.852-77.112l-19.584-20.808C393.516,370.908,386.784,370.908,383.112,375.192z"/>
	</g>
	<g display="none">
		<g display="inline">
			<g>
				<path fill="#FFFFFF" d="M346.392,510.444c-4.283,0-7.956,2.447-11.016,5.508c-6.732,8.567-17.748,14.076-29.376,14.076
					s-22.644-5.509-29.376-14.076c-2.448-3.061-6.732-5.508-11.016-5.508c-4.284,0-8.568,0-12.852,0
					c-11.016,0-17.748,11.628-12.24,20.808c13.464,22.032,37.332,36.72,65.484,36.72c28.152,0,52.02-14.688,65.484-36.72
					c5.508-9.18-1.225-21.42-12.24-20.808C354.96,510.444,350.676,510.444,346.392,510.444z"/>
			</g>
			<path fill="#FFFFFF" d="M458.388,383.76L458.388,383.76l-1.224-0.612c-4.284-3.06-31.824-26.316-31.824-126.072
				c0-34.272-5.508-61.812-17.136-82.008c-6.12-11.016-22.032-13.464-30.6-3.672c0,0,0,0,0,0.612
				c-5.509,6.12-6.12,15.3-2.448,22.644c7.956,13.464,11.628,33.66,11.628,63.036c0,126.684,42.228,154.836,53.855,160.344
				c13.465,7.344,13.465,13.464,13.465,16.523c0,2.448-2.448,7.956-4.284,9.792c0,0-22.645,9.181-143.82,9.181
				c-123.624,0-143.82-9.181-143.82-9.181c-1.836-1.836-4.284-7.344-4.284-9.792c0-3.06,0-9.18,13.464-16.523
				c9.792-4.896,48.348-33.048,48.348-160.344c0-58.14,14.076-91.188,86.292-91.188c22.032,0,41.616-12.852,50.796-31.212
				c-14.688-4.284-31.824-6.732-50.796-6.732c-85.068,0-124.236,41.004-124.236,129.132c0,102.816-26.316,124.848-28.152,126.684
				c-22.644,12.24-33.66,29.376-33.66,50.184c0,15.301,9.18,37.944,27.54,45.288c10.404,7.344,39.78,12.24,159.12,12.24
				c119.34,0,149.328-4.896,159.12-12.24c17.748-7.344,27.539-29.987,27.539-45.288C492.66,413.136,481.032,396,458.388,383.76z"/>
			<path fill="#FFFFFF" d="M306,90c10.404,0,18.972,8.568,18.972,18.972c0,10.404-8.567,18.972-18.972,18.972
				c-10.404,0-18.972-8.568-18.972-18.972C287.028,98.568,295.596,90,306,90 M306,51.444c-31.824,0-57.528,25.704-57.528,57.528
				c0,31.824,25.704,57.528,57.528,57.528s57.528-25.704,57.528-57.528C363.528,77.148,337.824,51.444,306,51.444L306,51.444z"/>
		</g>
	</g>
	<g display="none">
		<g display="inline">
			<path fill="#FFFFFF" d="M440.028,539.208c-4.284,0-9.181-1.836-12.853-4.896l-85.067-75.888
				c-3.673-3.06-7.956-4.896-12.853-4.896h-195.84c-31.824,0-57.528-25.704-57.528-57.528V166.5
				c0-31.824,25.704-57.528,57.528-57.528H477.36c31.823,0,57.527,25.704,57.527,57.528V396c0,31.824-25.704,57.528-57.527,57.528
				h-37.944c-10.404,0-18.972-8.568-18.972-18.973c0-10.403,8.567-18.972,18.972-18.972h37.944c10.403,0,18.972-8.568,18.972-18.972
				V166.5c0-10.404-8.568-18.972-18.972-18.972H134.028c-10.404,0-18.972,8.568-18.972,18.972V396
				c0,10.404,8.568,18.972,18.972,18.972h195.84c14.076,0,27.54,5.509,38.556,14.688l84.456,76.5
				c7.956,7.344,8.568,18.972,1.224,26.928C450.432,537.372,444.924,539.208,440.028,539.208z"/>
		</g>
	</g>
	<path display="none" fill="#FFFFFF" d="M468.792,233.208L468.792,233.208C468.18,142.02,395.352,71.028,306,71.028
		c-89.352,0-162.18,70.992-162.792,162.18l0,0l0,0l0,0l0,0C143.82,356.832,287.64,481.68,293.76,487.188
		c3.672,3.061,7.956,4.896,12.24,4.896s8.568-1.836,12.24-4.896C324.36,481.68,468.18,357.444,468.792,233.208L468.792,233.208
		C468.792,233.82,468.792,233.82,468.792,233.208C468.792,233.82,468.792,233.208,468.792,233.208z M319.464,433.332
		c-7.344,7.344-19.584,7.344-26.928,0C252.756,392.94,181.764,310.32,181.764,233.82c0-67.32,55.692-124.236,124.236-124.236
		S430.236,166.5,430.236,233.82C430.236,310.32,359.244,392.94,319.464,433.332z M468.792,491.472
		c0,50.185-82.008,76.5-162.792,76.5s-162.792-26.315-162.792-76.5c0-23.256,17.748-41.004,44.676-53.855
		c7.344-3.672,16.524-1.225,22.032,4.896c0,0,0,0,0,0.612c7.956,9.792,4.896,23.868-6.732,29.376
		c-14.688,7.344-22.032,14.688-22.032,19.584c0,11.628,42.228,37.944,124.236,37.944s124.236-26.929,124.236-37.944
		c0-4.896-7.344-12.24-22.032-19.584c-11.016-5.508-14.688-19.584-6.731-29.376c0,0,0,0,0-0.612
		c5.508-6.12,14.688-8.567,22.031-4.896C451.044,450.468,468.792,468.216,468.792,491.472z M306,166.5
		c-36.72,0-66.708,29.988-66.708,66.708c0,36.72,29.988,67.32,66.708,67.32c36.72,0,66.708-29.988,66.708-66.708
		C372.708,197.1,342.72,166.5,306,166.5z M306,261.972c-15.912,0-28.764-12.852-28.764-28.764s12.852-28.764,28.764-28.764
		s28.764,12.852,28.764,28.764S321.912,261.972,306,261.972z"/>
	<g display="none">
		<path display="inline" fill="#FFFFFF" d="M306,419.868c-55.08,0-100.368-45.288-100.368-100.368S250.92,219.132,306,219.132
			S406.368,264.42,406.368,319.5c0,7.956-1.225,15.912-3.061,23.868c-2.447,10.404-12.852,16.524-23.256,14.076
			c-10.403-2.448-16.523-12.852-14.076-23.256c1.225-4.896,1.837-9.792,1.837-14.688c0-34.272-28.152-62.424-62.424-62.424
			s-61.812,28.152-61.812,62.424s28.152,62.424,62.424,62.424c7.344,0,14.688-1.224,22.032-3.672
			c9.792-3.672,20.808,1.224,24.479,11.016c3.672,9.792-1.224,20.808-11.016,24.48C329.868,418.032,318.24,419.868,306,419.868z
			 M379.44,510.444v-18.36l11.628,12.852c11.016,11.017,25.092,16.524,40.392,16.524s29.376-6.12,40.392-16.524l20.196-20.195
			c11.017-11.017,16.524-25.092,16.524-40.393c0-15.3-6.12-28.764-17.137-39.779l-12.852-12.24h18.36
			c31.823,0,59.976-27.54,59.976-59.364V304.2c0-31.824-28.152-59.364-59.976-59.364h-18.36l12.852-11.628
			c22.645-22.644,22.645-58.14,0-80.784l-20.195-20.196c-11.017-11.016-25.092-16.524-40.393-16.524
			c-15.3,0-28.764,6.12-39.779,17.136l-11.628,13.464v-17.748c0-31.824-27.54-59.976-59.364-59.976h-28.764
			c-31.824,0-59.364,28.152-59.364,59.976v18.36l-11.628-12.852c-11.016-11.016-25.092-16.524-40.392-16.524
			c-15.3,0-29.376,6.12-40.392,16.524L119.34,154.26c-22.644,22.644-22.032,58.14,0,80.172l12.852,11.628h-18.36
			c-30.6,0-58.752,27.54-58.752,59.364v28.764c0,31.824,28.152,59.364,59.976,59.364h18.36l-12.852,11.628
			c-22.644,22.645-22.644,58.141,0,80.784l20.196,20.196c11.016,11.016,25.092,16.523,40.392,16.523
			c15.3,0,28.764-6.119,39.78-17.136l11.628-12.852v18.359c0,31.824,27.54,59.977,59.364,59.977h28.764
			C351.9,570.42,379.44,542.268,379.44,510.444z M213.588,459.648l-18.972,18.972c-3.672,3.672-8.568,5.508-13.464,5.508
			s-9.792-1.836-13.464-5.508l-20.808-20.809c-7.344-7.344-7.344-19.584,0-26.928l18.972-18.972
			c9.792-9.792,12.852-26.316,7.344-39.168c-5.508-12.852-17.748-22.644-31.824-22.644h-26.928
			c-10.404,0-16.524-5.508-16.524-16.524v-28.764c0-10.404,6.12-16.524,17.136-16.524h26.928c14.076,0,26.316-9.792,31.824-23.256
			v-0.612c5.508-12.852,2.448-28.152-7.344-37.944l-19.584-18.36c-7.344-7.344-7.344-19.584,0-26.928l20.196-20.196
			c3.672-3.672,8.568-5.508,13.464-5.508s9.792,1.836,13.464,5.508l17.136,17.136c7.344,7.344,16.524,11.016,26.928,11.016
			c4.896,0,9.792-1.224,14.076-2.448l0,0h1.224c11.628-4.896,20.808-15.912,20.808-28.764v-29.376
			c0-10.404,5.508-17.136,16.524-17.136h28.764c10.404,0,16.524,6.12,16.524,17.136v26.928c0,14.076,9.792,26.316,23.256,31.824
			c4.284,1.836,9.18,2.448,14.076,2.448c9.18,0,18.359-3.672,24.479-9.792l18.972-18.972c3.673-3.672,8.568-5.508,13.465-5.508
			c4.896,0,9.792,1.836,13.464,5.508l20.195,20.196c7.345,7.344,7.345,19.584,0,26.928l-18.972,18.972
			c-9.792,9.792-12.852,26.316-7.344,39.168s17.748,22.644,31.824,22.644h26.928c10.404,0,17.136,5.508,17.136,16.524v28.764
			c0,10.404-6.12,16.524-17.136,16.524h-26.928c-14.076,0-26.316,9.792-31.824,22.644v0.612v0.612
			c-5.508,12.852-2.448,27.54,7.344,37.944l18.972,18.972c7.345,7.344,7.345,19.584,0,26.928l-19.584,20.196
			c-3.672,3.672-8.567,5.508-13.464,5.508c-4.896,0-9.792-1.836-13.464-5.508l-18.972-18.972c-6.732-6.732-15.3-9.792-24.48-9.792
			c-4.283,0-8.567,0.611-12.852,2.447h-1.836c-12.853,5.509-22.645,17.748-22.645,31.824v26.928
			c0,10.404-5.508,17.137-16.523,17.137h-28.764c-10.404,0-16.524-6.12-16.524-17.137v-26.928c0-14.076-9.792-26.316-23.256-31.824
			c-4.284-1.836-9.18-2.447-14.076-2.447C229.5,449.244,219.708,452.916,213.588,459.648z"/>
	</g>
	<g display="none">
		<path display="inline" fill="#FFFFFF" d="M477.972,472.5c-4.896,0-9.792-1.836-13.464-5.508L393.516,396H229.5
			c-31.824,0-57.528-25.704-57.528-57.528V166.5c0-31.824,25.704-57.528,57.528-57.528h268.056
			c31.824,0,57.528,25.704,57.528,57.528v171.972c0,31.824-25.704,57.528-57.528,57.528h-4.896
			c-10.404,0-18.973-8.568-18.973-18.972c0-10.404,8.568-18.972,18.973-18.972h4.896c10.404,0,18.973-8.568,18.973-18.972V166.5
			c0-10.404-8.568-18.972-18.973-18.972H229.5c-10.404,0-18.972,8.568-18.972,18.972v171.972c0,10.404,8.568,18.972,18.972,18.972
			h171.972c4.896,0,9.792,1.836,13.464,5.508l76.5,76.5c7.345,7.344,7.345,19.584,0,26.928
			C487.764,470.664,482.868,472.5,477.972,472.5z M153,453.528c0-10.404-8.568-18.973-18.972-18.973h-18.972
			c-10.404,0-18.972-8.567-18.972-18.972V247.896c0-10.404,8.568-18.972,18.972-18.972h18.972c10.404,0,18.972-8.568,18.972-18.972
			c0-10.404-8.568-18.972-18.972-18.972h-18.972c-31.824,0-57.528,25.704-57.528,57.528v167.076
			c0,31.824,25.704,57.528,57.528,57.528h18.972C144.432,472.5,153,463.932,153,453.528z M166.464,543.492l70.992-70.992H382.5
			c10.404,0,18.972-8.568,18.972-18.972c0-10.404-8.567-18.973-18.972-18.973h-153c-4.896,0-9.792,1.836-13.464,5.509l-76.5,76.5
			c-7.344,7.344-7.344,19.584,0,26.928C143.208,547.164,148.104,549,153,549S162.792,547.164,166.464,543.492z"/>
	</g>
	<g display="none">
		<path display="inline" fill="#FFFFFF" d="M324.972,567.972c-6.12,0-12.239-3.06-17.748-10.403C306,555.732,306,553.896,306,552.06
			V409.464c0-2.448,1.224-4.896,3.06-6.731c16.524-14.688,35.496-3.673,35.496,12.239v23.868c0,4.896,6.732,6.732,9.181,1.836
			c41.615-91.8,102.815-225.216,137.699-301.104c1.837-4.284-2.447-7.956-6.119-6.12L176.868,272.376
			c-4.896,1.836-3.06,9.18,1.836,9.18H306c21.42,0,37.944,17.136,37.944,39.168v23.868c0,2.448-1.225,4.896-3.061,6.732
			c-16.523,14.688-35.496,3.672-35.496-12.24v-9.792c0-5.508-4.284-9.792-9.792-9.792H61.812c-1.836,0-3.672-0.612-4.896-1.224
			C42.228,307.26,46.512,288.9,59.364,282.78l468.18-210.528c11.628-5.508,26.316,1.836,27.54,18.36c0,1.224,0,2.448-0.612,3.672
			C483.48,249.12,345.78,549,342.72,556.344C339.66,563.688,332.316,567.972,324.972,567.972z"/>
	</g>
	<g display="none">
		<path display="inline" fill="#FFFFFF" d="M515.304,361.116c-36.107,36.107-111.996,97.308-214.2,97.308
			c-104.652,0-181.764-63.648-218.484-101.592c-7.344-7.344-7.344-19.584,0.612-26.928c7.344-7.344,19.584-7.344,26.928,0.612
			c32.436,33.66,100.368,89.963,190.944,89.963c88.74,0,155.448-53.855,187.272-85.68c7.344-7.344,19.584-7.344,26.928,0
			C523.26,341.532,523.26,353.772,515.304,361.116z M505.512,293.796c-7.344,3.672-15.912,2.448-22.031-3.672
			c-19.584-18.972-45.9-39.78-77.725-55.692c-3.06-1.836-6.731,1.836-5.508,4.896c4.284,11.628,6.732,23.868,6.732,36.72
			c0,65.484-59.977,116.892-127.909,102.816c-39.78-8.568-71.604-39.78-80.172-79.56c-4.284-21.42-2.448-41.616,4.284-59.976
			c1.224-3.672-2.448-6.732-5.508-4.896c-32.436,15.912-58.752,37.332-78.336,56.304c-3.672,3.672-8.568,5.508-13.464,5.508
			c-7.344,0-14.688-4.284-18.36-12.852c-3.06-7.344-0.612-15.3,4.896-20.196c43.452-42.229,115.056-92.412,209.304-92.412
			c93.636,0,165.24,49.572,208.692,91.188C518.976,271.152,517.752,287.064,505.512,293.796z M366.588,288.9
			c6.12-16.524-9.18-31.212-25.092-25.092c-4.896,1.836-8.568,5.508-10.404,10.404c-6.12,16.524,9.181,31.212,25.092,25.092
			C361.08,296.856,364.752,293.184,366.588,288.9z"/>
	</g>
	<g display="none">
		<path display="inline" fill="#FFFFFF" d="M459,414.972c-21.42,0-40.392,8.568-54.468,22.645L227.664,336.024
			c1.224-5.508,1.836-11.016,1.836-16.524c0-7.956-1.224-15.912-3.672-22.644l177.479-96.696
			c14.076,14.688,33.66,24.48,55.692,24.48c42.228,0,76.5-34.272,76.5-76.5S501.228,71.028,459,71.028
			c-42.229,0-76.5,34.272-76.5,76.5c0,6.732,0.612,12.852,2.448,18.972l-179.316,97.92C192.168,251.568,173.196,243,153,243
			c-42.228,0-76.5,34.272-76.5,76.5S110.772,396,153,396c22.644,0,43.452-10.404,57.528-26.316L385.56,471.276
			c-1.836,6.731-3.06,13.464-3.06,20.195c0,42.229,34.271,76.5,76.5,76.5c42.228,0,76.5-34.271,76.5-76.5
			C535.5,449.244,501.228,414.972,459,414.972z M459,108.972c20.808,0,37.944,17.136,37.944,37.944S479.808,184.86,459,184.86
			c-14.688,0-26.928-7.956-33.66-20.196l0,0c-3.06-5.508-4.896-11.628-4.896-18.36C421.056,126.108,438.192,108.972,459,108.972z
			 M153,357.444c-20.808,0-37.944-17.136-37.944-37.944s17.136-37.944,37.944-37.944s37.944,17.136,37.944,37.944
			S173.808,357.444,153,357.444z M459,530.028c-20.808,0-37.944-17.137-37.944-37.944S438.192,454.14,459,454.14
			s37.944,17.137,37.944,37.944S479.808,530.028,459,530.028z"/>
	</g>
	<g display="none">
		<path display="inline" fill="#FFFFFF" d="M225.828,172.008c-7.956-7.344-7.956-20.808,0-28.152l66.708-66.708
			c7.344-7.344,19.584-7.344,26.928,0l66.708,66.708c7.956,7.956,7.956,20.808,0,28.152c-3.672,3.06-7.956,4.896-12.852,4.896
			c-4.896,0-10.404-1.836-14.076-5.508L324.36,135.9v240.516c0,10.404-7.956,18.972-18.36,18.972
			c-10.404,0-18.36-8.568-18.36-18.972V135.9l-35.496,34.884c-3.672,3.672-8.568,5.508-13.464,5.508
			C233.784,176.904,228.888,175.068,225.828,172.008z M459,197.1h-61.2c-9.792,0-18.972,6.732-19.584,16.524
			c-1.224,11.628,7.344,20.196,18.36,20.196h52.632c5.508,0,9.792,3.672,9.792,9.18v277.236c0,5.508-4.284,7.344-9.792,7.344
			H162.792c-5.508,0-9.792-1.836-9.792-7.344V243c0-5.508,4.284-9.18,9.792-9.18H214.2c9.792,0,18.972-6.732,19.584-16.524
			c1.224-11.628-7.956-20.196-18.972-20.196H153c-21.42,0-36.72,15.3-36.72,36.108v296.208c0,21.42,15.3,40.392,36.72,40.392h306
			c21.42,0,36.72-19.584,36.72-40.392V233.208C495.72,212.4,480.42,197.1,459,197.1z"/>
	</g>
	<g display="none">
		<path display="inline" fill="#FFFFFF" d="M306,261.972c-10.404,0-18.36-8.568-18.36-18.972V90c0-10.404,7.956-18.972,18.36-18.972
			c10.404,0,18.36,8.568,18.36,18.972v153C324.36,253.404,316.404,261.972,306,261.972z M525.708,348.264
			c0-90.576-53.244-170.748-136.476-204.408c-9.792-3.672-20.809,0.612-25.093,10.404c-3.672,9.792,0.612,20.808,10.404,25.092
			c67.932,27.54,112.608,93.636,112.608,168.912c0,100.368-81.396,181.764-181.764,181.764
			c-100.368,0-181.152-81.396-181.152-181.764c0-74.052,44.064-140.148,113.22-168.3c9.792-4.284,14.688-15.3,10.404-25.092
			c-4.284-9.792-15.3-14.688-25.092-10.404C139.536,178.74,86.292,258.3,86.292,348.264c0,121.176,98.532,219.708,219.708,219.708
			S525.708,469.44,525.708,348.264z"/>
	</g>
	<g display="none">
		<path display="inline" fill="#FFFFFF" d="M476.748,174.456l60.588-60.588c7.344-7.344,7.956-18.36,1.836-26.316
			c-7.344-8.568-20.196-9.18-28.151-1.224l-61.2,61.2L318.852,135.9c-11.016-1.224-22.644,3.06-30.6,11.016L78.336,356.22
			c-14.688,14.688-14.688,39.168,0,53.856L213.588,545.94c14.688,14.688,39.168,14.688,53.856,0L477.36,336.024
			c7.956-7.956,12.239-18.972,11.016-30.6L476.748,174.456z M362.304,261.972c7.345,7.344,7.345,19.584,0,26.928
			c-7.344,7.344-19.584,7.344-26.928,0c-7.344-7.344-7.344-19.584,0-26.928C342.72,254.628,354.96,254.628,362.304,261.972z
			 M233.784,512.28L111.996,390.492c-3.672-3.672-3.672-9.792,0-13.464L312.12,176.904c1.836-1.836,4.896-3.06,7.344-3.06
			l74.664,6.732c7.956,0.612,11.628,10.404,6.12,16.524l-26.928,26.316c-22.032-10.404-50.185-6.12-67.32,13.464
			c-19.584,21.42-18.972,55.692,0.612,77.112c22.031,23.868,59.976,24.48,82.62,1.836c17.748-17.748,21.42-44.064,11.016-65.484
			l26.928-26.928c5.508-5.508,15.3-2.448,16.524,6.12l6.731,74.664c0,3.06-0.611,5.508-3.06,7.344L247.248,512.28
			C243.576,515.952,237.456,515.952,233.784,512.28z M240.516,437.616c-7.344,7.344-19.584,7.344-26.928,0l-26.928-26.929
			c-7.344-7.344-7.344-19.583,0-26.928c7.344-7.344,19.584-7.344,26.928,0l26.928,26.928
			C247.86,418.032,247.86,430.271,240.516,437.616z M321.3,383.76c7.344,7.344,7.344,19.584,0,26.928
			c-7.344,7.345-19.584,7.345-26.928,0l-80.784-81.396c-7.344-7.344-7.344-19.584,0-26.928c7.344-7.344,19.584-7.344,26.928,0
			L321.3,383.76z"/>
	</g>
	<g display="none">
		<path display="inline" fill="#FFFFFF" d="M306,528.192c-115.668,0-209.916-94.248-209.916-209.304S190.332,109.584,306,109.584
			s209.916,94.248,209.916,209.304c0,41.616-12.24,81.396-35.496,116.28c-5.508,8.568-17.136,11.016-25.704,4.896
			c-8.567-5.509-11.016-17.137-4.896-25.704c18.972-28.152,28.764-61.2,28.764-95.472c0-94.86-77.724-171.972-172.584-171.972
			c-94.86,0-172.584,77.112-172.584,171.972c0,94.86,77.112,172.583,172.584,172.583c33.66,0,66.708-9.792,94.86-28.151
			c8.567-5.509,20.195-3.061,25.704,5.508c5.508,8.568,3.06,20.196-5.509,25.704C386.784,516.564,347.004,528.192,306,528.192z
			 M402.084,308.484L321.3,227.7c-4.284-4.284-10.403-6.12-15.912-5.508c-5.508-0.612-11.628,1.224-15.912,5.508l-80.784,80.784
			c-6.732,6.732-7.956,17.136-3.06,24.48c6.732,10.404,20.808,11.016,29.376,3.06l44.064-43.452c3.06-3.06,8.568-0.612,8.568,3.672
			V405.18c0,8.568,4.284,16.524,12.24,18.973c12.853,4.283,24.48-5.509,24.48-18.36V297.468c0-4.284,5.508-6.12,8.567-3.672
			l42.229,42.228c8.567,8.568,22.644,7.344,29.376-3.06C410.04,325.62,408.204,315.216,402.084,308.484z"/>
	</g>
	<g display="none">
		<g display="inline">
			<path fill="#FFFFFF" d="M477.972,224.028H134.028c-21.42,0-37.944,17.136-37.944,37.944v268.056
				c0,21.42,17.136,37.943,37.944,37.943h343.944c21.42,0,37.944-17.136,37.944-37.943V261.972
				C516.528,241.164,499.392,224.028,477.972,224.028z M468.792,530.028H143.208c-5.508,0-9.792-4.284-9.792-9.792V271.764
				c0-5.508,4.284-9.792,9.792-9.792h18.972c5.508,0,9.792,4.284,9.792,9.792v200.124c0,9.792,7.344,18.973,17.136,19.584
				c11.628,1.225,20.808-7.956,20.808-18.972V271.764c0-5.508,4.284-9.792,9.792-9.792H468.18c5.508,0,9.792,4.284,9.792,9.792
				v248.472C477.972,525.744,473.688,530.028,468.792,530.028z"/>
			<path fill="#FFFFFF" d="M210.528,166.5c0-28.152,20.196-51.408,46.512-56.304c4.284-0.612,7.344,3.672,4.896,7.344
				c-8.568,14.076-13.464,31.212-13.464,48.96v18.972c0,10.404,8.568,18.972,18.972,18.972l0,0c10.404,0,18.972-8.568,18.972-18.972
				V166.5c0-12.852,4.284-24.48,11.628-34.272c3.672-4.896,11.628-4.896,15.3,0c7.344,9.792,11.628,21.42,11.628,34.272v18.972
				c0,10.404,8.568,18.972,18.973,18.972l0,0c10.403,0,18.972-8.568,18.972-18.972V166.5c0-17.748-4.896-34.884-13.464-48.96
				c3.06-4.896,1.836-2.448,4.896-7.344c26.316,4.896,46.513,28.152,46.513,56.304v18.972c0,10.404,8.567,18.972,18.972,18.972l0,0
				c10.404,0,18.972-8.568,18.972-18.972v-16.524c0-50.184-37.332-93.636-86.903-97.92c-16.524-1.836-33.049,1.224-47.125,7.344l0,0
				c-14.076-6.12-29.988-9.18-47.124-7.344c-49.572,4.284-86.904,47.736-86.904,97.92v16.524c0,10.404,8.568,18.972,18.972,18.972
				l0,0c10.404,0,18.972-8.568,18.972-18.972V166.5H210.528z"/>
		</g>
	</g>
	<g display="none">
		<path display="inline" fill="#FFFFFF" d="M440.028,281.556v248.472c0,21.42-17.137,37.943-37.944,37.943H206.856
			c-18.972,0-34.884-15.3-34.884-34.884V281.556c0-14.076,15.3-24.48,30.6-15.912c4.896,3.06,7.956,8.568,7.956,14.076v241.128
			c0,5.509,4.284,9.792,9.792,9.792h171.972c5.508,0,9.792-4.283,9.792-9.792V279.72c0-5.508,3.06-11.016,7.956-14.076
			C424.728,256.464,440.028,266.868,440.028,281.556z M343.944,453.528h-75.888c-10.404,0-18.972,8.567-18.972,18.972
			s8.568,18.972,18.972,18.972h76.5c10.404,0,18.973-8.567,18.973-18.972S354.96,453.528,343.944,453.528z M343.944,377.028h-75.888
			c-10.404,0-18.972,8.568-18.972,18.972c0,10.404,8.568,18.972,18.972,18.972h76.5c10.404,0,18.973-8.567,18.973-18.972
			C363.528,385.596,354.96,377.028,343.944,377.028z M343.944,300.528h-75.888c-10.404,0-18.972,8.568-18.972,18.972
			s8.568,18.972,18.972,18.972h76.5c10.404,0,18.973-8.568,18.973-18.972S354.96,300.528,343.944,300.528z M171.972,224.028
			c0-10.404,8.568-18.972,18.972-18.972c0-35.496,24.48-65.484,57.528-74.052v-21.42c0-31.824,25.704-57.528,57.528-57.528
			s57.528,25.704,57.528,57.528v21.42c33.048,8.568,57.527,38.556,57.527,74.052c10.404,0,18.973,8.568,18.973,18.972
			c0,10.404-8.568,18.972-18.973,18.972H190.944C180.54,243,171.972,234.432,171.972,224.028z M229.5,204.444h153
			c0-20.808-17.136-37.944-37.944-38.556l0,0c-10.403,0-18.972-8.568-18.972-18.972v-37.944c0-11.016-9.792-20.196-20.808-18.972
			c-9.792,1.224-17.136,9.792-17.136,19.584v37.332c0,10.404-8.568,18.972-18.972,18.972l0,0
			C246.636,166.5,229.5,183.636,229.5,204.444z"/>
	</g>
	<g>
		<path fill="#FFFFFF" d="M306,528.192c-115.668,0-209.916-94.248-209.916-209.304S190.332,109.584,306,109.584
			s209.916,94.248,209.916,209.304c0,41.616-12.24,81.396-35.496,116.28c-5.508,8.568-17.136,11.016-25.704,4.896
			c-8.567-5.509-11.016-17.137-4.896-25.704c18.972-28.152,28.764-61.2,28.764-95.472c0-94.86-77.724-171.972-172.584-171.972
			c-94.86,0-172.584,77.112-172.584,171.972c0,94.86,77.112,172.583,172.584,172.583c33.66,0,66.708-9.792,94.86-28.151
			c8.567-5.509,20.195-3.061,25.704,5.508c5.508,8.568,3.06,20.196-5.509,25.704C386.784,516.564,347.004,528.192,306,528.192z
			 M404.532,306.036c-6.732-10.404-20.809-11.016-29.376-3.06l-42.229,42.228c-3.06,3.06-8.567,0.612-8.567-3.672V233.208
			c0-12.24-11.017-22.032-24.48-18.36c-7.956,2.448-12.24,10.404-12.24,18.972v108.936c0,4.284-5.508,6.12-8.568,3.672
			l-43.452-43.452c-8.568-8.568-22.644-7.344-29.376,3.06c-5.508,7.956-3.672,18.36,3.06,24.48l80.172,80.784
			c4.284,4.284,10.404,6.12,15.912,5.508c5.508,0.612,11.627-1.224,15.912-5.508l80.784-80.784
			C408.204,323.784,410.04,313.38,404.532,306.036z"/>
	</g>
	<g display="none">
		<path display="inline" fill="#FFFFFF" d="M248.472,491.472c0,21.42-17.136,37.944-37.944,37.944s-37.944-17.136-37.944-37.944
			c0-20.808,17.136-37.943,37.944-37.943S248.472,470.664,248.472,491.472z M440.028,453.528c-21.42,0-37.944,17.136-37.944,37.943
			c0,20.809,17.136,37.944,37.944,37.944c20.808,0,37.943-17.136,37.943-37.944C477.972,470.664,460.836,453.528,440.028,453.528z
			 M230.112,184.86c-9.792,0-20.196,6.12-20.196,18.36c0,12.853,7.956,18.36,18.972,18.36h269.28c6.12,0,11.016,6.732,9.18,12.852
			L482.256,334.8c-0.612,3.672-3.672,6.732-7.344,7.344l-242.964,48.96c-4.896,1.224-9.792-1.836-11.016-6.732l-68.544-241.74
			c-2.448-7.956-9.792-12.852-18.36-12.852H77.724c-9.792,0-18.972,6.732-19.584,16.524c-1.224,11.628,7.956,20.196,18.972,20.196
			h35.496c4.284,0,7.956,3.06,9.18,6.732l65.484,231.336c5.508,19.584,25.092,31.212,44.676,26.928L489.6,378.864
			c14.688-3.06,26.316-14.076,29.376-28.152L550.8,220.968c4.284-18.36-9.18-36.108-28.151-36.108H230.112z"/>
	</g>
	<g display="none">
		<path display="inline" fill="#FFFFFF" d="M343.944,243c0,21.42-17.137,37.944-37.944,37.944
			c-20.808,0-37.944-17.136-37.944-37.944s17.136-37.944,37.944-37.944C326.808,205.056,343.944,221.58,343.944,243z
			 M318.852,601.632c3.673-3.06,14.076-12.24,21.42-17.136l2.448-1.836c13.464-9.181,39.168-25.704,39.168-71.604l0,0
			c0-10.403-8.567-18.972-18.972-18.972l0,0c-10.404,0-18.972,8.568-18.972,18.972l0,0c0,25.093-10.404,31.824-22.032,39.78
			l-2.448,1.224c-4.284,3.061-9.18,6.732-13.464,9.792c-4.284-3.672-9.18-6.731-13.464-9.792l-2.448-1.224
			c-13.464-8.568-22.644-14.076-22.644-39.78l0,0c0-10.403-8.568-18.972-18.972-18.972l0,0c-10.404,0-18.972,8.568-18.972,18.972
			l0,0c0,46.513,24.48,61.812,40.392,72.217l1.836,1.224c9.792,6.12,20.808,16.523,20.808,17.136l12.852,12.24L318.852,601.632z
			 M501.84,453.528c0,18.359-5.508,36.107-15.3,52.02c-3.06,4.896-8.568,7.956-14.688,8.568c-0.611,0-0.611,0-1.224,0
			c-5.508,0-11.016-2.448-14.688-6.732c-22.032-25.704-43.452-34.884-78.337-34.884c-1.224,0-2.447,0-3.672-0.612v0.612h-48.96
			v18.972c0,10.404-7.956,18.973-18.359,18.973c-10.404,0-18.36-8.568-18.36-18.973V472.5h-39.168
			c-34.884,0-56.304,9.18-78.336,34.884c-3.672,4.284-9.18,6.732-14.688,6.732c-0.612,0-0.612,0-1.224,0
			c-6.12-0.612-11.628-3.672-14.688-8.568c-9.792-15.3-15.3-33.66-15.3-52.02c0-44.677,30.6-82.008,72.216-92.412
			c-3.06-18.36-4.896-38.556-4.896-60.588c0-94.86,59.364-229.5,115.056-229.5c36.108,0,65.484,50.796,79.561,80.784
			c22.032,47.124,35.496,102.816,35.496,148.716c0,21.42-1.836,40.392-4.284,58.14C464.508,362.952,501.84,403.956,501.84,453.528z
			 M218.484,437.004c-3.672-7.956-7.344-17.748-11.016-28.764c-1.836-5.508-7.956-8.568-13.464-5.508
			c-18.972,9.18-31.824,28.764-31.824,51.407c0,2.448,0,5.509,0.612,7.956C179.316,448.632,197.676,440.676,218.484,437.004z
			 M352.512,435.78c9.792-18.36,29.988-66.708,29.988-134.64c0-40.392-11.628-90.576-31.824-132.804
			c-20.808-44.676-40.392-59.364-44.676-59.364c-16.524,0-76.5,100.98-76.5,190.944c0,25.092,3.06,47.736,7.344,67.32
			c1.836,3.06,2.448,6.12,2.448,9.18c0,0.612,0,1.224,0,1.836c6.732,26.928,15.3,44.676,20.808,56.916h27.54v-58.752
			c0-10.404,7.956-18.972,18.36-18.972c10.404,0,18.36,8.568,18.36,18.972v59.364H352.512z M463.896,453.528
			c0-28.152-20.196-51.408-47.124-56.305c-4.896-0.611-9.792,1.836-11.017,6.732c-3.672,12.24-7.956,22.644-11.628,31.212
			c26.928,2.448,48.96,10.404,69.156,26.316C463.896,458.424,463.896,455.976,463.896,453.528z"/>
	</g>
	<g display="none">
		<path display="inline" fill="#FFFFFF" d="M306,71.028c-137.088,0-248.472,111.384-248.472,248.472S168.912,567.972,306,567.972
			S554.472,456.588,554.472,319.5S443.088,71.028,306,71.028z M482.256,204.444c-3.672,0-7.956,0-11.628,0
			c-4.284,0-7.956,0-11.016,0c-9.792,0-15.912-1.836-18.973-3.06c0.612-19.584,3.672-28.764,9.181-36.108
			C461.448,176.904,472.464,190.368,482.256,204.444z M250.92,116.316c0,0,7.344,12.852,9.18,14.076
			c1.224,0.612,2.448,2.448,2.448,3.672c0,0.612,0,0.612,0,1.224c0,4.896,0,18.36,12.852,27.54
			c6.732,4.896,14.688,5.508,22.032,5.508c1.836,0,5.508,0.612,7.956,0.612c-0.612,11.628-3.672,16.524-7.956,22.644
			c-4.896,6.732-11.016,15.912-11.016,31.212c-5.508,0.612-15.3,0.612-18.972,0.612c-23.256,0-57.528,20.196-57.528,57.528
			c0,39.78,28.764,57.528,57.528,57.528c8.568,0,22.644,4.896,29.988,10.404c3.672,3.06,8.568,6.12,8.568,28.152
			c0,10.404,0,15.912-31.824,42.84c-21.42,18.359-41.004,47.124-55.692,71.604c-12.852-20.808-27.54-60.588-27.54-76.5
			c0-18.972,4.284-26.316,9.792-34.884c3.06-4.896,6.12-9.792,8.568-16.524c8.568-25.704,0-53.244-23.868-77.112
			c-4.284-4.284-9.18-8.568-13.464-12.24C158.508,263.196,153,258.3,153,243c0,0-3.672-35.496-4.896-52.632
			c-0.612-7.956,4.896-14.076,4.896-14.076S208.08,127.944,250.92,116.316z M96.696,319.5c0-31.212,7.344-60.588,19.584-87.516V243
			c0,33.66,17.748,48.96,32.436,61.2c3.672,3.06,7.344,6.12,10.404,9.792c13.464,13.464,18.36,26.316,14.076,37.944
			c-0.612,2.448-2.448,4.896-4.896,8.568c-6.732,10.404-15.3,25.092-15.3,55.08c0,10.404,6.732,37.944,17.748,64.872
			C125.46,441.9,96.696,383.76,96.696,319.5z M243.576,520.236c13.464-22.645,35.496-54.469,55.692-71.604
			c33.048-28.151,44.676-43.452,44.676-72.216c0-29.376-6.732-45.9-23.868-58.752c-13.464-10.404-36.108-17.748-52.632-17.748
			c-18.972,0-18.972-13.464-18.972-18.972c0-13.464,14.688-18.972,18.972-18.972c21.42,0,36.72-0.612,47.736-12.24
			c6.732-6.732,9.792-15.3,9.792-26.316c0-3.06,0.612-4.284,4.284-9.792c6.12-8.568,14.688-21.42,14.688-47.124
			c0-32.436-31.824-34.884-43.452-36.108v-0.612c-1.224-7.344-3.672-14.076-7.956-20.196c4.284,0,8.568-0.612,13.464-0.612
			c41.616,0,80.172,12.24,112.608,33.048c-14.688,18.972-17.137,41.616-17.137,62.424c0,23.256,22.645,37.944,57.528,37.944
			c3.06,0,7.344,0,11.628,0c9.18,0,18.972,0,25.704,0h0.612c1.224,0,3.06,0,4.283-0.612c2.448,6.12,4.896,12.852,6.732,19.584
			c-41.004,0.612-126.072,4.896-126.072,76.5c0,45.288,24.48,59.976,39.168,68.544c2.448,1.836,4.896,3.06,7.345,4.284
			c3.672,2.447,9.18,14.075,11.016,62.424c0,3.06,0,5.508,0,7.956c-36.108,29.987-83.232,48.348-134.028,48.348
			C277.848,530.028,243.576,520.236,243.576,520.236z M476.136,443.124c-2.448-26.928-8.567-50.796-25.092-62.424
			c-3.06-2.448-6.731-4.284-9.792-6.12c-12.852-7.344-20.196-12.24-20.196-35.496c0-19.584,11.628-37.944,94.86-37.944
			c0.612,6.12,0.612,12.852,0.612,18.972C516.528,365.4,501.228,408.24,476.136,443.124z"/>
	</g>
	<g display="none">
		<path display="inline" fill="#FFFFFF" d="M306,71.028c-137.088,0-248.472,111.384-248.472,248.472S168.912,567.972,306,567.972
			S554.472,456.588,554.472,319.5S443.088,71.028,306,71.028z M516.528,319.5c0,6.732-0.612,12.852-0.612,18.972
			c-11.628,0-16.524-6.12-25.704-21.42c-9.18-15.3-21.42-35.496-50.184-35.496c-11.017,0-19.584,3.06-26.316,9.792
			c-11.016,11.016-10.404,26.316-10.404,39.78c0,7.956,0,15.3-1.224,22.644c-9.792,42.84-27.54,94.248-39.168,113.832l0,0
			c-1.836-5.508-3.06-11.016-4.284-16.523c-7.956-30.6-17.748-64.872-47.124-73.44c-12.24-3.06-24.48-10.404-24.48-38.556
			c0-31.212,10.404-37.944,57.528-37.944h9.792c26.316,0,47.736-22.644,47.736-48.96s-21.42-48.96-47.736-48.96h-9.792
			c-9.792,0-15.911-1.224-18.972-2.448c0-6.12,0-11.016,0.612-14.076c1.224-0.612,3.06-1.224,6.731-2.448l1.225-0.612
			c1.836-0.612,39.779-20.196,47.735-60.588C460.224,153.036,516.528,230.148,516.528,319.5z M164.016,164.664
			c3.06,1.836,5.508,3.06,7.344,3.672c0,0,0.612,0,0.612,0.612c-0.612,12.24-3.672,17.136-7.956,23.256
			C159.12,198.936,153,208.116,153,223.416c-5.508,0.612-15.3,0.612-18.972,0.612c-5.508,0-11.016,1.224-16.524,3.06
			C128.52,203.22,144.432,182.412,164.016,164.664z M127.908,431.496c-19.584-30.6-31.212-67.32-32.436-105.876
			c10.404,8.568,24.48,12.852,37.944,12.852c8.568,0,22.644,4.896,29.988,10.404c3.672,3.06,8.568,6.12,8.568,28.152
			c0,10.404,0,15.912-31.824,42.84C136.476,422.928,132.192,427.212,127.908,431.496z M306,530.028
			c-60.588,0-115.668-25.704-154.224-67.32c4.896-5.508,9.18-9.792,13.464-13.464c33.048-28.152,44.676-43.452,44.676-72.216
			c0-29.376-6.732-45.9-23.868-58.752c-13.464-10.404-36.108-17.748-52.632-17.748c-18.972,0-18.972-13.464-18.972-18.972
			c0-13.464,14.688-18.972,18.972-18.972c21.42,0,36.72-0.612,47.736-12.24c6.732-6.731,9.792-15.3,9.792-26.316
			c0-3.06,0.612-4.284,4.284-9.792c6.12-8.568,14.688-21.42,14.688-47.124c0-14.076-6.12-22.032-12.852-26.928
			c31.824-18.972,68.544-29.988,108.324-29.988c12.852,0,25.704,1.224,37.944,3.672c-1.836,22.032-23.256,34.272-26.928,36.72
			c-28.152,11.016-29.988,24.48-29.988,56.916c0,23.256,22.644,39.78,57.528,39.78h9.792c5.508,0,9.792,3.672,9.792,9.18
			c0,5.508-4.284,7.956-9.792,7.956h-9.792c-33.66,0-95.472-1.224-95.472,75.276c0,22.644,6.732,62.424,52.02,75.276
			c8.567,2.448,15.3,28.765,20.195,45.9c1.837,5.508,3.061,11.628,4.896,17.136c8.568,29.376,29.376,33.048,37.332,33.048
			c18.972,0,33.048-17.748,50.184-63.036c11.017-29.376,21.42-64.26,25.704-85.68c2.448-11.628,2.448-22.644,2.448-31.212
			c0-3.06,0-7.956,0-11.016c4.896,0.612,7.956,4.284,15.3,17.136c8.568,14.688,22.032,36.72,51.408,39.78
			C483.48,464.544,402.084,530.028,306,530.028z"/>
	</g>
	<g display="none">
		<path display="inline" fill="#FFFFFF" d="M554.472,224.028c0-14.688-6.731-23.256-12.239-28.152
			c-12.24-11.016-32.437-14.076-66.708-9.792c-10.404,1.224-17.748,11.016-16.524,21.42c1.224,10.404,11.016,17.748,21.42,16.524
			c23.256-3.06,34.272-3.06,35.496,0c-2.448,6.732-20.196,22.032-47.124,39.78c-23.256-67.32-87.516-116.28-162.792-116.28
			c-86.292,0-157.896,63.648-170.136,146.88c-1.224,0.612-1.836,0.612-3.06,1.224C68.544,333.576,41.616,365.4,52.02,392.94
			c6.732,18.972,28.152,28.152,64.872,28.152c11.628,0,24.48-0.611,38.556-2.448c3.06-0.611,6.12-0.611,9.18-1.224
			c31.212,44.676,82.62,74.664,141.372,74.664c94.86,0,171.972-77.112,171.972-171.972c0-5.508,0-11.016-0.611-15.912
			C523.26,274.824,554.472,246.06,554.472,224.028z M181.152,274.212c3.06-7.344,9.792-12.24,17.748-12.24h144.432
			c9.792,0,18.972-7.344,19.584-17.136c1.224-11.628-7.956-20.808-18.972-20.808H225.216c-4.284,0-6.732-5.508-3.06-8.568
			c23.256-18.36,52.02-29.988,83.844-29.988c61.812,0,113.22,41.616,129.132,98.532c-9.792,5.508-20.196,11.016-31.212,16.524
			H211.14c-9.792,0-18.972,7.344-19.584,17.136c-1.224,11.628,7.956,20.808,18.972,20.808h102.816
			c-50.184,18.36-93.636,29.988-129.132,36.72c-7.956-17.136-12.24-35.496-12.24-55.692
			C171.972,303.588,175.644,288.288,181.152,274.212z M88.74,379.476c2.448-6.12,14.076-19.584,45.9-40.392
			c1.836,14.688,4.896,28.764,10.404,41.616C115.668,384.372,96.084,383.148,88.74,379.476z M306,453.528
			c-17.748,0-34.884-3.672-50.184-9.792c-4.896-1.836-3.672-9.181,1.836-9.181h86.292c9.792,0,18.972-7.344,19.584-17.136
			c1.224-11.628-7.956-20.808-18.973-20.808H260.1c23.256-6.732,47.124-14.076,70.992-23.256c27.54-9.792,55.08-21.42,81.396-34.272
			h20.195c3.061,0,5.509,2.448,4.896,5.508C425.952,406.404,371.484,453.528,306,453.528z"/>
	</g>
	<g display="none">
		<path display="inline" fill="#FFFFFF" d="M287.028,434.556v-86.292c0-5.508-4.284-9.792-9.792-9.792h-86.292
			c-11.016,0-20.196-9.792-18.972-20.808c1.224-9.792,9.792-17.136,19.584-17.136h85.068c5.508,0,9.792-4.284,9.792-9.792v-86.292
			c0-11.016,9.792-20.196,20.808-18.972c9.792,1.224,17.137,9.792,17.137,19.584v85.068c0,5.508,4.283,9.792,9.792,9.792h86.292
			c11.016,0,20.195,9.792,18.972,20.808c-1.224,9.792-9.792,17.136-19.584,17.136h-85.068c-5.508,0-9.792,4.284-9.792,9.792v85.068
			c0,9.792-7.344,18.973-17.136,19.584C296.208,454.14,287.028,445.572,287.028,434.556z M306,71.028
			c-137.088,0-248.472,111.384-248.472,248.472S168.912,567.972,306,567.972c62.424,0,122.4-23.256,168.912-66.096
			c7.956-7.344,7.956-18.972,1.224-26.928c-7.344-7.956-18.972-7.956-26.928-1.225c-39.168,36.108-89.964,56.305-142.596,56.305
			c-116.892,0-211.14-94.248-211.14-210.528S189.72,108.972,306,108.972c116.28,0,210.528,94.248,210.528,210.528
			c0,34.884-8.568,69.768-25.704,100.368c-4.896,9.18-1.836,20.808,7.344,25.704c9.18,4.896,20.808,1.836,25.704-7.345
			c19.584-36.107,29.988-77.111,29.988-118.728C554.472,182.412,443.088,71.028,306,71.028z"/>
	</g>
	<g display="none">
		<path display="inline" fill="#FFFFFF" d="M496.332,300.528h-312.12c-8.568,0-12.852-10.404-6.732-16.524l46.512-46.512
			c7.344-7.344,7.344-19.584,0-26.928c-7.344-7.344-19.584-7.344-26.928,0l-96.084,95.472c-7.344,7.344-7.344,19.584,0,26.928
			l94.86,94.86c3.672,3.672,8.568,5.508,13.464,5.508s9.792-1.836,13.464-5.508c7.344-7.344,7.344-19.584,0-26.929l-45.288-45.899
			c-6.12-6.12-1.836-16.524,6.732-16.524h313.344c11.017,0,20.196-9.792,18.973-20.808
			C515.304,307.872,506.124,300.528,496.332,300.528z"/>
	</g>
	<g display="none">
		<g display="inline">
			<path fill="#FFFFFF" d="M306,90C179.316,90,76.5,192.816,76.5,319.5C76.5,446.184,179.316,549,306,549
				c126.684,0,229.5-102.816,229.5-229.5C535.5,192.816,432.684,90,306,90z M333.54,130.392c6.12,0.612,9.792,7.344,7.344,12.852
				C334.764,156.708,321.3,166.5,306,166.5s-29.376-9.792-34.884-23.256c-2.448-5.508,1.224-12.24,7.344-12.852
				c9.18-1.224,18.36-1.836,27.54-1.836C315.18,128.556,324.36,129.168,333.54,130.392z M231.336,495.756
				c-18.972-7.956-36.108-18.972-51.408-32.436c-3.672-3.061-4.284-8.568-1.224-12.24c9.18-13.464,26.928-20.196,44.064-14.688
				c9.18,3.061,16.524,9.792,21.42,18.36c6.12,12.24,5.508,26.316-0.612,36.72C241.128,495.756,236.232,497.592,231.336,495.756z
				 M306,510.444c-4.896,0-10.404,0-15.3-0.612c-6.12-0.612-10.404-6.732-7.956-12.852c3.06-7.956,4.284-16.524,4.284-25.093
				c0-42.228-34.272-76.5-76.5-76.5c-20.808,0-39.78,8.568-53.856,22.644c-4.284,4.284-11.628,3.672-15.3-1.836
				c-17.136-28.764-26.316-61.812-26.316-97.308c0-74.664,42.84-139.536,105.876-171.36c4.896-2.448,11.628,0,13.464,5.508
				c10.404,29.376,39.168,50.796,72.216,50.796c33.048,0,61.812-21.42,72.216-50.796c1.836-5.508,7.956-7.956,13.464-5.508
				c62.424,31.212,105.876,96.084,105.876,171.36C496.944,424.764,411.264,510.444,306,510.444z"/>
			<path fill="#FFFFFF" d="M382.5,261.972c-42.229,0-76.5,34.272-76.5,76.5s34.271,76.5,76.5,76.5c42.228,0,76.5-34.271,76.5-76.5
				S424.728,261.972,382.5,261.972z M382.5,377.028c-20.808,0-37.944-17.136-37.944-37.944s17.137-37.944,37.944-37.944
				s37.944,17.136,37.944,37.944S403.308,377.028,382.5,377.028z"/>
			<path fill="#FFFFFF" d="M220.32,231.372c-9.18-5.508-20.808-2.448-26.316,6.732c-5.508,9.18-2.448,20.808,6.732,26.316
				c6.12,3.672,9.792,9.792,9.792,16.524c0,10.404-8.568,18.972-18.972,18.972c-3.672,0-6.732-0.612-9.792-2.448
				c-9.18-5.508-20.808-1.836-26.316,7.344c-5.508,9.18-1.836,20.808,7.344,26.316c8.568,4.896,18.36,7.344,28.764,7.344
				c31.824,0,57.528-25.704,57.528-57.528C248.472,260.748,237.456,241.776,220.32,231.372z"/>
		</g>
	</g>
	<g display="none">
		<path display="inline" fill="#FFFFFF" d="M419.832,337.86h-85.068h-57.528h-86.292c-11.016,0-20.196-8.568-18.972-20.196
			c1.224-9.792,9.792-16.524,19.584-16.524h85.068h57.528h86.292c11.016,0,20.195,8.568,18.972,20.196
			C438.804,331.128,429.624,337.86,419.832,337.86z M306,71.028c-137.088,0-248.472,111.384-248.472,248.472
			S168.912,567.972,306,567.972c62.424,0,122.4-23.256,168.912-66.096c7.956-7.344,7.956-18.972,1.224-26.928
			c-7.344-7.956-18.972-7.956-26.928-1.225c-39.168,36.108-89.964,56.305-142.596,56.305c-116.892,0-211.14-94.248-211.14-210.528
			S189.72,108.972,306,108.972c116.28,0,210.528,94.248,210.528,210.528c0,34.884-8.568,69.768-25.704,100.368
			c-4.896,9.18-1.836,20.808,7.344,25.704c9.18,4.896,20.808,1.836,25.704-7.345c19.584-36.107,29.988-77.111,29.988-118.728
			C554.472,182.412,443.088,71.028,306,71.028z"/>
	</g>
	<g display="none">
		<path display="inline" fill="#FFFFFF" d="M434.52,229.536c7.345,7.344,7.345,19.584,0,26.928l-153,153
			c-3.672,3.672-8.568,5.508-13.464,5.508s-9.792-1.836-13.464-5.508l-77.112-76.5c-7.344-7.344-7.344-19.584,0-26.928
			c7.344-7.344,19.584-7.344,26.928,0l63.036,63.036L406.98,229.536C414.936,222.192,426.564,222.192,434.52,229.536z M306,71.028
			c-137.088,0-248.472,111.384-248.472,248.472S168.912,567.972,306,567.972c62.424,0,122.4-23.256,168.912-66.096
			c7.956-7.344,7.956-18.972,1.224-26.928c-7.344-7.956-18.972-7.956-26.928-1.225c-39.168,36.108-89.964,56.305-142.596,56.305
			c-116.892,0-211.14-94.248-211.14-210.528S189.72,108.972,306,108.972c116.28,0,210.528,94.248,210.528,210.528
			c0,34.884-8.568,69.768-25.704,100.368c-4.896,9.18-1.836,20.808,7.344,25.704c9.18,4.896,20.808,1.836,25.704-7.345
			c19.584-36.107,29.988-77.111,29.988-118.728C554.472,182.412,443.088,71.028,306,71.028z"/>
	</g>
	<g display="none">
		<path display="inline" fill="#FFFFFF" d="M306,454.14v116.28 M324.36,567.972V453.528c0-10.404-7.956-18.973-18.36-18.973
			c-10.404,0-18.36,8.568-18.36,18.973v115.056c0,10.404,7.956,18.972,18.36,18.972C316.404,587.556,324.36,578.988,324.36,567.972z
			 M459,378.252c0-4.896-3.672-10.404-6.732-14.076l-72.827-89.352v-82.62l74.052-90.576c4.896-5.508,6.12-14.688,3.06-21.42
			c-3.06-6.732-9.18-12.24-16.523-12.24H171.972c-7.344,0-14.076,5.508-17.136,12.24s-3.672,15.3,0.612,20.808l70.992,91.188v82.008
			l-70.992,90.576c-4.896,5.508-4.896,15.3-1.836,22.032s10.404,12.24,17.748,12.24h268.056l0,0
			C450.432,399.06,459,389.268,459,378.252z M264.384,292.572c2.448-3.672,4.896-6.732,4.896-11.016v-96.084
			c0-4.284-2.448-7.344-4.896-11.016l-52.632-63.036h187.884l-52.632,63.648c-2.448,3.672-4.896,6.732-4.896,11.016v95.472
			c0,4.284,2.447,7.956,4.896,11.016l53.244,63.648H211.752L264.384,292.572z"/>
	</g>
	<g display="none">
		<path display="inline" fill="#FFFFFF" d="M373.32,414.36L306,347.04l-67.32,67.32c-7.956,7.956-20.808,7.344-28.152-1.225
			c-6.12-7.956-5.508-18.972,1.836-26.316l67.32-67.32l-67.32-67.32c-7.956-7.956-7.344-20.808,1.224-28.152
			c7.956-6.12,18.972-5.508,26.316,1.836l67.32,67.32l67.32-67.32c7.956-7.956,20.808-7.344,28.152,1.224
			c6.12,7.956,5.508,18.972-1.836,26.316l-67.32,67.32l67.32,67.32c7.344,7.344,7.956,18.36,1.836,26.316
			C394.74,421.704,381.276,422.316,373.32,414.36z M306,71.028c-137.088,0-248.472,111.384-248.472,248.472
			S168.912,567.972,306,567.972c62.424,0,122.4-23.256,168.912-66.096c7.956-7.344,7.956-18.972,1.224-26.928
			c-7.344-7.956-18.972-7.956-26.928-1.225c-39.168,36.108-89.964,56.305-142.596,56.305c-116.892,0-211.14-94.248-211.14-210.528
			S189.72,108.972,306,108.972c116.28,0,210.528,94.248,210.528,210.528c0,34.884-8.568,69.768-25.704,100.368
			c-4.896,9.18-1.836,20.808,7.344,25.704c9.18,4.896,20.808,1.836,25.704-7.345c19.584-36.107,29.988-77.111,29.988-118.728
			C554.472,182.412,443.088,71.028,306,71.028z"/>
	</g>
	<g display="none">
		<path display="inline" fill="#FFFFFF" d="M477.972,567.972H134.028c-10.404,0-18.972-8.567-18.972-18.972V90
			c0-10.404,8.568-18.972,18.972-18.972h213.588c15.3,0,29.988,6.12,40.392,16.524L491.436,190.98
			c5.509,5.508,7.345,13.464,4.284,20.808c-3.06,7.344-9.792,11.628-17.748,11.628H363.528c-10.404,0-18.973-8.568-18.973-18.972
			v-95.472H153v421.056h306V261.972c0-10.404,8.568-18.972,18.972-18.972c10.404,0,18.973,8.568,18.973,18.972V549
			C496.944,559.404,488.988,567.972,477.972,567.972z M382.5,185.472h49.572L382.5,135.9V185.472z"/>
	</g>
	<g display="none">
		<path display="inline" fill="#FFFFFF" d="M496.944,129.78h-95.473c0-30.6-25.704-61.2-57.527-61.2h-75.888
			c-31.824,0-57.528,30.6-57.528,61.2h-95.472c-10.404,0-18.972,7.956-18.972,18.36c0,10.404,8.568,18.36,18.972,18.36h382.5
			c10.404,0,18.973-7.956,18.973-18.36C516.528,137.736,507.96,129.78,496.944,129.78z M266.832,129.78
			c-11.628,0-13.464-17.136-1.836-18.36c0.612,0,1.836,0,2.448,0h76.5c0.611,0,1.836-0.612,2.447,0
			c11.628,1.224,9.792,18.36-1.836,18.36H266.832z M496.944,205.668l-18.973,345.168C477.36,561.24,469.404,570.42,459,570.42H153
			c-10.404,0-18.36-9.18-18.972-18.972l-18.972-344.556c-0.612-10.404,7.344-19.584,17.748-20.196
			c10.404-0.612,19.584,6.12,20.196,16.524l18.36,324.36h269.28L459,202.608c0.612-10.404,9.792-17.748,20.196-17.748
			C489.6,185.472,497.556,195.264,496.944,205.668z M306,491.472c-10.404,0-18.36-8.567-18.36-18.972V243
			c0-10.404,7.956-18.972,18.36-18.972c10.404,0,18.36,8.568,18.36,18.972v229.5C324.36,482.904,316.404,491.472,306,491.472z
			 M229.5,491.472c-10.404,0-21.42-8.567-21.42-18.972V261.972c0-10.404,11.016-18.972,21.42-18.972s21.42,8.568,21.42,18.972V472.5
			C250.92,482.904,239.904,491.472,229.5,491.472z M382.5,491.472c-10.404,0-21.42-8.567-21.42-18.972V261.972
			c0-10.404,11.016-18.972,21.42-18.972s21.42,8.568,21.42,18.972V472.5C403.92,482.904,392.904,491.472,382.5,491.472z"/>
	</g>
	<g display="none">
		<path display="inline" fill="#FFFFFF" d="M208.08,328.068L208.08,328.068c-1.836,1.836-3.06,3.672-3.672,5.508l-41.004,113.22
			c-1.224,3.672,2.448,7.344,6.12,6.12l113.22-41.004c2.448-1.224,4.284-2.448,5.508-3.672l0,0L517.14,179.352l-79.56-79.56
			L208.08,328.068z M436.356,153.648l25.703,25.704L265.608,375.804l-28.152,2.448l2.448-28.152L436.356,153.648z M496.944,527.58
			H115.056c-10.404,0-18.972-7.956-18.972-18.36c0-10.403,8.568-18.359,18.972-18.359h382.5c10.404,0,18.973,7.956,18.973,18.359
			C516.528,519.624,507.96,527.58,496.944,527.58z"/>
	</g>
	<g display="none">
		<path display="inline" fill="#FFFFFF" d="M459,309.708c-10.404,0-18.36,8.568-18.36,18.972v162.18H171.36V148.14H413.1
			L263.772,296.856l0,0c-1.836,1.836-3.06,3.672-3.672,5.508l-41.004,112.607c-1.224,3.672,2.448,7.345,6.12,6.12l113.22-41.004
			c2.448-1.224,4.284-2.448,5.509-3.672l0,0l228.888-228.888l-79.56-79.56l-43.452,44.676c-3.672-1.224-6.732-1.224-9.792-1.224H153
			c-10.404,0-18.36,6.12-18.36,17.136v382.5c0,10.404,7.956,17.137,18.36,17.137h306c10.404,0,18.36-6.12,18.36-17.137V329.292
			C477.36,318.276,469.404,309.708,459,309.708z M517.752,147.528L321.3,343.98l-27.54,2.448l2.448-28.152L492.66,121.824
			L517.752,147.528z"/>
	</g>
	<g display="none">
		<path display="inline" fill="#FFFFFF" d="M459,205.668l-18.972,345.168c-0.612,10.404-9.181,18.972-18.973,18.972H190.944
			c-10.404,0-18.36-9.18-18.972-18.972L153,206.28c-0.612-10.404,7.344-19.584,17.748-20.196
			c10.404-0.612,19.584,6.12,20.196,16.524l18.36,324.972h193.392l18.359-324.972c0.612-10.404,9.792-18.36,20.196-17.748
			C451.656,185.472,459.612,195.264,459,205.668z M287.64,472.5V243c0-10.404-7.956-18.972-18.36-18.972
			c-10.404,0-18.36,8.568-18.36,18.972v229.5c0,10.404,7.956,18.972,18.36,18.972C279.684,491.472,287.64,482.904,287.64,472.5z
			 M361.08,472.5V243c0-10.404-7.956-18.972-18.36-18.972c-10.403,0-18.359,8.568-18.359,18.972v229.5
			c0,10.404,7.956,18.972,18.359,18.972C353.124,491.472,361.08,482.904,361.08,472.5z M496.944,148.14
			c0,10.404-8.568,18.36-18.973,18.36H134.028c-10.404,0-18.972-7.956-18.972-18.36c0-10.404,8.568-18.36,18.972-18.36h76.5
			c0-30.6,25.704-61.2,57.528-61.2h76.5c31.824,0,57.528,30.6,57.528,61.2h76.5C488.988,129.78,496.944,137.736,496.944,148.14z
			 M367.2,120.6c0-4.896-4.284-9.18-9.181-9.18H260.1c-4.896,0-9.18,4.284-9.18,9.18l0,0c0,4.896,4.284,9.18,9.18,9.18h97.919
			C362.916,129.78,367.2,125.496,367.2,120.6L367.2,120.6z"/>
	</g>
	<g display="none">
		<g display="inline">
			<path fill="#FFFFFF" d="M516.528,147.528h-229.5c-10.404,0-18.972,8.568-18.972,18.972v37.944H95.472
				c-10.404,0-18.972,8.568-18.972,18.972v57.528c0,10.404,8.568,18.972,18.972,18.972H153v153h-37.944v-94.248
				c0-9.792-7.344-18.972-17.136-19.584c-11.628-1.224-20.808,7.956-20.808,18.972V472.5c0,10.404,8.568,18.972,18.972,18.972
				h419.832c9.792,0,18.972-7.344,19.584-17.136c1.224-11.628-7.956-20.808-18.972-20.808h-83.232c-4.284,0-6.12-4.896-3.06-7.956
				C447.984,428.436,459,403.956,459,377.028c0-26.928-11.016-50.796-28.764-68.544c-3.061-3.06-0.612-7.956,3.06-7.956h54.468
				c5.509,0,9.792,4.284,9.792,9.792v85.068c0,9.792,7.345,18.973,17.137,19.584C526.32,416.196,535.5,407.016,535.5,396V281.556
				V166.5C535.5,156.096,526.932,147.528,516.528,147.528z M115.056,261.972V243h171.972c10.404,0,18.972-8.568,18.972-18.972
				v-37.944h190.944v76.5H115.056V261.972z M363.528,434.556c-31.824,0-57.528-25.704-57.528-57.528s25.704-57.528,57.528-57.528
				c31.823,0,57.527,25.704,57.527,57.528S394.74,434.556,363.528,434.556z M268.056,377.028c0,26.928,11.016,50.796,28.764,68.544
				c3.06,3.06,0.612,7.956-3.06,7.956h-93.024c-5.508,0-9.792-4.284-9.792-9.792V309.708c0-5.508,4.284-9.792,9.792-9.792h92.412
				c4.284,0,6.12,4.896,3.06,7.956C279.072,325.62,268.056,350.1,268.056,377.028z"/>
			<path fill="#FFFFFF" d="M440.028,203.22h-76.5c-10.404,0-18.973,11.016-18.973,21.42c0,10.404,8.568,21.42,18.973,21.42h76.5
				c10.403,0,18.972-11.016,18.972-21.42C459,214.236,450.432,203.22,440.028,203.22z"/>
			<path fill="#FFFFFF" d="M134.028,184.86h76.5c10.404,0,18.972-7.956,18.972-18.36s-8.568-18.36-18.972-18.36h-76.5
				c-10.404,0-18.972,7.956-18.972,18.36S123.012,184.86,134.028,184.86z"/>
		</g>
	</g>
	<g display="none">
		<path display="inline" fill="#FFFFFF" d="M423.504,119.988l-13.464,13.464l-13.464,13.464l-257.04,257.04
			c-3.672,3.672-3.672,3.672-4.284,6.12l-41.616,113.22c-1.224,3.672,2.448,7.344,6.12,6.12l113.22-41.616
			c2.448-1.224,3.672,0,6.732-3.672l0.612,0.612l216.648-216.648c7.344-7.344,7.344-19.584,0-26.928
			c-7.344-7.344-19.584-7.344-26.928,0l-13.464,13.464l-10.404,10.404L197.676,454.14l-31.212,4.284l4.284-31.212l188.496-188.496
			l10.404-10.404l53.855-53.856l40.392,40.392c7.345,7.344,19.584,7.344,26.929,0l13.464-13.464
			c22.644-22.644,22.644-58.752,0-81.396C482.256,97.956,445.536,97.956,423.504,119.988z M477.36,174.456l-26.929-26.928
			c7.345-7.344,19.584-7.344,26.929,0C484.704,154.872,484.704,166.5,477.36,174.456z"/>
	</g>
	<g display="none">
		<path display="inline" fill="#FFFFFF" d="M306,567.972c-137.088,0-248.472-111.384-248.472-248.472S168.912,71.028,306,71.028
			S554.472,182.412,554.472,319.5S443.088,567.972,306,567.972z M306,108.972c-116.28,0-210.528,94.248-210.528,210.528
			S189.72,530.028,306,530.028c116.28,0,210.528-94.248,210.528-210.528S422.28,108.972,306,108.972z M414.936,428.436
			c7.345-7.344,7.345-19.584-0.611-26.928l-89.964-89.964v-107.1c0-10.404-7.956-18.972-18.36-18.972
			c-10.404,0-18.36,8.568-18.36,18.972V319.5c0,4.896,1.836,9.792,5.508,13.464l95.472,95.472c3.672,3.673,8.567,5.509,13.464,5.509
			C406.979,433.944,411.264,432.108,414.936,428.436z"/>
	</g>
	<g display="none">
		<path display="inline" fill="#FFFFFF" d="M516.528,527.58H95.472c-10.404,0-22.032-6.12-22.032-17.136v-306
			c0-10.404,11.628-19.584,22.032-19.584h76.5c10.404,0,17.748,9.18,17.748,19.584v229.5c0,10.403-7.956,18.972-18.36,18.972
			c-10.404,0-18.36-8.568-18.36-18.972V221.58h-36.72v269.28h379.44V221.58h-94.248c-10.403,0-22.031-6.12-22.031-17.136V148.14H306
			v56.304c0,10.404-8.568,17.136-18.972,17.136h-37.944c-10.404,0-18.972-7.956-18.972-18.36c0-10.404,8.568-18.36,18.972-18.36
			h20.196v-56.304c0-10.404,6.732-17.136,17.748-17.136h115.056c10.404,0,20.808,6.12,20.808,17.136v56.304h94.248
			c10.404,0,15.912,9.18,15.912,19.584v306C532.44,521.46,526.932,527.58,516.528,527.58z M171.972,148.14
			c0-10.404-8.568-18.36-18.972-18.36h-37.944c-10.404,0-18.972,7.956-18.972,18.36c0,10.404,8.568,18.36,18.972,18.36H153
			C163.404,166.5,171.972,158.544,171.972,148.14z M535.5,148.14c0-10.404-8.568-18.36-18.972-18.36h-37.944
			c-10.404,0-18.972,7.956-18.972,18.36c0,10.404,8.567,18.36,18.972,18.36h37.944C526.932,166.5,535.5,158.544,535.5,148.14z
			 M459,357.444c0-63.036-51.408-115.056-115.056-115.056c-63.648,0-115.056,51.408-115.056,115.056S280.908,472.5,343.944,472.5
			S459,421.092,459,357.444z M421.056,357.444c0,42.228-34.271,76.5-76.5,76.5c-42.228,0-76.5-34.272-76.5-76.5
			s34.272-76.5,76.5-76.5C386.784,280.944,421.056,315.828,421.056,357.444z"/>
	</g>
	<g display="none">
		<path display="inline" fill="#FFFFFF" d="M496.944,129.78H459v36.72h36.72v36.72H116.28V166.5H153v-36.72h-37.944
			c-20.808,0-41.616,15.912-41.616,36.72v343.944c0,20.808,20.196,41.615,41.616,41.615h382.5c20.809,0,35.496-20.195,35.496-41.615
			V166.5C532.44,145.692,518.364,129.78,496.944,129.78z M495.72,509.22H116.28V246.06h379.44V509.22z M208.08,184.86h-36.72V68.58
			h36.72v61.2h79.56v-61.2h36.72v61.2h79.56v-61.2h36.72v116.28h-36.72V166.5h-79.56v18.36h-36.72V166.5h-79.56V184.86z
			 M226.44,356.22H153v-73.44h73.44V356.22z M342.72,356.22h-73.44v-73.44h73.44V356.22z M459,356.22h-79.56v-73.44H459V356.22z
			 M226.44,472.5H153v-73.44h73.44V472.5z M342.72,472.5h-73.44v-73.44h73.44V472.5z M459,472.5h-79.56v-73.44H459V472.5z"/>
	</g>
	<g display="none">
		<path display="inline" fill="#FFFFFF" d="M539.172,220.356c22.032-18.36,34.272-45.288,34.272-72.828
			c0-52.632-42.841-95.472-95.473-95.472c-28.151,0-54.468,12.852-72.828,34.272c-6.731,7.956-5.508,20.196,2.448,26.928
			s20.196,5.508,26.928-2.448C445.536,97.344,461.448,90,478.584,90c31.824,0,57.528,25.704,57.528,57.528
			c0,16.524-7.345,32.436-20.809,44.064c-7.956,6.732-9.18,18.972-2.448,26.928c3.673,4.284,9.181,6.732,14.688,6.732
			C531.216,224.64,535.5,223.416,539.172,220.356z M97.308,217.296c6.732-7.956,6.12-20.196-1.836-26.928
			c-12.852-11.016-20.196-26.316-20.196-42.84C75.276,115.704,100.98,90,132.804,90c16.524,0,32.436,7.344,44.064,20.808
			c6.732,7.956,18.972,9.18,26.928,2.448s9.18-18.972,2.448-26.928c-18.36-22.032-45.288-34.272-72.828-34.272
			c-52.632,0-95.472,42.84-95.472,95.472c0,27.54,12.24,53.856,33.048,71.604c3.672,3.06,7.956,4.896,12.24,4.896
			C88.128,224.028,93.636,221.58,97.308,217.296z M496.944,319.5c0-105.264-85.681-190.944-190.944-190.944
			c-105.264,0-190.944,85.68-190.944,190.944c0,105.264,85.68,190.944,190.944,190.944
			C411.264,510.444,496.944,424.764,496.944,319.5z M459,319.5c0,84.456-68.544,153-153,153s-153-68.544-153-153s68.544-153,153-153
			S459,235.044,459,319.5z M324.36,319.5V243c0-10.404-7.956-18.972-18.36-18.972c-10.404,0-18.36,8.568-18.36,18.972v58.14h-19.584
			c-10.404,0-18.972,7.956-18.972,18.36s8.568,18.36,18.972,18.36H306C316.404,337.86,324.36,329.904,324.36,319.5z
			 M130.968,578.988l37.944-57.528c6.12-8.568,3.672-20.808-5.508-26.316c-8.568-6.119-20.808-3.672-26.316,5.509L99.144,558.18
			c-6.12,8.568-3.672,20.809,5.508,26.316c3.06,2.448,6.732,3.06,10.404,3.06C121.176,587.556,126.684,584.496,130.968,578.988z
			 M507.96,583.884c8.568-6.12,11.016-17.748,5.508-26.315l-37.943-57.528c-6.12-8.568-17.748-11.017-26.316-5.508
			c-8.568,6.12-11.016,17.748-5.508,26.315l37.943,57.528c3.673,5.508,9.792,8.568,15.912,8.568
			C500.616,587.556,504.9,586.332,507.96,583.884z"/>
	</g>
	<g display="none">
		<path display="inline" fill="#FFFFFF" d="M496.944,530.028H115.056c-20.808,0-37.944-17.137-37.944-37.944V224.028
			c0-20.808,17.136-37.944,37.944-37.944h57.528c10.404,0,18.972-8.568,18.972-18.972c0-31.824,25.704-57.528,57.528-57.528H364.14
			c31.824,0,57.528,25.704,57.528,57.528c0,10.404,8.568,18.972,18.972,18.972h57.528c20.808,0,37.944,17.136,37.944,37.944v268.056
			C535.5,512.892,518.364,530.028,496.944,530.028z M115.056,224.028v268.056h382.5V224.028h-57.527
			c-31.824,0-57.528-25.704-57.528-57.528c0-10.404-8.568-18.972-18.972-18.972H248.472c-10.404,0-18.972,8.568-18.972,18.972
			c0,31.824-25.704,57.528-57.528,57.528H115.056L115.056,224.028z M348.84,444.96c9.792-3.672,14.688-15.3,10.404-25.092
			s-15.3-14.688-25.092-10.404c-9.181,3.672-18.973,5.508-28.152,5.508c-42.228,0-76.5-34.271-76.5-76.5s34.272-76.5,76.5-76.5
			c42.228,0,76.5,34.272,76.5,76.5c0,9.792-1.836,18.972-5.508,28.152c-3.672,9.792,0.611,20.808,10.404,25.092
			c9.791,3.672,20.808-0.612,25.092-10.404c5.508-14.076,8.567-28.152,8.567-42.84c0-63.036-51.407-115.056-115.056-115.056
			c-63.648,0-115.056,51.408-115.056,115.056S242.964,453.528,306,453.528C320.688,453.528,334.764,450.468,348.84,444.96z"/>
	</g>
	<g display="none">
		<path display="inline" fill="#FFFFFF" d="M434.52,109.584l-12.239,12.24c-71.604-42.228-161.568-42.228-233.172,0l-11.628-12.24
			c-11.016-11.016-29.376-11.016-40.392,0l-40.392,40.392c-11.016,11.016-11.016,29.376,0,40.392l11.628,11.628
			c-42.228,71.604-42.228,161.568,0,233.172l-12.24,12.852c-11.016,11.017-11.016,29.377,0,40.393l40.392,40.392
			c11.016,11.017,29.376,11.017,40.392,0l11.628-11.628c71.604,42.229,161.568,42.229,233.172,0l11.628,11.628
			c11.016,11.017,29.376,11.017,40.392,0l40.393-40.392c11.016-11.017,11.016-29.376,0-40.393l-10.404-12.239
			c42.229-71.604,42.229-161.568,0-233.172l11.628-11.628c11.017-11.016,11.017-29.376,0-40.392l-40.392-40.392
			C463.896,98.568,445.536,98.568,434.52,109.584z M384.948,159.768l-29.988,29.376c-2.448,2.448-6.12,3.06-9.792,2.448
			c-25.704-7.956-53.244-7.956-78.948,0c-3.672,1.224-7.344,0-9.792-2.448l-29.988-29.988c-4.896-4.896-3.06-12.852,3.06-15.3
			c48.348-20.808,103.428-20.808,151.776,0C388.008,146.916,389.844,154.872,384.948,159.768z M373.32,386.82
			c-36.721,37.333-97.92,37.333-134.64,0c-36.72-37.332-37.332-97.92,0-134.64c37.332-36.72,97.919-37.332,135.251,0
			S410.652,350.1,373.32,386.82z M157.284,143.856l68.544,68.544c-4.896,3.672-9.792,7.956-14.688,12.24
			c-4.896,4.284-8.568,9.18-12.24,14.688l-68.544-68.544L157.284,143.856z M146.268,240.552l29.988,29.988
			c2.448,2.448,3.06,6.12,2.448,9.792c-7.956,25.704-7.956,53.244,0,78.948c1.224,3.672,0,7.344-2.448,9.792l-29.988,29.988
			c-4.896,4.896-12.852,3.061-15.3-3.06c-20.808-48.348-20.808-103.428,0-151.776C133.416,237.492,141.372,235.656,146.268,240.552z
			 M130.356,468.216l68.544-68.544c3.672,4.896,7.956,9.792,12.24,14.688c4.896,4.896,9.18,8.567,14.688,12.239l-68.544,68.544
			L130.356,468.216z M227.052,479.232l29.988-29.988c2.448-2.448,6.12-3.061,9.792-2.448c25.704,7.956,53.244,7.956,78.948,0
			c3.672-1.224,7.344,0,9.792,2.448l29.987,29.988c4.896,4.896,3.061,12.852-3.06,15.3c-48.348,20.808-103.428,20.808-151.776,0
			C223.992,492.084,222.156,484.128,227.052,479.232z M454.716,495.144L386.172,426.6c4.896-3.672,9.792-7.956,14.688-12.239
			c4.896-4.896,8.567-9.181,12.239-14.688l68.544,68.544L454.716,495.144z M465.732,398.448l-29.376-29.988
			c-2.448-2.448-3.061-6.12-2.448-9.792c7.956-25.704,7.956-53.244,0-78.948c-1.225-3.672,0-7.344,2.448-9.792l29.987-29.988
			c4.896-4.896,12.853-3.06,15.3,3.06c20.809,48.348,20.809,103.428,0,151.776C478.584,401.508,470.628,403.344,465.732,398.448z
			 M481.644,170.784L413.1,239.328c-3.672-4.896-7.956-9.792-12.239-14.688c-4.896-4.896-9.181-8.568-14.688-12.24l68.544-68.544
			L481.644,170.784z"/>
	</g>
	<g display="none">
		<path display="inline" fill="#FFFFFF" d="M363.528,337.86c0,10.404-8.568,18.36-18.973,18.36H306
			c-10.404,0-18.36-6.732-18.36-17.748v-76.5c0-10.404,7.956-18.972,18.36-18.972c10.404,0,18.36,8.568,18.36,18.972V319.5h19.584
			C354.96,319.5,363.528,327.456,363.528,337.86z M382.5,510.444c-10.404,0-21.42,8.567-21.42,18.972v37.944
			c0,10.403,11.016,18.972,21.42,18.972s21.42-8.568,21.42-18.972v-37.944C403.92,519.012,392.904,510.444,382.5,510.444z
			 M487.764,281.556c-2.447,0-4.896,0.612-7.344,1.836c-3.06,1.224-4.896,0-5.508-3.06c-10.404-42.84-40.393-79.56-70.992-102.816
			V71.028c0-11.016-11.628-20.196-23.256-18.972c-9.792,0.612-19.584,9.792-19.584,19.584v72.828c0,6.12-4.896,11.016-11.016,9.18
			c-14.688-3.672-28.765-6.12-44.676-6.12c-15.912,0-29.376,1.836-44.064,6.12c-6.12,1.836-11.016-3.06-11.016-9.18v-73.44
			c0-11.016-11.628-20.196-23.256-18.972c-9.18,0.612-18.972,9.792-18.972,19.584v104.652c-42.84,31.212-76.5,83.844-76.5,143.208
			c0,59.364,33.66,111.996,76.5,143.208v105.876c0,11.016,11.628,20.196,23.256,18.972c9.792-1.224,19.584-9.792,19.584-19.584
			v-73.439c0-6.12,4.896-11.017,11.016-9.181c18.972,5.509,39.168,7.345,60.588,5.509c74.052-6.732,134.64-61.2,151.163-131.581
			c0.612-3.06,3.673-4.284,6.732-3.06c1.836,1.224,4.896,1.224,7.344,1.836c11.017,0.612,20.196-9.18,20.196-20.196v-36.72
			C507.96,290.736,498.78,280.944,487.764,281.556z M306,453.528c-74.052,0-134.028-59.977-134.028-134.028
			S231.948,185.472,306,185.472S440.028,245.448,440.028,319.5S380.052,453.528,306,453.528z"/>
	</g>
	<g display="none">
		<g display="inline">
			<path fill="#FFFFFF" d="M525.708,185.472H411.264c-5.508,0-9.792-4.284-9.792-9.792v-28.764c0-21.42-17.136-37.944-37.943-37.944
				H248.472c-21.42,0-37.944,17.136-37.944,37.944v28.764c0,5.508-4.284,9.792-9.792,9.792h-28.764h-37.944H86.292
				c-15.912,0-28.764,12.852-28.764,28.764v287.028c0,15.912,12.852,28.765,28.764,28.765H526.32
				c15.912,0,28.764-12.853,28.764-28.765V214.236C554.472,198.324,541.62,185.472,525.708,185.472z M253.368,147.528h105.264
				c2.448,0,4.896,1.836,4.896,4.896v33.66H248.472v-33.66C248.472,149.364,250.92,147.528,253.368,147.528z M440.64,221.58v102.816
				c-42.84,21.42-88.128,33.048-134.64,33.048c-46.512,0-91.8-11.628-134.64-33.048V221.58H440.64z M97.92,490.86V221.58h36.72
				v269.28H97.92z M171.36,367.236C214.2,386.208,259.488,396,306,396c46.512,0,91.8-9.792,134.64-28.764V490.86H171.36V367.236z
				 M514.08,490.86h-36.72V221.58h36.72V490.86z"/>
			<rect x="287.64" y="264.42" fill="#FFFFFF" width="36.72" height="55.08"/>
		</g>
	</g>
	<g display="none">
		<g display="inline">
			<path fill="#FFFFFF" d="M430.236,300.528H239.292c-5.508,0-9.792-4.284-9.792-9.792v-83.844c0-41.004,31.824-76.5,72.828-78.336
				c44.063-2.448,80.172,33.048,80.172,76.5v37.332c0,9.792,7.344,18.972,17.136,19.584c11.628,1.224,20.809-7.956,20.809-18.972
				v-35.496c0-64.26-52.632-118.728-116.892-117.504c-61.812,1.224-112.608,52.02-112.608,114.444v86.292
				c0,5.508-4.284,9.792-9.792,9.792l0,0c-15.912,0-28.764,12.852-28.764,28.764V539.82c0,15.912,12.852,28.764,28.764,28.764
				h248.472c15.912,0,28.764-12.852,28.764-28.764V329.292C459,313.38,446.148,300.528,430.236,300.528z M416.16,530.028H195.84
				c-2.448,0-4.896-1.836-4.896-4.896V343.368c0-2.448,1.836-4.896,4.896-4.896h220.32c2.448,0,4.896,1.836,4.896,4.896v181.764
				C421.056,527.58,418.608,530.028,416.16,530.028z"/>
			<path fill="#FFFFFF" d="M306,396L306,396c-10.404,0-18.972,8.568-18.972,18.972V472.5h37.944v-57.528
				C324.972,404.568,316.404,396,306,396z"/>
		</g>
	</g>
	<g display="none">
		<path display="inline" fill="#FFFFFF" d="M363.528,337.86c0,10.404-8.568,18.36-18.973,18.36H306
			c-10.404,0-18.36-6.732-18.36-17.748v-57.528c0-10.404,7.956-18.972,18.36-18.972c10.404,0,18.36,8.568,18.36,18.972V319.5h19.584
			C354.96,319.5,363.528,327.456,363.528,337.86z M495.72,243v57.528c0,10.404-6.731,18.972-17.748,18.972H459v95.472
			c0,29.376-16.524,55.08-41.004,67.933l-0.612,4.283c-9.18,18.36-12.852,39.168-12.852,59.977v21.42
			c0,5.508-3.672,10.404-7.344,14.076c-3.061,2.448-29.376,23.868-89.965,23.868c-59.364,0-87.516-21.42-89.963-23.868
			c-4.284-3.672-7.956-9.18-7.956-14.688v-21.42c0-20.808-3.672-41.616-12.852-59.976l-1.224-4.284
			c-24.48-12.852-40.392-38.556-40.392-67.932V224.028c0-29.376,16.524-55.08,41.004-67.932l0.612-4.284
			c9.18-18.36,12.852-39.168,12.852-59.976V71.028c0-4.896,3.06-9.792,6.732-13.464c4.284-4.284,28.152-24.48,90.576-24.48
			c62.424,0,87.516,20.808,91.188,24.48c2.448,3.672,6.12,7.956,6.12,13.464v21.42c0,20.808,3.672,41.616,12.852,59.976l1.225,3.06
			C443.088,167.724,459,197.1,459,221.58h18.972C488.988,221.58,495.72,232.596,495.72,243z M250.92,91.836
			c0,14.688-3.06,29.376-6.732,43.452c-1.836,6.12,1.836,12.24,7.956,12.24h107.712c6.119,0,9.792-6.12,7.956-12.24
			c-3.673-14.076-6.732-28.764-6.732-43.452V80.82c-6.12-4.284-23.868-10.404-55.08-10.404s-48.96,6.12-55.08,10.404V91.836
			L250.92,91.836z M361.08,547.164c0-14.688,3.06-29.376,6.731-43.452c1.837-6.12-1.836-12.24-7.955-12.24H252.144
			c-6.12,0-9.792,6.12-7.956,12.24c3.672,14.076,6.732,28.764,6.732,43.452v10.404c6.12,4.283,25.092,11.016,55.08,11.016
			c29.988,0,48.96-6.12,55.08-10.404V547.164z M422.28,222.804c0-21.42-17.137-37.944-37.944-37.944H227.664
			c-21.42,0-37.944,17.136-37.944,37.944v192.78c0,21.42,17.136,37.944,37.944,37.944h156.06c21.42,0,37.944-17.137,37.944-37.944
			v-192.78H422.28z"/>
	</g>
	<g display="none">
		<g display="inline">
			<rect x="403.92" y="337.86" fill="#FFFFFF" width="36.72" height="36.72"/>
			<path fill="#FFFFFF" d="M511.632,261.972h-14.076v-66.708c0-15.912-12.852-28.764-28.764-28.764H134.64
				c-9.792,0-18.972-7.344-19.584-17.136c-1.224-11.628,7.956-20.808,18.972-20.808h324.36c9.792,0,18.973-7.344,19.584-17.136
				c1.225-11.628-7.956-20.808-18.972-20.808H135.252c-29.988,0-55.692,22.032-58.752,52.02
				c-3.06,34.272,23.868,63.036,56.916,63.036H459v47.736c0,5.508-4.284,9.792-9.792,9.792H403.92
				c-52.02,0-96.084,40.392-97.92,91.8c-1.836,54.468,41.616,99.144,95.472,99.144h47.736c5.508,0,9.792,4.284,9.792,9.792v47.736
				H115.056V243.612c0-9.792-7.344-18.972-17.136-19.584c-11.628-1.224-20.808,7.956-20.808,18.972v277.236
				c0,15.912,12.852,28.764,28.764,28.764h363.528c15.912,0,28.764-12.852,28.764-28.764v-66.708h14.076
				c13.464,0,23.868-10.404,23.868-23.868V285.84C535.5,272.988,525.096,261.972,511.632,261.972z M492.66,414.972h-89.353
				c-29.987,0-55.691-22.032-58.752-52.02c-3.06-34.272,23.868-63.036,56.916-63.036h90.576c2.448,0,4.896,1.836,4.896,4.896
				v105.264C496.944,413.136,495.108,414.972,492.66,414.972z"/>
		</g>
	</g>
	<g display="none">
		<path display="inline" fill="#FFFFFF" d="M134.028,417.42c0-10.404,8.568-18.36,18.972-18.36h76.5
			c10.404,0,18.972,7.956,18.972,18.36s-8.568,18.36-18.972,18.36H153C142.596,435.78,134.028,427.824,134.028,417.42z M306,435.78
			h37.944c10.403,0,18.972-7.956,18.972-18.36s-8.568-18.36-18.972-18.36H306c-10.404,0-18.972,7.956-18.972,18.36
			S295.596,435.78,306,435.78z M440.028,435.78H459c10.404,0,18.972-7.956,18.972-18.36s-8.567-18.36-18.972-18.36h-18.972
			c-10.404,0-18.973,7.956-18.973,18.36S429.012,435.78,440.028,435.78z M556.92,185.472v14.076v4.896v18.972v14.076v263.16
			c0,15.912-15.3,26.315-31.212,26.315H86.292c-15.912,0.612-31.212-9.792-31.212-25.704v-263.16v-14.076v-18.972v-9.792v-9.792
			c0-31.212,28.152-55.692,59.976-55.692h382.5C528.768,129.78,556.92,154.26,556.92,185.472z M514.08,301.14H97.92v189.72h416.16
			V301.14z M514.08,200.16v-14.076c0-10.404-6.12-18.972-17.136-18.972H115.056c-11.016-0.612-17.136,7.956-17.136,18.36v9.792
			v9.792v16.524h416.16v-17.136V200.16z"/>
	</g>
</g>
</svg>
