<?xml version="1.0" encoding="utf-8"?>
<!-- Generator: Adobe Illustrator 16.0.0, SVG Export Plug-In . SVG Version: 6.00 Build 0)  -->
<!DOCTYPE svg PUBLIC "-//W3C//DTD SVG 1.1//EN" "http://www.w3.org/Graphics/SVG/1.1/DTD/svg11.dtd">
<svg version="1.1" id="Layer_1" xmlns="http://www.w3.org/2000/svg" xmlns:xlink="http://www.w3.org/1999/xlink" x="0px" y="0px"
	 width="51.945px" height="68.758px" viewBox="0 0 51.945 68.758" enable-background="new 0 0 51.945 68.758" xml:space="preserve">
<g>
	<g>
		
			<rect x="28.982" y="13.371" transform="matrix(0.8784 0.4778 -0.4778 0.8784 16.9965 -12.719)" fill="#FFFFFF" width="9.033" height="27.353"/>
		<g>
			<path fill="#FFFFFF" d="M31.875,39.6c-2.645-1.438-5.29-2.878-7.935-4.316c0.224,0.855,0.449,1.71,0.673,2.565
				c4.358-8.009,8.715-16.018,13.074-24.026c-0.855,0.224-1.71,0.449-2.565,0.673c2.645,1.439,5.29,2.878,7.935,4.318
				c-0.225-0.855-0.448-1.71-0.673-2.565c-4.357,8.008-8.716,16.016-13.073,24.025c-1.156,2.124,2.082,4.017,3.238,1.893
				c4.357-8.008,8.716-16.017,13.073-24.025c0.477-0.876,0.244-2.066-0.673-2.565c-2.645-1.439-5.29-2.878-7.935-4.318
				c-0.876-0.477-2.066-0.245-2.565,0.673c-4.357,8.009-8.716,16.018-13.074,24.026c-0.477,0.876-0.245,2.066,0.673,2.565
				c2.645,1.438,5.29,2.878,7.935,4.316C32.107,43.994,34,40.756,31.875,39.6z"/>
		</g>
	</g>
	<g>
		<polygon fill="#FFFFFF" points="28.422,45.465 19.412,52.934 20.79,41.313 		"/>
		<g>
			<path fill="#FFFFFF" d="M27.096,44.139c-3.003,2.49-6.007,4.979-9.01,7.469c1.067,0.442,2.134,0.884,3.201,1.326
				c0.459-3.874,0.918-7.747,1.378-11.621c-0.94,0.54-1.881,1.079-2.821,1.619c2.544,1.384,5.088,2.769,7.632,4.152
				c2.125,1.155,4.018-2.082,1.893-3.238c-2.544-1.384-5.088-2.769-7.632-4.152c-1.354-0.736-2.656,0.223-2.821,1.619
				c-0.459,3.874-0.918,7.747-1.378,11.621c-0.214,1.806,2.107,2.232,3.201,1.326c3.003-2.49,6.007-4.979,9.011-7.469
				C31.611,45.247,28.943,42.609,27.096,44.139z"/>
		</g>
	</g>
	<g>
		
			<rect x="39.826" y="3.575" transform="matrix(0.8784 0.4779 -0.4779 0.8784 8.8594 -20.2672)" fill="#FFFFFF" width="8.862" height="7.403"/>
		<g>
			<path fill="#FFFFFF" d="M47.326,11.026c-2.595-1.412-5.189-2.823-7.784-4.235c0.225,0.855,0.448,1.71,0.673,2.565
				c1.18-2.167,2.359-4.335,3.539-6.502c-0.855,0.224-1.71,0.449-2.565,0.673c2.595,1.412,5.188,2.823,7.783,4.235
				c-0.225-0.855-0.448-1.71-0.673-2.565c-1.18,2.167-2.358,4.335-3.538,6.502c-1.156,2.125,2.082,4.017,3.238,1.893
				c1.18-2.167,2.358-4.335,3.538-6.502c0.477-0.876,0.244-2.066-0.673-2.565C48.27,3.112,45.676,1.7,43.081,0.288
				c-0.876-0.477-2.066-0.244-2.565,0.673c-1.18,2.167-2.359,4.335-3.539,6.502c-0.477,0.876-0.244,2.066,0.673,2.565
				c2.595,1.412,5.189,2.823,7.784,4.235C47.559,15.42,49.451,12.182,47.326,11.026z"/>
		</g>
	</g>
</g>
<polygon fill="#FFFFFF" points="35.258,44.187 35.258,60.602 8.155,60.602 8.155,33.5 19.802,33.5 24.298,25.345 0,25.345 0,68.758 
	43.413,68.758 43.413,29.393 "/>
</svg>
