<?xml version="1.0" encoding="utf-8"?>
<!-- Generator: Adobe Illustrator 16.0.0, SVG Export Plug-In . SVG Version: 6.00 Build 0)  -->
<!DOCTYPE svg PUBLIC "-//W3C//DTD SVG 1.1//EN" "http://www.w3.org/Graphics/SVG/1.1/DTD/svg11.dtd">
<svg version="1.1" id="Calque_1" xmlns="http://www.w3.org/2000/svg" xmlns:xlink="http://www.w3.org/1999/xlink" x="0px" y="0px"
	 width="1420.598px" height="330.48px" viewBox="0 0 1420.598 330.48" enable-background="new 0 0 1420.598 330.48"
	 xml:space="preserve">
<path fill="#355F95" d="M504.895,116.892c-18.972,0-36.72,4.896-52.021,13.465c-9.791-14.688-19.584-29.376-29.375-43.452
	c4.283-7.345,8.567-14.688,12.852-22.645c6.12,3.061,12.24,5.509,18.972,8.568c4.284,1.836,10.404,0,10.404-6.12
	c0-10.404,0-20.808,0-31.824c0-1.836-0.612-3.06-1.836-4.284c0,0,0-0.612-0.612-0.612c0,0-0.611,0-0.611-0.611
	c-1.225-1.225-2.449-1.836-4.285-1.836c-23.867,0-47.735,0-71.604,0c-6.12,0-9.792,9.792-3.672,12.852
	c12.24,5.508,23.868,10.404,36.107,15.912c-4.283,7.345-9.18,15.301-13.463,22.645c-67.933,0-135.865,0-204.409,0
	c6.12-9.18,12.852-20.196,7.956-29.376c-3.06-5.508-5.508-10.404-7.956-15.912c-1.836-4.284-3.672-8.568-4.896-12.853
	c-0.612-1.224-0.612-1.836-0.612-2.447h14.076c12.24,0,23.868,0,36.108,0c4.896,0,9.792,0,14.688,0c11.628,0,11.628-18.36,0-18.36
	c-20.196,0-40.392,0-61.2,0c-12.24,0-22.644,0-23.256,14.688c-0.612,13.464,9.792,29.375,15.912,40.392
	c0,0.612,0.612,0.612,0.612,0.612c-1.224,2.447-3.06,5.508-4.284,7.956c-11.628,20.808-23.256,41.004-35.496,61.812
	c-14.076-6.732-29.376-10.404-45.288-10.404c-59.364,0-107.712,48.349-107.712,107.713c0,59.363,48.348,107.712,107.712,107.712
	c59.364,0,107.712-48.349,107.712-107.712c0-36.721-18.36-69.156-46.512-88.74c4.896-8.568,9.792-16.524,14.076-25.092
	c40.392,32.436,80.172,64.871,120.564,97.92c-4.284,5.508-6.732,12.239-6.732,19.584c0,18.359,14.688,33.048,33.048,33.048
	c1.225,0,1.836,0,3.061-0.612l0,0l67.319-7.956c12.853,45.288,54.468,78.948,104.04,78.948c59.364,0,107.712-48.348,107.712-107.712
	C612.606,165.24,564.259,116.892,504.895,116.892z M198.282,224.604c0,49.572-40.392,89.352-89.352,89.352
	s-89.353-40.392-89.353-89.352s40.393-89.353,89.353-89.353c12.852,0,25.092,3.061,36.108,7.956
	c-12.24,22.032-25.092,43.452-37.333,65.484c-8.567,0.611-15.912,7.956-15.912,16.523c0,9.181,7.344,16.524,16.524,16.524
	c9.18,0,16.524-7.344,16.524-16.524c0-2.447-0.612-5.508-1.836-7.344c12.24-22.032,25.092-43.452,37.332-65.484
	C182.982,168.3,198.282,194.616,198.282,224.604z M447.979,155.448c11.017,17.136,22.644,33.66,33.66,50.796l-63.648-4.284
	C422.887,182.988,433.29,167.076,447.979,155.448z M399.63,200.124l-41.004-3.06c18.36-31.212,36.108-62.425,54.469-93.636
	c7.955,12.239,15.912,24.479,24.479,36.107C419.214,155.448,405.139,176.257,399.63,200.124z M339.042,195.841l-7.955-0.612
	c-3.672,0-7.345,0.612-11.017,1.836c-41.004-33.048-82.008-66.708-123.012-99.756c66.708,0,132.804,0,199.512,0
	C376.986,130.356,358.015,163.404,339.042,195.841z M504.895,313.956c-40.392,0-74.052-26.315-85.681-63.035l85.681-9.793
	c9.18,0,16.524-7.344,16.524-16.523s-7.345-16.524-16.524-16.524l0,0c-14.076-20.808-27.54-41.616-41.616-62.424
	c12.24-6.732,26.928-10.404,41.616-10.404c49.571,0,89.352,40.392,89.352,89.353C594.246,274.177,554.466,313.956,504.895,313.956z"
	/>
<g>
	<g>
		<path fill="#355F95" d="M797.787,143.25c-9.915-3.306-52.405-16.997-73.179-24.078c-10.858,27.383-67.041,176.1-47.684,201.594
			c21.245,28.328,98.2-4.722,120.39,0s19.829-10.858,19.829-10.858L797.787,143.25z"/>
		<path fill="#355F95" d="M854.441,59.685c-5.666-8.026-39.187-6.138-39.187-6.138s-8.498-17.94-13.69-21.717
			c-6.139-3.777-24.079-3.305-24.079-3.305s1.889-26.439-6.138-28.327c-15.107-3.777-35.881,77.899-42.019,105.282
			c17.469,7.083,49.573,19.357,67.985,22.662v-1.417c0,0,0.473-13.219,9.442-16.524c6.138-2.361,35.409-8.026,43.435-16.524
			C855.386,87.539,859.635,66.766,854.441,59.685z"/>
	</g>
	<g>
		<path fill="#355F95" d="M881.352,190.934c13.22-3.777,33.521-11.331,50.517-22.19c-0.472-8.97,2.36-18.413,3.305-24.55
			c1.889-9.442-0.472-15.107-5.665-28.327c-0.944-2.361-5.193-29.744-13.22-30.216c-8.025-0.944-18.885,26.439-18.885,26.439
			s-23.605,0-26.438,10.387c-3.306,12.747-16.524,19.357-16.997,21.246c-1.889,7.081,1.416,26.438,12.747,29.271
			C874.271,174.409,878.991,183.379,881.352,190.934z"/>
		<path fill="#355F95" d="M938.006,182.435c-0.944-0.945-1.888-2.361-2.833-3.305c-8.97,4.721-36.353,19.356-51.46,23.605
			c6.137,29.271,2.832,102.922,2.832,106.227c0.473,4.721-2.832,7.554-0.473,11.331c3.305,5.666,10.387,6.138,18.413,4.721
			c8.026-1.416,67.513,15.108,105.282-0.472C1055.091,296.688,978.608,198.015,938.006,182.435z"/>
	</g>
	<path fill="#355F95" d="M675.508,311.323c-31.632-24.55-32.104-80.732-40.13-63.736c-7.554,16.053,0,54.294,14.163,71.291
		c13.22,15.58,40.131,14.636,41.075,5.193"/>
	<path fill="#355F95" d="M1022.987,292.911c12.747,8.026,35.408-25.495,16.524-36.825c-11.804-7.082-13.22-9.443-16.524-14.636
		c-8.026-13.22,2.36-50.517,22.661-55.238c15.108-3.777,16.052,10.387,8.026,15.108c-19.829,11.803-21.245,31.632-8.026,41.074
		c7.554,5.194,12.747,9.442,16.052,21.246c4.722,16.996-9.442,44.379-36.353,52.877c0,0-15.107,3.305-17.94-2.833"/>
</g>
<path fill="#355F95" d="M1419.338,1.258c5.875,5.875-9.329,37.665-34.554,62.889c-1.038,1.037-31.1,30.408-43.885,43.539
	c-3.801,3.456-5.529,9.33-4.146,14.858c0,0,32.481,165.172,33.518,170.01c0,0,2.073,8.293-4.492,14.857l-8.983,8.984
	c-1.729,1.728-2.765,0-2.765,0l-54.597-107.81c0,0-1.383-2.765-2.419-4.492c-1.037-1.728-2.765-3.802-2.765-3.802l-19.696-19.696
	c0,0-3.455-3.456-7.602,0c-38.011,33.864-61.162,51.486-73.946,62.543c-6.566,5.875-4.492,15.204-3.802,18.66
	c4.147,20.387,10.021,50.795,10.711,53.56c0,0,1.384,6.219-3.454,11.057l-6.565,6.566c-1.037,1.036-2.073,0.345-2.419-0.345
	l-31.1-62.199c-6.219,4.493-12.094,8.293-13.13,7.602c-0.691-1.036,3.109-6.911,7.602-13.13l-62.198-31.1
	c-0.691-0.345-1.383-1.381-0.346-2.419l6.565-6.565c4.838-4.837,11.058-3.456,11.058-3.456c2.764,0.692,33.172,6.566,53.56,10.713
	c3.456,0.69,12.785,2.764,18.659-3.801c10.712-12.785,28.681-35.937,62.544-73.947c3.455-4.146,0-7.602,0-7.602l-19.696-19.696
	c0,0-1.728-1.728-3.801-2.765c-1.728-1.036-4.492-2.419-4.492-2.419l-107.81-54.596c0,0-1.729-1.037,0-2.764l8.983-8.984
	c6.565-6.565,14.858-4.492,14.858-4.492c4.492,1.037,170.01,33.518,170.01,33.518c5.874,1.037,11.402-0.691,14.857-4.146
	c12.785-13.131,42.503-43.194,43.54-43.885C1382.02,10.587,1413.464-4.617,1419.338,1.258L1419.338,1.258z"/>
</svg>
