<?xml version="1.0" encoding="utf-8"?>
<!-- Generator: Adobe Illustrator 19.1.0, SVG Export Plug-In . SVG Version: 6.00 Build 0)  -->
<svg version="1.1" id="Calque_1" xmlns="http://www.w3.org/2000/svg" xmlns:xlink="http://www.w3.org/1999/xlink" x="0px" y="0px"
	 viewBox="-255 336.6 100 96.3" style="enable-background:new -255 336.6 100 96.3;" xml:space="preserve">
<style type="text/css">
	.st0{fill:#355F95;}
</style>
<path class="st0" d="M-157.4,337c1.7,1.7-2.7,10.9-10,18.2c-0.3,0.3-9,8.8-12.7,12.6c-1.1,1-1.6,2.7-1.2,4.3c0,0,9.4,47.8,9.7,49.2
	c0,0,0.6,2.4-1.3,4.3l-2.6,2.6c-0.5,0.5-0.8,0-0.8,0l-15.8-31.2c0,0-0.4-0.8-0.7-1.3c-0.3-0.5-0.8-1.1-0.8-1.1l-5.7-5.7
	c0,0-1-1-2.2,0c-11,9.8-17.7,14.9-21.4,18.1c-1.9,1.7-1.3,4.4-1.1,5.4c1.2,5.9,2.9,14.7,3.1,15.5c0,0,0.4,1.8-1,3.2l-1.9,1.9
	c-0.3,0.3-0.6,0.1-0.7-0.1l-9-18c-1.8,1.3-3.5,2.4-3.8,2.2c-0.2-0.3,0.9-2,2.2-3.8l-18-9c-0.2-0.1-0.4-0.4-0.1-0.7l1.9-1.9
	c1.4-1.4,3.2-1,3.2-1c0.8,0.2,9.6,1.9,15.5,3.1c1,0.2,3.7,0.8,5.4-1.1c3.1-3.7,8.3-10.4,18.1-21.4c1-1.2,0-2.2,0-2.2l-5.7-5.7
	c0,0-0.5-0.5-1.1-0.8c-0.5-0.3-1.3-0.7-1.3-0.7l-31.2-15.8c0,0-0.5-0.3,0-0.8l2.6-2.6c1.9-1.9,4.3-1.3,4.3-1.3
	c1.3,0.3,49.2,9.7,49.2,9.7c1.7,0.3,3.3-0.2,4.3-1.2c3.7-3.8,12.3-12.5,12.6-12.7C-168.2,339.7-159.1,335.3-157.4,337L-157.4,337z"
	/>
</svg>
