<?xml version="1.0" encoding="utf-8"?>
<!-- Generator: Adobe Illustrator 16.0.0, SVG Export Plug-In . SVG Version: 6.00 Build 0)  -->
<!DOCTYPE svg PUBLIC "-//W3C//DTD SVG 1.1//EN" "http://www.w3.org/Graphics/SVG/1.1/DTD/svg11.dtd">
<svg version="1.1" id="Layer_1" xmlns="http://www.w3.org/2000/svg" xmlns:xlink="http://www.w3.org/1999/xlink" x="0px" y="0px"
	 width="10px" height="10px" viewBox="0 0 10 10" enable-background="new 0 0 10 10" xml:space="preserve">
<path fill="#FFFFFF" d="M2.841,0.052C4.953-0.103,6.557,1.81,6.03,3.862C5.988,4.026,6.027,4.115,6.137,4.223
	C7.25,5.327,8.359,6.438,9.469,7.544C9.534,7.611,9.602,7.677,9.66,7.749c0.359,0.435,0.404,1.06,0.115,1.545
	c-0.293,0.493-0.854,0.743-1.413,0.64c-0.31-0.055-0.56-0.211-0.779-0.435C6.477,8.393,5.362,7.287,4.258,6.172
	C4.123,6.037,4.01,5.986,3.814,6.042C3.456,6.145,3.085,6.161,2.707,6.113C0.759,5.871-0.452,3.905,0.221,2.061
	c0.024-0.07,0.033-0.153,0.113-0.205c0.045,0.039,0.091,0.08,0.137,0.121c0.25,0.23,0.496,0.468,0.756,0.69
	c0.326,0.279,0.689,0.344,1.082,0.155c0.389-0.185,0.631-0.59,0.607-0.995c-0.018-0.27-0.148-0.484-0.332-0.675
	C2.331,0.891,2.081,0.627,1.805,0.337C2.155,0.151,2.495,0.078,2.841,0.052z"/>
</svg>
